<svg width="143" height="19" viewBox="0 0 143 19" fill="none" xmlns="http://www.w3.org/2000/svg">
<path d="M12.0468 0.890628L11.3906 5.83594C11.164 5.77344 10.9375 5.73047 10.7109 5.70703C10.4843 5.6836 10.2578 5.67188 10.0312 5.67188C9.45313 5.67188 8.90235 5.75 8.37891 5.90625C7.85547 6.05469 7.39063 6.28516 6.98438 6.59766C6.58594 6.91016 6.26563 7.30078 6.02344 7.76953C5.78906 8.23828 5.67188 8.78907 5.67188 9.42188C5.67188 9.82813 5.73438 10.1797 5.85938 10.4766C5.99219 10.7734 6.17578 11.0195 6.41016 11.2149C6.64453 11.4102 6.92188 11.5547 7.24219 11.6484C7.5625 11.7422 7.91406 11.7891 8.29688 11.7891C8.58594 11.7891 8.88672 11.7578 9.19922 11.6953C9.51172 11.6328 9.82032 11.5508 10.125 11.4492C10.4297 11.3477 10.7265 11.2305 11.0156 11.0977C11.3047 10.9649 11.5703 10.8281 11.8125 10.6875L11.3437 16.1953C11.039 16.3516 10.707 16.4922 10.3476 16.6172C9.99614 16.7344 9.63282 16.8399 9.25782 16.9336C8.88282 17.0195 8.50782 17.086 8.13282 17.1328C7.75782 17.1797 7.39844 17.2031 7.05469 17.2031C6.0625 17.2031 5.13672 17.0195 4.27735 16.6524C3.41797 16.2852 2.67188 15.7813 2.03906 15.1406C1.40625 14.5 0.906248 13.7461 0.539063 12.8789C0.179688 12.0039 0 11.0625 0 10.0547C0 8.71875 0.191407 7.46094 0.574219 6.28125C0.957028 5.09375 1.51953 4.05469 2.26172 3.16407C3.00391 2.27344 3.92188 1.57031 5.01563 1.05469C6.11719 0.539063 7.38282 0.28125 8.8125 0.28125C9.35156 0.28125 9.90234 0.324219 10.4648 0.410157C11.0351 0.496094 11.5625 0.65625 12.0468 0.890628ZM27.5625 16.3594L21.75 17.1094L21.0468 14.461H18.375L17.789 17.1094L11.8125 16.5234L16.4765 0.914068L22.9921 0.585938L27.5625 16.3594ZM20.625 10.875L19.7343 6.79688L18.8671 10.875H20.625ZM42.6679 0.585938L37.0195 8.39063L41.7773 16.6875L36.3398 17.6484L32.7773 12.586L32.5898 17.8828L27.7148 18.0703L28.0898 0.117188L33.5507 0.421876L33.1289 5.71875L36.7617 0.117188L42.6679 0.585938ZM54.9375 0.609376L54.8203 5.57813L51.3281 5.71875L50.4375 16.8281L45.4921 17.086L45.5156 5.97657L42.0234 6.16407L42.164 0.632813L54.9375 0.609376ZM69.5976 4.33594C69.5976 4.91407 69.5703 5.55078 69.5156 6.2461C69.4609 6.94141 69.3711 7.66016 69.2461 8.40235C69.1211 9.14453 68.957 9.89839 68.7539 10.6641C68.5586 11.4219 68.3125 12.1524 68.0156 12.8555C67.7187 13.5586 67.3711 14.2188 66.9726 14.836C66.582 15.4453 66.1289 15.9805 65.6132 16.4414C65.1054 16.8945 64.5351 17.25 63.9023 17.5078C63.2695 17.7734 62.5664 17.9063 61.7929 17.9063C60.8867 17.9063 60.0976 17.7578 59.4257 17.461C58.7617 17.1719 58.1914 16.7813 57.7148 16.2891C57.2382 15.7891 56.8476 15.211 56.5429 14.5547C56.2382 13.8906 56 13.1914 55.8281 12.457C55.6562 11.7149 55.5351 10.961 55.4648 10.1953C55.4023 9.42188 55.3711 8.67969 55.3711 7.96875C55.3711 6.875 55.4257 5.78516 55.5351 4.69922C55.6445 3.60547 55.8007 2.51563 56.0039 1.42969L61.4882 1.64063C61.2773 2.86719 61.0937 4.10157 60.9375 5.34375C60.789 6.57813 60.7148 7.82031 60.7148 9.07031C60.7148 9.20313 60.7187 9.40235 60.7265 9.66797C60.7421 9.92579 60.7656 10.2188 60.7968 10.5469C60.8281 10.8672 60.8711 11.1992 60.9257 11.543C60.9882 11.8789 61.0703 12.1875 61.1718 12.4688C61.2734 12.75 61.3945 12.9805 61.5351 13.1602C61.6836 13.3399 61.8554 13.4297 62.0507 13.4297C62.2773 13.4297 62.4804 13.3242 62.6601 13.1133C62.8398 12.8945 62.9961 12.6055 63.1289 12.2461C63.2695 11.8867 63.3906 11.4727 63.4921 11.0039C63.5937 10.5352 63.6797 10.0469 63.75 9.53907C63.8203 9.03125 63.875 8.52344 63.914 8.01563C63.9609 7.50781 63.9961 7.03516 64.0195 6.59766C64.0507 6.16016 64.0703 5.77344 64.0781 5.4375C64.0859 5.10157 64.0898 4.85157 64.0898 4.6875C64.0898 4.07813 64.0781 3.47266 64.0547 2.8711C64.039 2.26172 64.0117 1.65625 63.9726 1.05469H69.457C69.5507 2.13281 69.5976 3.22656 69.5976 4.33594ZM82.5351 11.1328C82.5351 12.2031 82.3476 13.1406 81.9726 13.9453C81.6054 14.7422 81.0976 15.4063 80.4492 15.9375C79.8086 16.4688 79.0547 16.8672 78.1875 17.1328C77.3281 17.3984 76.4023 17.5313 75.4101 17.5313C75.0273 17.5313 74.6054 17.4805 74.1445 17.3789C73.6914 17.2774 73.2304 17.1524 72.7617 17.0039C72.2929 16.8477 71.8398 16.6836 71.4023 16.5117C70.9726 16.332 70.5898 16.1641 70.2539 16.0078L70.7695 11.1797C71.4336 11.5781 72.1679 11.8828 72.9726 12.0938C73.7851 12.2969 74.582 12.3984 75.3632 12.3984C75.5117 12.3984 75.6914 12.3945 75.9023 12.3867C76.1132 12.3711 76.3125 12.336 76.5 12.2813C76.6953 12.2188 76.8593 12.1289 76.9921 12.0117C77.125 11.8945 77.1914 11.7266 77.1914 11.5078C77.1914 11.3594 77.1445 11.2344 77.0507 11.1328C76.957 11.0234 76.8359 10.9375 76.6875 10.875C76.539 10.8047 76.3711 10.7539 76.1836 10.7227C75.9961 10.6836 75.8125 10.6563 75.6328 10.6406C75.4531 10.625 75.2851 10.6172 75.1289 10.6172C74.9726 10.6172 74.8476 10.6172 74.7539 10.6172C74.082 10.6172 73.4687 10.5 72.914 10.2656C72.3671 10.0313 71.8945 9.70703 71.4961 9.29297C71.1054 8.8711 70.8007 8.375 70.582 7.80469C70.3632 7.22657 70.2539 6.60157 70.2539 5.92969C70.2539 5.00781 70.4375 4.1836 70.8047 3.45703C71.1797 2.72266 71.6757 2.10156 72.2929 1.59375C72.9179 1.07813 73.6328 0.683594 74.4375 0.410157C75.2421 0.136719 76.0742 0 76.9336 0C77.3164 0 77.7109 0.015625 78.1171 0.046876C78.5234 0.070313 78.9257 0.117188 79.3242 0.1875C79.7304 0.257813 80.125 0.347657 80.5078 0.457032C80.8906 0.566407 81.2539 0.703126 81.5976 0.867188L81.1523 5.625C80.6211 5.44531 80.0625 5.29688 79.4765 5.17969C78.8984 5.05469 78.332 4.99219 77.7773 4.99219C77.6757 4.99219 77.5429 4.9961 77.3789 5.00391C77.2226 5.00391 77.0547 5.01563 76.875 5.03907C76.7031 5.05469 76.5273 5.08203 76.3476 5.1211C76.1679 5.16016 76.0078 5.21485 75.8671 5.28516C75.7265 5.34766 75.6132 5.4336 75.5273 5.54297C75.4414 5.65235 75.4023 5.78125 75.4101 5.92969C75.4179 6.10157 75.4804 6.24219 75.5976 6.35157C75.7226 6.45313 75.8789 6.53516 76.0664 6.59766C76.2617 6.65235 76.4726 6.69141 76.6992 6.71485C76.9336 6.73828 77.164 6.75391 77.3906 6.76172C77.6171 6.76172 77.8281 6.76172 78.0234 6.76172C78.2187 6.75391 78.3789 6.75781 78.5039 6.77344C79.1289 6.8125 79.6914 6.94531 80.1914 7.17188C80.6914 7.39844 81.1132 7.69922 81.457 8.07422C81.8086 8.44922 82.0742 8.89844 82.2539 9.42188C82.4414 9.93749 82.5351 10.5078 82.5351 11.1328ZM99.5859 0.890628L98.9297 5.83594C98.7031 5.77344 98.4765 5.73047 98.25 5.70703C98.0234 5.6836 97.7968 5.67188 97.5703 5.67188C96.9921 5.67188 96.4414 5.75 95.9179 5.90625C95.3945 6.05469 94.9297 6.28516 94.5234 6.59766C94.125 6.91016 93.8047 7.30078 93.5625 7.76953C93.3281 8.23828 93.2109 8.78907 93.2109 9.42188C93.2109 9.82813 93.2734 10.1797 93.3984 10.4766C93.5312 10.7734 93.7148 11.0195 93.9492 11.2149C94.1836 11.4102 94.4609 11.5547 94.7812 11.6484C95.1015 11.7422 95.4531 11.7891 95.8359 11.7891C96.125 11.7891 96.4257 11.7578 96.7382 11.6953C97.0507 11.6328 97.3593 11.5508 97.664 11.4492C97.9687 11.3477 98.2656 11.2305 98.5547 11.0977C98.8437 10.9649 99.1093 10.8281 99.3515 10.6875L98.8828 16.1953C98.5781 16.3516 98.2461 16.4922 97.8867 16.6172C97.5351 16.7344 97.1718 16.8399 96.7968 16.9336C96.4218 17.0195 96.0468 17.086 95.6718 17.1328C95.2968 17.1797 94.9375 17.2031 94.5937 17.2031C93.6015 17.2031 92.6757 17.0195 91.8164 16.6524C90.957 16.2852 90.2109 15.7813 89.5781 15.1406C88.9453 14.5 88.4453 13.7461 88.0781 12.8789C87.7187 12.0039 87.539 11.0625 87.539 10.0547C87.539 8.71875 87.7304 7.46094 88.1132 6.28125C88.4961 5.09375 89.0586 4.05469 89.8007 3.16407C90.5429 2.27344 91.4609 1.57031 92.5547 1.05469C93.6562 0.539063 94.9218 0.28125 96.3515 0.28125C96.8906 0.28125 97.4414 0.324219 98.0039 0.410157C98.5742 0.496094 99.1015 0.65625 99.5859 0.890628ZM114.668 9.09375C114.668 9.80469 114.586 10.4922 114.422 11.1563C114.258 11.8125 114.02 12.4297 113.707 13.0078C113.402 13.586 113.027 14.1172 112.582 14.6016C112.145 15.0781 111.648 15.4883 111.094 15.832C110.547 16.1758 109.949 16.4453 109.301 16.6406C108.652 16.8281 107.965 16.9219 107.238 16.9219C106.535 16.9219 105.863 16.832 105.223 16.6524C104.59 16.4727 103.996 16.2227 103.441 15.9024C102.887 15.5742 102.383 15.1836 101.93 14.7305C101.484 14.2695 101.102 13.7617 100.781 13.207C100.469 12.6445 100.223 12.043 100.043 11.4024C99.8709 10.7617 99.7851 10.0938 99.7851 9.39844C99.7851 8.71875 99.8669 8.05469 100.031 7.40625C100.195 6.75 100.43 6.13281 100.734 5.55469C101.047 4.97657 101.422 4.44531 101.859 3.96094C102.297 3.47657 102.785 3.0586 103.324 2.70703C103.871 2.35547 104.461 2.08203 105.094 1.88672C105.727 1.69141 106.395 1.59375 107.098 1.59375C108.231 1.59375 109.262 1.76953 110.191 2.1211C111.129 2.47266 111.926 2.97657 112.582 3.63281C113.246 4.28125 113.758 5.07031 114.117 6C114.484 6.92188 114.668 7.95313 114.668 9.09375ZM109.465 9.39844C109.465 9.0625 109.414 8.73828 109.313 8.42578C109.219 8.10547 109.078 7.82422 108.891 7.58203C108.703 7.33203 108.469 7.13281 108.188 6.98438C107.914 6.82813 107.598 6.75 107.238 6.75C106.871 6.75 106.543 6.81641 106.254 6.94922C105.965 7.08203 105.715 7.26563 105.504 7.5C105.301 7.72657 105.145 7.9961 105.035 8.3086C104.926 8.61328 104.871 8.9375 104.871 9.28125C104.871 9.60938 104.918 9.93749 105.012 10.2656C105.106 10.5938 105.246 10.8906 105.434 11.1563C105.621 11.4219 105.852 11.6367 106.125 11.8008C106.406 11.9649 106.731 12.0469 107.098 12.0469C107.465 12.0469 107.793 11.9766 108.082 11.836C108.379 11.6875 108.629 11.4922 108.832 11.25C109.035 11 109.191 10.7149 109.301 10.3945C109.41 10.0742 109.465 9.74219 109.465 9.39844ZM127.102 0.890628L126.445 5.83594C126.219 5.77344 125.992 5.73047 125.766 5.70703C125.539 5.6836 125.313 5.67188 125.086 5.67188C124.508 5.67188 123.957 5.75 123.434 5.90625C122.91 6.05469 122.445 6.28516 122.039 6.59766C121.641 6.91016 121.32 7.30078 121.078 7.76953C120.844 8.23828 120.727 8.78907 120.727 9.42188C120.727 9.82813 120.789 10.1797 120.914 10.4766C121.047 10.7734 121.231 11.0195 121.465 11.2149C121.699 11.4102 121.977 11.5547 122.297 11.6484C122.617 11.7422 122.969 11.7891 123.352 11.7891C123.641 11.7891 123.941 11.7578 124.254 11.6953C124.566 11.6328 124.875 11.5508 125.18 11.4492C125.484 11.3477 125.781 11.2305 126.07 11.0977C126.359 10.9649 126.625 10.8281 126.867 10.6875L126.398 16.1953C126.094 16.3516 125.762 16.4922 125.402 16.6172C125.051 16.7344 124.688 16.8399 124.313 16.9336C123.938 17.0195 123.563 17.086 123.188 17.1328C122.813 17.1797 122.453 17.2031 122.109 17.2031C121.117 17.2031 120.191 17.0195 119.332 16.6524C118.473 16.2852 117.727 15.7813 117.094 15.1406C116.461 14.5 115.961 13.7461 115.594 12.8789C115.234 12.0039 115.055 11.0625 115.055 10.0547C115.055 8.71875 115.246 7.46094 115.629 6.28125C116.012 5.09375 116.574 4.05469 117.316 3.16407C118.059 2.27344 118.977 1.57031 120.07 1.05469C121.172 0.539063 122.438 0.28125 123.867 0.28125C124.406 0.28125 124.957 0.324219 125.52 0.410157C126.09 0.496094 126.617 0.65625 127.102 0.890628ZM142.184 9.09375C142.184 9.80469 142.102 10.4922 141.938 11.1563C141.774 11.8125 141.535 12.4297 141.223 13.0078C140.918 13.586 140.543 14.1172 140.098 14.6016C139.66 15.0781 139.164 15.4883 138.609 15.832C138.063 16.1758 137.465 16.4453 136.816 16.6406C136.168 16.8281 135.481 16.9219 134.754 16.9219C134.051 16.9219 133.379 16.832 132.738 16.6524C132.106 16.4727 131.512 16.2227 130.957 15.9024C130.402 15.5742 129.898 15.1836 129.445 14.7305C129 14.2695 128.617 13.7617 128.297 13.207C127.984 12.6445 127.738 12.043 127.559 11.4024C127.387 10.7617 127.301 10.0938 127.301 9.39844C127.301 8.71875 127.383 8.05469 127.547 7.40625C127.711 6.75 127.945 6.13281 128.25 5.55469C128.563 4.97657 128.938 4.44531 129.375 3.96094C129.813 3.47657 130.301 3.0586 130.84 2.70703C131.387 2.35547 131.977 2.08203 132.609 1.88672C133.242 1.69141 133.91 1.59375 134.613 1.59375C135.746 1.59375 136.777 1.76953 137.707 2.1211C138.645 2.47266 139.441 2.97657 140.098 3.63281C140.762 4.28125 141.274 5.07031 141.633 6C142 6.92188 142.184 7.95313 142.184 9.09375ZM136.981 9.39844C136.981 9.0625 136.93 8.73828 136.828 8.42578C136.734 8.10547 136.594 7.82422 136.406 7.58203C136.219 7.33203 135.984 7.13281 135.703 6.98438C135.43 6.82813 135.113 6.75 134.754 6.75C134.387 6.75 134.059 6.81641 133.77 6.94922C133.481 7.08203 133.231 7.26563 133.02 7.5C132.816 7.72657 132.66 7.9961 132.551 8.3086C132.441 8.61328 132.387 8.9375 132.387 9.28125C132.387 9.60938 132.434 9.93749 132.527 10.2656C132.621 10.5938 132.762 10.8906 132.949 11.1563C133.137 11.4219 133.367 11.6367 133.641 11.8008C133.922 11.9649 134.246 12.0469 134.613 12.0469C134.981 12.0469 135.309 11.9766 135.598 11.836C135.895 11.6875 136.145 11.4922 136.348 11.25C136.551 11 136.707 10.7149 136.816 10.3945C136.926 10.0742 136.981 9.74219 136.981 9.39844Z" fill="#148BAF"/>
</svg>
