<svg width="28" height="30" viewBox="0 0 28 30" fill="none" xmlns="http://www.w3.org/2000/svg">
<path d="M16.8391 2.88234C16.8391 4.45047 15.5681 5.72172 14 5.72172C12.4319 5.72172 11.1606 4.45047 11.1606 2.88234C11.1606 1.31422 12.4319 0.0429688 14 0.0429688C15.5681 0.0429688 16.8391 1.31422 16.8391 2.88234Z" fill="black"/>
<path d="M6.34476 8.94069C6.34476 10.5088 5.07351 11.7801 3.50539 11.7801C1.93727 11.7801 0.666016 10.5088 0.666016 8.94069C0.666016 7.37256 1.93727 6.10156 3.50539 6.10156C5.07351 6.10156 6.34476 7.37256 6.34476 8.94069Z" fill="black"/>
<path d="M6.34476 21.0579C6.34476 22.626 5.07351 23.8972 3.50539 23.8972C1.93727 23.8972 0.666016 22.626 0.666016 21.0579C0.666016 19.49 1.93727 18.2188 3.50539 18.2188C5.07351 18.2188 6.34476 19.49 6.34476 21.0579Z" fill="black"/>
<path d="M16.8391 27.1165C16.8391 28.6846 15.5681 29.9558 14 29.9558C12.4319 29.9558 11.1606 28.6846 11.1606 27.1165C11.1606 25.5483 12.4319 24.2773 14 24.2773C15.5681 24.2773 16.8391 25.5483 16.8391 27.1165Z" fill="black"/>
<path d="M27.333 21.0579C27.333 22.626 26.0618 23.8972 24.4937 23.8972C22.9256 23.8972 21.6543 22.626 21.6543 21.0579C21.6543 19.49 22.9256 18.2188 24.4937 18.2188C26.0618 18.2188 27.333 19.49 27.333 21.0579Z" fill="black"/>
<path d="M27.3323 8.94141C27.3323 10.5095 26.0613 11.7805 24.4934 11.7805C22.9255 11.7805 21.6543 10.5095 21.6543 8.94141C21.6543 7.37354 22.9255 6.10254 24.4934 6.10254C26.0613 6.10254 27.3323 7.37354 27.3323 8.94141Z" fill="black"/>
</svg>
