<svg width="30" height="30" viewBox="0 0 30 30" fill="none" xmlns="http://www.w3.org/2000/svg">
<g clip-path="url(#clip0_168_141)">
<path d="M25.306 13.3019C25.4705 13.1378 25.5612 12.9195 25.5616 12.6872L25.563 11.6501C25.5639 10.9804 25.5996 10.4345 26.0421 10.0141C26.045 10.0113 26.0478 10.0086 26.0505 10.0056C26.5527 9.47712 26.8301 8.78404 26.831 8.05461C26.8321 7.29652 26.5378 6.58338 26.0024 6.04643C25.4671 5.5097 24.7546 5.21328 23.9965 5.2124H23.9926C23.236 5.2124 22.5243 5.50651 21.9883 6.04098C21.4516 6.57633 21.1552 7.28885 21.1543 8.04687C21.1532 8.77631 21.4285 9.47006 21.9295 9.99992C21.9322 10.0029 21.935 10.0056 21.938 10.0084C22.379 10.43 22.4134 10.9761 22.4127 11.6458L22.4113 12.6828C22.4106 13.1624 22.8004 13.5531 23.2799 13.5537L24.6912 13.5556H24.6925C24.9237 13.5558 25.1419 13.4656 25.306 13.3019ZM22.8803 11.8806L25.094 11.8836L25.0936 12.2498H22.8799L22.8803 11.8806ZM23.9908 9.62677H23.9904C23.8984 9.62654 23.8096 9.58099 23.7402 9.49791C23.661 9.40315 23.6173 9.27452 23.6175 9.13605C23.6178 8.99757 23.6617 8.86917 23.7411 8.77464C23.8107 8.69201 23.8995 8.64647 23.9913 8.64647H23.9918C24.0838 8.6467 24.1726 8.69224 24.2419 8.77533C24.3211 8.87008 24.3648 8.99871 24.3646 9.13719C24.3644 9.27566 24.3204 9.40407 24.241 9.4986C24.1712 9.58145 24.0826 9.62677 23.9908 9.62677ZM21.6226 8.04749C21.6235 7.41439 21.8707 6.81978 22.3191 6.37277C22.7666 5.92644 23.3607 5.68083 23.9925 5.68083H23.9957C24.6288 5.68175 25.2234 5.92894 25.6704 6.37734C26.1174 6.82548 26.3632 7.42101 26.3623 8.05388C26.3614 8.66109 26.1314 9.23788 25.7146 9.67851C25.2053 10.1658 25.1122 10.7735 25.0973 11.415L24.2244 11.4139V10.0578C24.3658 10.0117 24.4947 9.92478 24.5995 9.80049C24.7499 9.62173 24.833 9.38645 24.8332 9.13786C24.8337 8.88929 24.7513 8.65377 24.6013 8.47481C24.4416 8.28392 24.2253 8.17841 23.9925 8.17818H23.9914C23.759 8.17818 23.543 8.28301 23.3827 8.47321C23.2324 8.65197 23.1493 8.88726 23.1491 9.13561C23.1486 9.38418 23.231 9.61969 23.3809 9.79889C23.4855 9.92386 23.6144 10.0113 23.7558 10.0575V11.4134L22.8787 11.4123C22.8654 10.7708 22.7739 10.1629 22.266 9.67418C21.8501 9.23198 21.6217 8.65476 21.6226 8.04749ZM24.6912 13.0873L23.2799 13.0854C23.0705 13.085 22.8984 12.9234 22.881 12.7185H25.0916C25.084 12.8137 25.0435 12.9021 24.9753 12.9701C24.8995 13.0456 24.7988 13.0873 24.6919 13.0873L24.6912 13.0873C24.6914 13.0873 24.6914 13.0873 24.6912 13.0873Z" fill="#148BAF"/>
<path d="M24.6912 13.0873L23.2799 13.0854C23.0705 13.085 22.8984 12.9234 22.881 12.7185H25.0916C25.084 12.8137 25.0435 12.9021 24.9753 12.9701C24.8995 13.0456 24.7988 13.0873 24.6919 13.0873L24.6912 13.0873ZM24.6912 13.0873C24.6914 13.0873 24.6914 13.0873 24.6912 13.0873ZM25.306 13.3019C25.4705 13.1378 25.5612 12.9195 25.5616 12.6872L25.563 11.6501C25.5639 10.9804 25.5996 10.4345 26.0421 10.0141C26.045 10.0113 26.0478 10.0086 26.0505 10.0056C26.5527 9.47712 26.8301 8.78404 26.831 8.05461C26.8321 7.29652 26.5378 6.58338 26.0024 6.04643C25.4671 5.5097 24.7546 5.21328 23.9965 5.2124H23.9926C23.236 5.2124 22.5243 5.50651 21.9883 6.04098C21.4516 6.57633 21.1552 7.28885 21.1543 8.04687C21.1532 8.77631 21.4285 9.47006 21.9295 9.99992C21.9322 10.0029 21.935 10.0056 21.938 10.0084C22.379 10.43 22.4134 10.9761 22.4127 11.6458L22.4113 12.6828C22.4106 13.1624 22.8004 13.5531 23.2799 13.5537L24.6912 13.5556H24.6925C24.9237 13.5558 25.1419 13.4656 25.306 13.3019ZM22.8803 11.8806L25.094 11.8836L25.0936 12.2498H22.8799L22.8803 11.8806ZM23.9908 9.62677H23.9904C23.8984 9.62654 23.8096 9.58099 23.7402 9.49791C23.661 9.40315 23.6173 9.27452 23.6175 9.13605C23.6178 8.99757 23.6617 8.86917 23.7411 8.77464C23.8107 8.69201 23.8995 8.64647 23.9913 8.64647H23.9918C24.0838 8.6467 24.1726 8.69224 24.2419 8.77533C24.3211 8.87008 24.3648 8.99871 24.3646 9.13719C24.3644 9.27566 24.3204 9.40407 24.241 9.4986C24.1712 9.58145 24.0826 9.62677 23.9908 9.62677ZM21.6226 8.04749C21.6235 7.41439 21.8707 6.81978 22.3191 6.37277C22.7666 5.92644 23.3607 5.68083 23.9925 5.68083H23.9957C24.6288 5.68175 25.2234 5.92894 25.6704 6.37734C26.1174 6.82548 26.3632 7.42101 26.3623 8.05388C26.3614 8.66109 26.1314 9.23788 25.7146 9.67851C25.2053 10.1658 25.1122 10.7735 25.0973 11.415L24.2244 11.4139V10.0578C24.3658 10.0117 24.4947 9.92478 24.5995 9.80049C24.7499 9.62173 24.833 9.38645 24.8332 9.13786C24.8337 8.88929 24.7513 8.65377 24.6013 8.47481C24.4416 8.28392 24.2253 8.17841 23.9925 8.17818H23.9914C23.759 8.17818 23.543 8.28301 23.3827 8.47321C23.2324 8.65197 23.1493 8.88726 23.1491 9.13561C23.1486 9.38418 23.231 9.61969 23.3809 9.79889C23.4855 9.92386 23.6144 10.0113 23.7558 10.0575V11.4134L22.8787 11.4123C22.8654 10.7708 22.7739 10.1629 22.266 9.67418C21.8501 9.23198 21.6217 8.65476 21.6226 8.04749Z" stroke="#148BAF" stroke-width="0.5"/>
<mask id="mask0_168_141" style="mask-type:luminance" maskUnits="userSpaceOnUse" x="-1" y="-1" width="32" height="32">
<path d="M0.239258 0.239655H29.7594V29.7598H0.239258V0.239655Z" fill="white" stroke="white" stroke-width="0.5"/>
</mask>
<g mask="url(#mask0_168_141)">
<path d="M25.2463 16.1151V15.2291C26.352 14.8001 27.2211 13.8988 27.5894 13.2694C27.6823 13.1105 27.7699 12.919 27.8517 12.7004C27.8739 12.7011 27.8961 12.7024 27.9185 12.7024C28.5355 12.7024 29.2209 12.428 29.4159 11.6265C29.604 10.8536 29.2277 10.19 28.409 9.84969C28.5005 8.56385 28.4479 6.98206 27.902 5.67606L29.6537 4.52686C29.7619 4.45591 29.7919 4.31057 29.721 4.20253C29.65 4.09427 29.5047 4.06429 29.3966 4.13524L27.6995 5.24876C27.5344 4.93977 27.3369 4.65163 27.0998 4.39411C26.3866 3.61892 25.4022 3.20917 24.1729 3.17302L26.496 0.632451C26.5832 0.537008 26.5768 0.388689 26.4811 0.30149C26.3857 0.214285 26.2376 0.220696 26.1502 0.316368L23.5235 3.1884C22.4295 3.27675 21.5444 3.68118 20.8886 4.39414C20.1429 5.20484 19.7806 6.31402 19.6311 7.44424L18.1858 9.02469C18.159 8.99356 18.1324 8.9622 18.1045 8.93199C17.8797 8.68778 17.6277 8.48018 17.3499 8.30873L21.2665 0.580215C21.3249 0.464856 21.2789 0.323867 21.1633 0.265274C21.0479 0.206909 20.9069 0.252914 20.8483 0.368499L16.9363 8.08823C16.4373 7.86255 15.8688 7.73643 15.2334 7.71194V0.474442C15.2334 0.345126 15.1286 0.240067 14.9991 0.240067C14.8697 0.240067 14.7647 0.344897 14.7647 0.474442V7.71194C14.1293 7.73643 13.5605 7.86255 13.0618 8.08823L9.14975 0.368499C9.09116 0.252911 8.95017 0.206908 8.83481 0.265274C8.71945 0.323867 8.67322 0.464856 8.73159 0.580215L12.648 8.30815C12.3704 8.47981 12.1181 8.68718 11.8934 8.93141C11.8654 8.96185 11.8389 8.99298 11.8121 9.0241L10.3674 7.44412C10.218 6.31414 9.85564 5.20473 9.10995 4.39379C8.45399 3.68082 7.5691 3.27641 6.47504 3.18805L3.8484 0.316251C3.76097 0.220579 3.61288 0.214168 3.51744 0.301373C3.42177 0.388806 3.41513 0.536891 3.50256 0.632334L5.82616 3.1729C4.59686 3.20883 3.61243 3.61854 2.89922 4.39399C2.66233 4.65148 2.46458 4.93965 2.29958 5.24864L0.602173 4.13513C0.493909 4.06418 0.348802 4.09439 0.277845 4.20242C0.206894 4.31068 0.237104 4.45579 0.345134 4.52674L2.09679 5.67594C1.55091 6.98194 1.49802 8.5635 1.58982 9.84958C0.771327 10.1899 0.394803 10.8535 0.582948 11.6264C0.777954 12.4282 1.46303 12.7023 2.08031 12.7023C2.10274 12.7023 2.12471 12.701 2.14714 12.7003C2.22862 12.9191 2.31651 13.1104 2.40944 13.2693C2.77748 13.8987 3.64677 14.8 4.75249 15.2289V16.1149C3.61173 16.5084 1.65915 17.531 0.267315 20.1155C0.205973 20.2295 0.248547 20.3717 0.36253 20.4328C0.398007 20.4518 0.436001 20.4609 0.473308 20.4609C0.556851 20.4609 0.637417 20.4163 0.679757 20.3378C2.06222 17.7707 4.01573 16.8363 5.05712 16.5079C5.15463 16.4772 5.221 16.3868 5.221 16.2845V15.3775C5.47369 15.4391 5.73576 15.4741 6.00446 15.4741C6.27339 15.4741 6.53524 15.4391 6.78792 15.3775V16.2844C6.78792 16.3867 6.85429 16.4771 6.9518 16.5077C8.23787 16.9133 10.5729 18.1136 11.9068 21.6052C10.2619 22.7663 8.37058 25.0483 7.81078 29.496C7.79453 29.6244 7.88562 29.7416 8.01403 29.7578C8.0241 29.759 8.03394 29.7597 8.04356 29.7597C8.15983 29.7597 8.26076 29.6731 8.27564 29.5546C9.06713 23.2692 12.5788 21.5102 14.0519 21.0456C14.1494 21.0149 14.2158 20.9245 14.2158 20.8222V19.9154C14.4685 19.9769 14.7306 20.0119 14.9993 20.0119C15.2682 20.0119 15.53 19.9769 15.7827 19.9154V20.7771C15.7827 20.9744 15.8866 21.0332 15.9603 21.0501C17.4414 21.5214 20.9339 23.2893 21.7227 29.555C21.7376 29.6734 21.8385 29.7601 21.9548 29.7601C21.9644 29.7601 21.9744 29.7594 21.9843 29.7583C22.1127 29.742 22.2036 29.6251 22.1875 29.4964C21.6275 25.0488 19.7364 22.7669 18.0915 21.6056C19.4254 18.114 21.7604 16.9138 23.0465 16.5082C23.144 16.4775 23.2104 16.3871 23.2104 16.2848L23.2106 15.3778C23.4633 15.4393 23.7254 15.4744 23.9941 15.4744C24.263 15.4744 24.5249 15.4393 24.7775 15.3778V16.2846C24.7775 16.3869 24.8439 16.4774 24.9414 16.508C25.9828 16.8365 27.9363 17.7708 29.3186 20.3379C29.3609 20.4164 29.4417 20.461 29.525 20.461C29.5625 20.461 29.6005 20.4521 29.6358 20.4329C29.7498 20.3715 29.7923 20.2294 29.731 20.1156C28.3394 17.5314 26.3868 16.5089 25.2463 16.1153L25.2463 16.1151ZM28.9604 11.5157C28.821 12.0881 28.3426 12.2163 28.0041 12.2321C28.158 11.6981 28.2809 11.055 28.3621 10.3432C28.7487 10.5382 29.1126 10.8909 28.9604 11.5157L28.9604 11.5157ZM19.3674 14.8809C19.7538 15.0757 20.118 15.4284 19.9657 16.0533C19.8263 16.6257 19.348 16.7539 19.0095 16.7697C19.1631 16.2362 19.286 15.593 19.3674 14.881L19.3674 14.8809ZM19.1129 10.7927C19.242 10.5773 19.4539 10.4329 19.6263 10.3443C19.7075 11.0552 19.8305 11.6977 19.984 12.2314C19.798 12.2221 19.564 12.1788 19.3704 12.0435C19.3173 11.6194 19.2342 11.1978 19.1129 10.7927ZM19.5606 8.21591C19.5299 8.78308 19.5434 9.33927 19.5796 9.84968C19.3773 9.93391 19.1337 10.0673 18.9305 10.271C18.8067 9.9648 18.6563 9.67322 18.4748 9.40316L19.5606 8.21591ZM11.5239 9.40337C11.3424 9.67322 11.192 9.96504 11.0682 10.2713C10.8649 10.0676 10.6214 9.93412 10.4191 9.84989C10.4555 9.33994 10.469 8.78378 10.4383 8.21635L11.5239 9.40337ZM10.3724 10.3443C10.5447 10.4329 10.7567 10.5773 10.8858 10.7927C10.7645 11.1976 10.6814 11.6192 10.6283 12.0433C10.4347 12.1786 10.2007 12.2221 10.0146 12.2315C10.1682 11.6979 10.2909 11.0555 10.3724 10.3443ZM10.631 14.881C10.7123 15.5926 10.8352 16.2358 10.989 16.77C10.6505 16.7539 10.1722 16.6258 10.0328 16.0535C9.88078 15.4284 10.2447 15.0759 10.6311 14.8809L10.631 14.881ZM1.03807 11.5157C0.885856 10.8909 1.24978 10.5382 1.63637 10.3434C1.71762 11.055 1.84053 11.6981 1.99434 12.2321C1.65582 12.2163 1.17748 12.0881 1.03809 11.5157L1.03807 11.5157ZM5.08654 14.8549C5.06915 14.8466 5.05084 14.84 5.03115 14.8361C3.98789 14.4768 3.15797 13.6216 2.8135 13.033C2.47406 12.4528 2.19644 11.318 2.07053 9.99714C1.96112 8.68704 1.99202 7.01044 2.59329 5.70562C2.59993 5.69394 2.60611 5.68204 2.61046 5.66991C2.7764 5.31766 2.98422 4.99309 3.24357 4.71138C3.89888 3.99911 4.82765 3.63817 6.00433 3.63817C7.18101 3.63817 8.10984 3.99935 8.76486 4.71138C9.44648 5.45229 9.77583 6.48794 9.90995 7.54954C9.91018 7.56648 9.91224 7.58341 9.91636 7.60012C10.0162 8.42776 9.99876 9.26887 9.93788 9.99608C9.81222 11.3174 9.53436 12.4527 9.19467 13.0331C8.71562 13.8523 7.40915 15.0058 6.00407 15.0058C5.68615 15.0058 5.37829 14.95 5.08649 14.855L5.08654 14.8549ZM13.7467 20.6529C13.3526 20.7891 12.8516 21.0047 12.3063 21.3411C10.9511 17.8811 8.63715 16.5898 7.25609 16.1151V15.2323C7.25609 15.2314 7.25586 15.2305 7.25586 15.2296C8.36159 14.8009 9.23088 13.8991 9.59914 13.2697C9.69207 13.1111 9.7795 12.92 9.86122 12.7014C9.8841 12.7021 9.90768 12.7025 9.9324 12.7025C10.115 12.7025 10.3455 12.6792 10.5746 12.5945C10.5316 13.2168 10.5444 13.8298 10.584 14.3876C9.76553 14.7281 9.38901 15.3917 9.57715 16.1644C9.77216 16.9662 10.4574 17.2403 11.0747 17.2403C11.0972 17.2403 11.1192 17.2389 11.1414 17.2383C11.2228 17.4571 11.3107 17.6484 11.4037 17.8073C11.7717 18.4367 12.641 19.3383 13.7467 19.7669L13.7467 20.6529ZM14.0813 19.3927C14.0637 19.3842 14.0454 19.3776 14.0257 19.3739C12.9827 19.0143 12.1528 18.1594 11.8083 17.5708C11.4691 16.9906 11.1912 15.8558 11.0653 14.5351C11.0067 13.8332 10.9889 13.0261 11.0768 12.2275C11.0822 12.2074 11.0839 12.1865 11.0836 12.1657C11.1356 11.7221 11.221 11.282 11.3512 10.8648C11.3587 10.848 11.3647 10.8307 11.3681 10.8126C11.5192 10.3438 11.7279 9.90507 12.0106 9.52486C12.0122 9.52257 12.014 9.52028 12.0156 9.51799C12.0854 9.42484 12.1594 9.33488 12.2381 9.24906C12.8932 8.53702 13.822 8.17585 14.9986 8.17585C16.1753 8.17585 17.1041 8.53703 17.7592 9.24906C17.8381 9.33488 17.9121 9.42461 17.9816 9.51776C17.9832 9.52005 17.9848 9.52234 17.9867 9.52463C18.2693 9.90457 18.4779 10.3429 18.6289 10.8114C18.6324 10.8299 18.6383 10.8476 18.6461 10.8647C19.0164 12.0522 19.0247 13.425 18.932 14.5335C18.8061 15.8548 18.5284 16.9901 18.189 17.5705C17.7429 18.3332 16.4822 19.5435 14.9984 19.5435C14.6807 19.5435 14.3731 19.4874 14.0813 19.3927ZM22.7415 15.2323V16.1151C21.3604 16.5898 19.0464 17.8814 17.6912 21.3411C17.1463 21.0046 16.645 20.7888 16.2509 20.6528V19.7698C16.2509 19.7689 16.2506 19.768 16.2506 19.7671C17.3564 19.3384 18.2257 18.4366 18.5939 17.8072C18.6868 17.6483 18.7745 17.457 18.8562 17.2382C18.8784 17.2389 18.9004 17.2402 18.9228 17.2402C19.5401 17.2402 20.2254 16.9658 20.4204 16.1643C20.6086 15.3914 20.2321 14.728 19.4136 14.3875C19.4534 13.8299 19.466 13.2168 19.4229 12.5946C19.6523 12.6793 19.8828 12.7027 20.0654 12.7027C20.0901 12.7027 20.1137 12.7022 20.1366 12.7015C20.2181 12.9199 20.3057 13.1112 20.3987 13.2698C20.7667 13.8993 21.636 14.8011 22.7419 15.2297C22.7417 15.2304 22.7415 15.2314 22.7415 15.2323ZM20.8028 13.033C20.4634 12.4525 20.1856 11.3173 20.0599 9.99845C19.999 9.26966 19.9816 8.42784 20.0814 7.59933C20.0851 7.58331 20.0871 7.56706 20.0876 7.55058C20.2217 6.4881 20.5511 5.45222 21.2329 4.71106C21.888 3.99903 22.8167 3.63786 23.9934 3.63786C25.1701 3.63786 26.0989 3.99904 26.754 4.71106C27.0131 4.99282 27.2209 5.31739 27.3871 5.6696C27.3916 5.68196 27.3976 5.69363 27.4042 5.7053C28.0055 7.01019 28.0364 8.68673 27.927 9.99683C27.8013 11.3177 27.5235 12.4525 27.184 13.0327C26.8398 13.6216 26.0096 14.4765 24.9664 14.8358C24.9469 14.8397 24.9286 14.8463 24.9112 14.8546C24.6194 14.9495 24.3116 15.0054 23.9936 15.0054C22.5886 15.0056 21.2819 13.852 20.8028 13.0329L20.8028 13.033Z" fill="#148BAF" stroke="#148BAF" stroke-width="0.5"/>
</g>
<path d="M8.92502 11.7943C8.98316 11.7543 9.02023 11.6902 9.02573 11.6197L9.36951 7.2581C9.37798 7.15006 9.31138 7.0505 9.20838 7.01685C8.15645 6.67444 6.97063 6.83718 6.00494 7.44967C5.03932 6.83719 3.85367 6.67447 2.8015 7.01685C2.69851 7.05027 2.6319 7.15006 2.64037 7.2581L2.98415 11.6197C2.98965 11.6902 3.02672 11.7543 3.08486 11.7943C3.143 11.8344 3.21601 11.8461 3.28399 11.8259C4.21575 11.551 5.08645 11.6872 5.87149 12.231L5.87286 12.232C5.87515 12.2336 5.87767 12.2347 5.87996 12.2361C5.88934 12.242 5.89918 12.2473 5.90903 12.2519C5.91315 12.2537 5.91749 12.2553 5.92207 12.2569C5.93123 12.2603 5.94038 12.2633 5.94977 12.2656C5.95412 12.2668 5.95846 12.2677 5.96281 12.2686C5.97678 12.2711 5.99074 12.2729 6.00493 12.2729C6.01912 12.2729 6.03308 12.2713 6.04704 12.2686C6.05139 12.2677 6.05574 12.2668 6.06009 12.2656C6.06947 12.2633 6.07863 12.2603 6.08778 12.2569C6.09213 12.2553 6.09648 12.2537 6.10083 12.2519C6.1109 12.2473 6.12051 12.242 6.1299 12.2361C6.13219 12.2347 6.1347 12.2336 6.13699 12.232L6.13837 12.231C6.92323 11.687 7.79387 11.5508 8.72563 11.8259C8.79361 11.8461 8.86689 11.8344 8.92502 11.7943ZM3.42957 11.3052L3.12264 7.41101C4.0036 7.18144 4.97291 7.34464 5.77078 7.85756V11.6213C5.27388 11.3558 4.74176 11.2214 4.19151 11.2214C3.94088 11.2216 3.68638 11.2494 3.42957 11.3052ZM6.23932 11.6222V7.85757C7.03742 7.34465 8.0065 7.18146 8.88746 7.41102L8.58053 11.3052C7.76069 11.1267 6.96283 11.2356 6.23932 11.6222Z" fill="#148BAF" stroke="#148BAF" stroke-width="0.5"/>
</g>
<defs>
<clipPath id="clip0_168_141">
<rect width="30" height="30" fill="white"/>
</clipPath>
</defs>
</svg>
