<svg width="25" height="25" viewBox="0 0 25 25" fill="none" xmlns="http://www.w3.org/2000/svg">
<path d="M14.6295 3.41176C14.6295 4.58785 13.6762 5.54129 12.5001 5.54129C11.324 5.54129 10.3706 4.58785 10.3706 3.41176C10.3706 2.23566 11.324 1.28223 12.5001 1.28223C13.6762 1.28223 14.6295 2.23566 14.6295 3.41176Z" fill="#148BAF"/>
<path d="M6.75857 7.95552C6.75857 9.13161 5.80514 10.085 4.62904 10.085C3.45295 10.085 2.49951 9.13161 2.49951 7.95552C2.49951 6.77942 3.45295 5.82617 4.62904 5.82617C5.80514 5.82617 6.75857 6.77942 6.75857 7.95552Z" fill="#148BAF"/>
<path d="M6.75857 17.0434C6.75857 18.2195 5.80514 19.1729 4.62904 19.1729C3.45295 19.1729 2.49951 18.2195 2.49951 17.0434C2.49951 15.8675 3.45295 14.9141 4.62904 14.9141C5.80514 14.9141 6.75857 15.8675 6.75857 17.0434Z" fill="#148BAF"/>
<path d="M14.6295 21.5873C14.6295 22.7634 13.6762 23.7169 12.5001 23.7169C11.324 23.7169 10.3706 22.7634 10.3706 21.5873C10.3706 20.4113 11.324 19.458 12.5001 19.458C13.6762 19.458 14.6295 20.4113 14.6295 21.5873Z" fill="#148BAF"/>
<path d="M22.4998 17.0434C22.4998 18.2195 21.5464 19.1729 20.3703 19.1729C19.1942 19.1729 18.2407 18.2195 18.2407 17.0434C18.2407 15.8675 19.1942 14.9141 20.3703 14.9141C21.5464 14.9141 22.4998 15.8675 22.4998 17.0434Z" fill="#148BAF"/>
<path d="M22.4992 7.9563C22.4992 9.1324 21.546 10.0856 20.3701 10.0856C19.1942 10.0856 18.2407 9.1324 18.2407 7.9563C18.2407 6.7804 19.1942 5.82715 20.3701 5.82715C21.546 5.82715 22.4992 6.7804 22.4992 7.9563Z" fill="#148BAF"/>
</svg>
