<svg width="24" height="25" viewBox="0 0 24 25" fill="none" xmlns="http://www.w3.org/2000/svg">
<path d="M23.0394 2.76409H19.8196V0.952776C19.8196 0.832563 19.771 0.717515 19.6847 0.632575C19.5984 0.547636 19.4815 0.5 19.3594 0.5H17.5194C17.2654 0.5 17.0595 0.70268 17.0595 0.952776V2.76409H6.93983V0.952776C6.93983 0.832563 6.89144 0.717515 6.80516 0.632575C6.71887 0.547636 6.60178 0.5 6.47989 0.5H4.63991C4.38586 0.5 4.17997 0.70268 4.17997 0.952776V2.76409H0.959943C0.705888 2.76409 0.5 2.96677 0.5 3.21686V8.19808C0.5 8.31807 0.548391 8.43334 0.634674 8.51828C0.720958 8.60322 0.837827 8.65086 0.959943 8.65086H1.87982V23.1417C1.87982 23.5019 2.02522 23.8475 2.28406 24.1023C2.54291 24.3569 2.894 24.5 3.25986 24.5H20.7399C21.106 24.5 21.4569 24.3569 21.7157 24.1023C21.9746 23.8475 22.12 23.5018 22.12 23.1417V8.65086H23.0398C23.1619 8.65086 23.2788 8.60322 23.3651 8.51828C23.4514 8.43334 23.5 8.31807 23.5 8.19808V3.21686C23.5 3.09687 23.4514 2.9816 23.3651 2.89666C23.2788 2.81172 23.1619 2.76409 23.0398 2.76409H23.0394ZM17.9796 1.40555H18.8995V5.02822H17.9796V1.40555ZM5.09951 1.40555H6.01938V5.02822H5.09951V1.40555ZM21.1993 23.1415C21.1993 23.2615 21.1509 23.3768 21.0647 23.4617C20.9784 23.5464 20.8615 23.5943 20.7394 23.5943H3.25935C3.00529 23.5943 2.7994 23.3916 2.7994 23.1415V8.65067H21.1992L21.1993 23.1415ZM22.5794 7.74525L1.41972 7.74502V3.66957H4.17958V5.48088H4.1798C4.1798 5.6011 4.22819 5.71615 4.31448 5.80109C4.40076 5.88603 4.51763 5.93388 4.63975 5.93388H6.47973C6.60162 5.93388 6.71871 5.88602 6.805 5.80109C6.89128 5.71615 6.93967 5.6011 6.93967 5.48088V3.66957H17.0593V5.48088C17.0593 5.6011 17.108 5.71615 17.194 5.80109C17.2803 5.88603 17.3974 5.93388 17.5193 5.93388H19.3593C19.4814 5.93388 19.5982 5.88602 19.6845 5.80109C19.7708 5.71615 19.8194 5.6011 19.8194 5.48088V3.66957H22.5793L22.5794 7.74525ZM8.01579 20.3838C8.08244 20.384 8.14818 20.3701 8.2089 20.3429L15.325 17.0735C15.4506 17.0393 15.5658 16.9757 15.6608 16.8879C15.8861 16.6661 16.0703 16.2131 15.6332 15.3527C15.2981 14.7361 14.8683 14.1739 14.359 13.6863C13.8637 13.185 13.2926 12.7619 12.6662 12.432C11.7922 11.9792 11.3323 12.183 11.1067 12.4048C11.0152 12.4985 10.9502 12.614 10.9182 12.74L7.59702 19.7407C7.51531 19.9133 7.55206 20.118 7.68901 20.2523C7.77575 20.3373 7.8933 20.3845 8.01565 20.3838L8.01579 20.3838ZM13.7058 14.3294C14.5983 15.2033 14.9387 15.9369 14.9754 16.2131H14.9156L14.8328 16.1904L14.7499 16.1632L14.6488 16.1178L14.5429 16.0724L14.4233 16.0091L14.4235 16.0095C14.3817 15.9902 14.3418 15.9675 14.3039 15.9414C14.2578 15.9414 14.2119 15.8871 14.1612 15.8554L14.0279 15.7738L13.8394 15.6426L13.7061 15.543C13.6417 15.4932 13.5728 15.4388 13.5082 15.3801L13.3792 15.2804C13.2687 15.1853 13.1585 15.081 13.0435 14.9678C12.9284 14.8545 12.8227 14.746 12.7259 14.6373C12.6892 14.6011 12.6616 14.5602 12.6294 14.524L12.4593 14.3249C12.4212 14.2818 12.3858 14.2364 12.3534 14.189C12.3167 14.1346 12.2751 14.0847 12.2429 14.0351L12.1418 13.8856L12.0729 13.7814L11.9994 13.6322C11.9914 13.611 11.9804 13.5913 11.9672 13.5733C11.938 13.5171 11.912 13.4598 11.8889 13.4012C11.8435 13.3081 11.8127 13.2088 11.7969 13.1068C12.0729 13.1158 12.8182 13.4508 13.7058 14.3294ZM11.2541 14.1665C11.2635 14.1773 11.2712 14.1897 11.2772 14.2027L11.4244 14.4245C11.4554 14.4775 11.4892 14.529 11.5255 14.5784C11.5762 14.6555 11.636 14.7278 11.6958 14.8049L11.8017 14.9453L12.0042 15.1808L12.1007 15.2941C12.2018 15.4028 12.3032 15.5114 12.4043 15.6111L12.717 15.901L12.8275 15.9916L13.0576 16.1864L13.1909 16.2859L13.421 16.458L13.5543 16.5441C13.6371 16.5985 13.7197 16.6529 13.8026 16.698L13.8715 16.7434L8.96809 19.0075L11.2541 14.1665ZM14.681 12.7264L15.6794 11.7665C15.8618 11.6125 16.1339 11.6229 16.3037 11.79C16.4738 11.9575 16.4843 12.2253 16.3279 12.4049L15.3528 13.3693V13.3695C15.2662 13.4551 15.1487 13.5035 15.0261 13.5035C14.9035 13.5035 14.7858 13.4551 14.6995 13.3695C14.61 13.2868 14.5575 13.1725 14.5541 13.0518C14.5507 12.9309 14.5963 12.8138 14.681 12.7264ZM16.2955 14.1166L17.4916 13.4373H17.4918C17.7105 13.3138 17.9894 13.3863 18.1172 13.6005C18.1791 13.7043 18.1964 13.8281 18.1654 13.9445C18.1343 14.0609 18.0574 14.1602 17.9517 14.2207L16.7556 14.9C16.5379 15.0168 16.2653 14.9427 16.1393 14.7326C16.012 14.5195 16.0816 14.2456 16.2957 14.1166H16.2955ZM13.1261 11.3272L13.8162 10.1497H13.8164C13.9485 9.94504 14.2213 9.8792 14.4347 10.0008C14.6482 10.1221 14.7265 10.3877 14.6121 10.6028L13.922 11.7802V11.78C13.8396 11.9206 13.6869 12.0072 13.5219 12.0065C13.4429 12.0063 13.3653 11.986 13.2966 11.9476C13.19 11.8878 13.1122 11.7888 13.0802 11.6724C13.0483 11.5557 13.0649 11.4317 13.1263 11.3272L13.1261 11.3272Z" fill="#148BAF"/>
</svg>
