<svg width="15" height="13" viewBox="0 0 15 13" fill="none" xmlns="http://www.w3.org/2000/svg">
<path d="M7.47843 2.57739C7.93801 2.57739 8.31184 2.11152 8.31184 1.5387C8.31184 0.965876 7.93804 0.5 7.47843 0.5C7.01882 0.5 6.64502 0.965876 6.64502 1.5387C6.64746 2.11451 7.01882 2.57739 7.47843 2.57739Z" fill="#148BAF"/>
<path d="M11.4713 5.75891C11.7975 5.75891 12.0618 5.42954 12.0618 5.02301C12.0618 4.61649 11.7975 4.28711 11.4713 4.28711C11.1451 4.28711 10.8809 4.61649 10.8809 5.02301C10.8809 5.42954 11.1451 5.75891 11.4713 5.75891Z" fill="#148BAF"/>
<path d="M14.9999 5.02301C14.9999 5.42937 14.7355 5.75891 14.4094 5.75891C14.0833 5.75891 13.8188 5.42939 13.8188 5.02301C13.8188 4.6165 14.0832 4.28711 14.4094 4.28711C14.7355 4.28711 14.9999 4.61649 14.9999 5.02301Z" fill="#148BAF"/>
<path d="M3.52845 5.75891C3.85462 5.75891 4.1189 5.42954 4.1189 5.02301C4.1189 4.61649 3.85463 4.28711 3.52845 4.28711C3.20227 4.28711 2.93799 4.61649 2.93799 5.02301C2.93799 5.42954 3.20227 5.75891 3.52845 5.75891Z" fill="#148BAF"/>
<path d="M1.18091 5.02301C1.18091 4.6165 0.916637 4.28711 0.590457 4.28711C0.264286 4.28711 0 4.61649 0 5.02301C0 5.42954 0.264277 5.75891 0.590457 5.75891C0.916628 5.75891 1.18091 5.42954 1.18091 5.02301Z" fill="#148BAF"/>
<path d="M1.59033 11.7675C1.59033 12.7438 13.3667 12.7438 13.3667 11.7675C9.44781 11.1088 5.51174 11.1088 1.59033 11.7675Z" fill="#148BAF"/>
<path d="M11.5074 6.34672C11.4955 6.34672 11.4837 6.35264 11.4717 6.35264C11.2194 6.35264 10.9908 6.23693 10.8074 6.05592C9.47412 7.48624 8.51448 5.08556 7.97873 3.0498C7.82399 3.12998 7.6573 3.17448 7.48113 3.17448C7.3192 3.17448 7.16447 3.13591 7.01921 3.06757C6.48116 5.09742 5.52395 7.48026 4.19297 6.05592C4.0096 6.23997 3.78103 6.35264 3.52868 6.35264C3.51674 6.35264 3.50493 6.34961 3.49299 6.34672C3.34056 7.44463 2.84769 8.53087 1.26912 6.03815C1.14764 6.16571 1.00484 6.25773 0.847656 6.30815C1.08574 7.11239 1.38814 8.16291 1.53815 8.83941C3.50724 8.51003 5.50728 8.34088 7.48108 8.34088C9.45969 8.34088 11.4621 8.51005 13.4337 8.83941L13.4646 8.84533C13.6146 8.1658 13.917 7.11237 14.1576 6.30813C13.9981 6.26059 13.8552 6.16568 13.7338 6.03813C12.1552 8.53082 11.6575 7.44478 11.5075 6.3467L11.5074 6.34672Z" fill="#148BAF"/>
<path d="M1.59033 9.4296V11.1685C3.54043 10.845 5.52141 10.6789 7.47869 10.6789C9.43584 10.6789 11.4169 10.845 13.367 11.1685V9.4296C9.44781 8.77086 5.51205 8.77086 1.59064 9.4296H1.59033Z" fill="#148BAF"/>
</svg>
