<svg width="30" height="30" viewBox="0 0 30 30" fill="none" xmlns="http://www.w3.org/2000/svg">
<path d="M28.2639 18.9785C28.1684 18.9785 28.0908 18.9011 28.0908 18.8055V12.5787C28.0908 12.4833 28.1682 12.4057 28.2639 12.4057C28.3593 12.4057 28.4369 12.483 28.4369 12.5787V18.8055C28.4369 18.9009 28.3595 18.9785 28.2639 18.9785Z" fill="#148BAF" stroke="#148BAF" stroke-width="0.5"/>
<path d="M13.157 21.8039H3.874C3.14275 21.8039 2.54785 21.209 2.54785 20.4777V8.2545C2.54785 7.52325 3.1427 6.92834 3.874 6.92834H4.1624C4.25784 6.92834 4.33543 7.00571 4.33543 7.10138V18.4598C4.33543 18.9684 4.74925 19.3822 5.25781 19.3822H13.9643C14.0661 19.3822 14.154 19.3822 14.2327 19.3428C14.2863 19.316 14.3502 19.319 14.401 19.3503C14.452 19.3819 14.4829 19.4376 14.4829 19.4975V20.4776C14.4831 21.2091 13.8883 21.804 13.157 21.804L13.157 21.8039ZM3.87459 7.2744C3.3342 7.2744 2.89449 7.71408 2.89449 8.2545V20.4777C2.89449 21.0181 3.33417 21.4578 3.87459 21.4578H13.1576C13.698 21.4578 14.1377 21.0182 14.1377 20.4777V19.7222C14.0775 19.7281 14.0196 19.7281 13.9647 19.7281H5.25822C4.55873 19.7281 3.98978 19.1591 3.98978 18.4597V7.27414L3.87459 7.2744Z" fill="#148BAF" stroke="#148BAF" stroke-width="0.5"/>
<path d="M13.9651 19.7279H5.25867C4.55918 19.7279 3.99023 19.1589 3.99023 18.4595V6.98566C3.99023 6.28617 4.55923 5.71722 5.25867 5.71722H13.9651C14.7001 5.71722 15.2336 6.25075 15.2336 6.98566V10.2145C15.2336 10.3099 15.1562 10.3875 15.0605 10.3875H14.8298C12.9147 10.4408 11.0929 11.3003 9.81178 12.7514C11.0468 14.1458 12.8683 15.005 14.8346 15.1153H15.0603C15.1557 15.1153 15.2333 15.1927 15.2333 15.2883V18.4595C15.2336 19.1944 14.7 19.7278 13.9651 19.7278L13.9651 19.7279ZM5.25867 6.06328C4.7501 6.06328 4.33629 6.4771 4.33629 6.98566V18.4595C4.33629 18.9681 4.75011 19.3819 5.25867 19.3819H13.9651C14.4996 19.3819 14.8875 18.9939 14.8875 18.4595V15.4614H14.8298C14.8266 15.4614 14.8234 15.4611 14.8202 15.4611C12.7056 15.3437 10.7486 14.3968 9.45109 12.8633C9.39639 12.7988 9.39639 12.7043 9.45109 12.6399C10.7997 11.0462 12.7584 10.0994 14.825 10.0419H14.8875V6.98611C14.8875 6.45167 14.4995 6.06372 13.9651 6.06372L5.25867 6.06328Z" fill="#148BAF" stroke="#148BAF" stroke-width="0.5"/>
<path d="M1.74139 15.9803C1.64595 15.9803 1.56836 15.9029 1.56836 15.8072V12.3479C1.56836 12.2525 1.64572 12.1749 1.74139 12.1749H2.72149C2.81693 12.1749 2.89452 12.2522 2.89452 12.3479C2.89452 12.4434 2.81716 12.5209 2.72149 12.5209H1.91424V15.8075C1.91447 15.9027 1.83706 15.9803 1.74139 15.9803Z" fill="#148BAF" stroke="#148BAF" stroke-width="0.5"/>
<path d="M2.95217 22.6687C2.20211 22.6687 1.56836 22.0615 1.56836 21.3426V18.9787C1.56836 18.8832 1.64572 18.8056 1.74139 18.8056C1.83684 18.8056 1.91443 18.883 1.91443 18.9787V21.3426C1.91443 21.8647 2.39942 22.3227 2.95218 22.3227C3.04762 22.3227 3.12521 22.4 3.12521 22.4957C3.12521 22.5914 3.04784 22.6687 2.95217 22.6687Z" fill="#148BAF" stroke="#148BAF" stroke-width="0.5"/>
<path d="M11.6007 16.6723H6.00799C5.91255 16.6723 5.83496 16.5949 5.83496 16.4992C5.83496 16.4038 5.91232 16.3262 6.00799 16.3262H11.6007C11.6962 16.3262 11.7737 16.4035 11.7737 16.4992C11.7737 16.5949 11.6962 16.6723 11.6007 16.6723Z" fill="#148BAF" stroke="#148BAF" stroke-width="0.5"/>
<path d="M11.6007 17.5951H6.00799C5.91255 17.5951 5.83496 17.5177 5.83496 17.4221C5.83496 17.3266 5.91232 17.249 6.00799 17.249H11.6007C11.6962 17.249 11.7737 17.3264 11.7737 17.4221C11.7737 17.5177 11.6962 17.5951 11.6007 17.5951Z" fill="#148BAF" stroke="#148BAF" stroke-width="0.5"/>
<path d="M15.6943 21.8039H14.4835C14.2565 21.8039 14.1377 21.6588 14.1377 21.5155V19.4975C14.1377 19.4181 14.1917 19.3489 14.2686 19.3297C14.6502 19.2343 14.8871 18.901 14.8871 18.4597C14.8871 18.3643 14.9644 18.2867 15.0601 18.2867C15.1556 18.2867 15.2331 18.364 15.2331 18.4597C15.2331 18.9147 15.5472 19.2425 15.8573 19.3313C15.9314 19.3526 15.9827 19.4203 15.9827 19.4977V21.5157C15.9827 21.6691 15.8479 21.8039 15.6943 21.8039ZM14.4835 21.4578H15.6367V19.6199C15.3977 19.5204 15.2002 19.343 15.0679 19.121C14.9377 19.3521 14.7362 19.5291 14.4836 19.6245L14.4835 21.4578Z" fill="#148BAF" stroke="#148BAF" stroke-width="0.5"/>
<path d="M9.69774 9.52266H6.29608C6.20064 9.52266 6.12305 9.44529 6.12305 9.34962C6.12305 9.25418 6.20041 9.17659 6.29608 9.17659H9.69774C9.79318 9.17659 9.87077 9.25395 9.87077 9.34962C9.87077 9.44529 9.79318 9.52266 9.69774 9.52266Z" fill="#148BAF" stroke="#148BAF" stroke-width="0.5"/>
<path d="M9.69774 11.3678H6.29608C6.20064 11.3678 6.12305 11.2904 6.12305 11.1947C6.12305 11.0993 6.20041 11.0217 6.29608 11.0217H9.69774C9.79318 11.0217 9.87077 11.0991 9.87077 11.1947C9.87077 11.2904 9.79318 11.3678 9.69774 11.3678Z" fill="#148BAF" stroke="#148BAF" stroke-width="0.5"/>
<path d="M24.9769 23.4181H10.2746C10.1792 23.4181 10.1016 23.3408 10.1016 23.2451C10.1016 23.1497 10.1789 23.0721 10.2746 23.0721H24.9769C25.0724 23.0721 25.15 23.1494 25.15 23.2451C25.1497 23.3408 25.0724 23.4181 24.9769 23.4181Z" fill="#148BAF" stroke="#148BAF" stroke-width="0.5"/>
<path d="M16.3857 24.283H6.23846C6.14302 24.283 6.06543 24.2056 6.06543 24.11C6.06543 24.0145 6.14279 23.9369 6.23846 23.9369H16.3857C16.4812 23.9369 16.5588 24.0143 16.5588 24.11C16.5588 24.2054 16.4812 24.283 16.3857 24.283Z" fill="#148BAF" stroke="#148BAF" stroke-width="0.5"/>
<path d="M5.20133 24.283H3.87518C3.77974 24.283 3.70215 24.2056 3.70215 24.11C3.70215 24.0145 3.77951 23.9369 3.87518 23.9369H5.20133C5.29678 23.9369 5.37437 24.0143 5.37437 24.11C5.37437 24.2054 5.29701 24.283 5.20133 24.283Z" fill="#148BAF" stroke="#148BAF" stroke-width="0.5"/>
<path d="M26.7066 24.283H21.8635C21.768 24.283 21.6904 24.2056 21.6904 24.11C21.6904 24.0145 21.7678 23.9369 21.8635 23.9369H26.7066C26.802 23.9369 26.8796 24.0143 26.8796 24.11C26.8796 24.2054 26.802 24.283 26.7066 24.283Z" fill="#148BAF" stroke="#148BAF" stroke-width="0.5"/>
<path d="M26.2455 21.8039H17.0205C16.2446 21.8039 15.6367 21.2214 15.6367 20.4778V19.4977C15.6367 19.4377 15.6678 19.3821 15.7187 19.3505C15.7697 19.3189 15.8333 19.3161 15.8869 19.3429C15.9656 19.3823 16.0537 19.3823 16.1554 19.3823H24.9192C25.4278 19.3823 25.8416 18.9685 25.8416 18.4599V7.10151C25.8416 7.00607 25.919 6.92848 26.0146 6.92848H26.2454C26.9954 6.92848 27.6292 7.53569 27.6292 8.25463V20.4779C27.6292 21.1966 26.9957 21.8038 26.2456 21.8038L26.2455 21.8039ZM15.9828 19.7222V20.4778C15.9828 21.0274 16.4388 21.4579 17.0206 21.4579H26.2456C26.7986 21.4579 27.2833 20.9999 27.2833 20.4778V8.25457C27.2833 7.73248 26.7983 7.27447 26.2456 7.27447H26.1879V18.46C26.1879 19.1595 25.6189 19.7285 24.9195 19.7285H16.1556C16.1009 19.7282 16.043 19.7282 15.9828 19.7222Z" fill="#148BAF" stroke="#148BAF" stroke-width="0.5"/>
<path d="M24.9193 19.7279H16.1554C15.4559 19.7279 14.8869 19.1589 14.8869 18.4595V15.2883C14.8869 15.1929 14.9643 15.1153 15.06 15.1153H15.3433C17.3012 15.0052 19.0585 14.1675 20.3087 12.7514C19.0279 11.2994 17.2265 10.4397 15.3433 10.3875H15.0598C14.9643 10.3875 14.8867 10.3101 14.8867 10.2145V6.98565C14.8867 6.28615 15.4557 5.71721 16.1552 5.71721H24.919C25.6185 5.71721 26.1875 6.28621 26.1875 6.98565V18.4595C26.1877 19.1591 25.6187 19.7281 24.9192 19.7281L24.9193 19.7279ZM15.2331 15.4614V18.4595C15.2331 18.9681 15.6469 19.3819 16.1555 19.3819H24.9194C25.4279 19.3819 25.8418 18.9681 25.8418 18.4595V6.98566C25.8418 6.47708 25.4279 6.06327 24.9194 6.06327H16.1555C15.6469 6.06327 15.2331 6.47709 15.2331 6.98566V10.0414H15.3485C17.3826 10.098 19.3203 11.0449 20.6695 12.6395C20.724 12.704 20.724 12.7986 20.6695 12.8629C19.3509 14.4211 17.4647 15.3437 15.3581 15.4607C15.3549 15.4609 15.3517 15.4609 15.3485 15.4609L15.2331 15.4614Z" fill="#148BAF" stroke="#148BAF" stroke-width="0.5"/>
<path d="M23.8236 9.52266H20.4797C20.3842 9.52266 20.3066 9.44529 20.3066 9.34962C20.3066 9.25418 20.384 9.17659 20.4797 9.17659H23.8236C23.9191 9.17659 23.9967 9.25395 23.9967 9.34962C23.9964 9.44529 23.9191 9.52266 23.8236 9.52266Z" fill="#148BAF" stroke="#148BAF" stroke-width="0.5"/>
<path d="M23.8235 11.3678H20.8254C20.7299 11.3678 20.6523 11.2904 20.6523 11.1947C20.6523 11.0993 20.7297 11.0217 20.8254 11.0217H23.8235C23.9189 11.0217 23.9965 11.0991 23.9965 11.1947C23.9963 11.2904 23.9189 11.3678 23.8235 11.3678Z" fill="#148BAF" stroke="#148BAF" stroke-width="0.5"/>
<path d="M23.5929 16.6723H18.0002C17.9047 16.6723 17.8271 16.5949 17.8271 16.4992C17.8271 16.4038 17.9045 16.3262 18.0002 16.3262H23.5929C23.6883 16.3262 23.7659 16.4035 23.7659 16.4992C23.7659 16.5949 23.6883 16.6723 23.5929 16.6723Z" fill="#148BAF" stroke="#148BAF" stroke-width="0.5"/>
<path d="M23.5929 17.5951H18.0002C17.9047 17.5951 17.8271 17.5177 17.8271 17.4221C17.8271 17.3266 17.9045 17.249 18.0002 17.249H23.5929C23.6883 17.249 23.7659 17.3264 23.7659 17.4221C23.7659 17.5177 23.6883 17.5951 23.5929 17.5951Z" fill="#148BAF" stroke="#148BAF" stroke-width="0.5"/>
<path d="M23.5926 14.2506H19.9025C19.8071 14.2506 19.7295 14.1732 19.7295 14.0775C19.7295 13.9821 19.8069 13.9045 19.9025 13.9045H23.5926C23.688 13.9045 23.7656 13.9819 23.7656 14.0775C23.7656 14.1732 23.688 14.2506 23.5926 14.2506Z" fill="#148BAF" stroke="#148BAF" stroke-width="0.5"/>
<path d="M23.5926 15.1734H19.9025C19.8071 15.1734 19.7295 15.0961 19.7295 15.0004C19.7295 14.905 19.8069 14.8274 19.9025 14.8274H23.5926C23.688 14.8274 23.7656 14.9047 23.7656 15.0004C23.7656 15.0961 23.688 15.1734 23.5926 15.1734Z" fill="#148BAF" stroke="#148BAF" stroke-width="0.5"/>
<path d="M15.0596 15.4617C12.9012 15.4617 10.8568 14.5148 9.45055 12.8639C9.39539 12.7993 9.39539 12.7041 9.45055 12.6396C10.8568 10.9887 12.9012 10.0418 15.0596 10.0418C17.2179 10.0418 19.2623 10.9887 20.6686 12.6396C20.7235 12.7041 20.7235 12.7994 20.6686 12.8639C19.2623 14.5151 17.2179 15.4617 15.0596 15.4617ZM9.81155 12.752C11.148 14.2562 13.0523 15.1159 15.0596 15.1159C17.0671 15.1159 18.9712 14.2562 20.3076 12.752C18.9711 11.2478 17.0668 10.3881 15.0596 10.3881C13.052 10.3881 11.148 11.2478 9.81155 12.752Z" fill="#148BAF" stroke="#148BAF" stroke-width="0.5"/>
<path d="M15.0596 15.4617C13.5906 15.4617 12.3496 14.2207 12.3496 12.7517C12.3496 12.0143 12.6341 11.3281 13.1507 10.8195C13.6602 10.318 14.3379 10.042 15.0593 10.042C16.6043 10.042 17.7693 11.207 17.7693 12.7519C17.7693 13.4733 17.493 14.1511 16.9918 14.6606C16.4832 15.1771 15.797 15.4616 15.0595 15.4616L15.0596 15.4617ZM15.0596 10.3881C13.7341 10.3881 12.6957 11.4265 12.6957 12.752C12.6957 14.0333 13.7783 15.1159 15.0596 15.1159C16.385 15.1159 17.4235 14.0774 17.4235 12.752C17.4235 11.4043 16.4072 10.3881 15.0596 10.3881Z" fill="#148BAF" stroke="#148BAF" stroke-width="0.5"/>
<path d="M15.0604 14.0203C14.3255 14.0203 13.792 13.4868 13.792 12.7519C13.792 12.0083 14.3491 11.4257 15.0604 11.4257C15.7917 11.4257 16.3866 12.0206 16.3866 12.7519C16.3866 13.463 15.8041 14.0203 15.0604 14.0203ZM15.0604 11.7715C14.5345 11.7715 14.138 12.1929 14.138 12.7516C14.138 13.2861 14.526 13.674 15.0604 13.674C15.6191 13.674 16.0405 13.2774 16.0405 12.7516C16.0405 12.2112 15.6008 11.7715 15.0604 11.7715Z" fill="#148BAF" stroke="#148BAF" stroke-width="0.5"/>
</svg>
