<svg width="30" height="30" viewBox="0 0 30 30" fill="none" xmlns="http://www.w3.org/2000/svg">
<path d="M1.13438 28.1959H28.8656C29.1126 28.1959 29.3129 27.9956 29.3129 27.7487C29.3129 27.5017 29.1126 27.3014 28.8656 27.3014H26.1069C26.2211 27.1575 26.3237 27.0027 26.4026 26.8318C26.9472 25.6549 26.4345 24.2607 25.2564 23.7174L19.8665 21.229V17.6923C19.9338 17.8823 19.9718 17.8395 23.2478 20.3283C24.0406 20.9264 25.1976 20.7987 25.8246 19.9676C26.4236 19.1734 26.2745 18.0274 25.4922 17.4128L22.3764 14.9658L21.3826 13.0567C20.455 11.2742 19.558 9.90069 17.353 9.81075C18.1103 9.15251 18.5919 8.18594 18.5919 7.10694C18.5919 5.95153 18.0504 4.90077 17.1385 4.23151C17.1385 4.32421 17.1495 4.14339 17.1385 4.23151C15.7959 3.23669 14.2125 3.2625 12.8596 4.23197C11.5066 5.20143 11.4062 5.95292 11.4062 7.10693C11.4062 8.18083 11.8836 9.14329 12.6348 9.8013C10.4579 9.84181 9.57463 11.1032 8.57584 12.8772L7.09453 15.5087L4.55736 17.4201C3.75076 18.0277 3.58986 19.1721 4.19825 19.9785C4.81922 20.802 5.96567 20.9316 6.75557 20.3374L9.99791 17.8943C10.049 17.8556 10.0913 17.8064 10.1217 17.7501L10.1311 17.7332V21.2301L4.74349 23.7171C3.57232 24.2577 3.04954 25.6463 3.59886 26.8344C3.67736 27.0043 3.77922 27.1581 3.89274 27.3011H1.13473C0.887773 27.3011 0.6875 27.5014 0.6875 27.7484C0.6875 27.9956 0.887773 28.1958 1.13473 28.1958L1.13438 28.1959ZM15 25.6652L20.8452 27.3015L9.15458 27.3012L15 25.6652ZM12.3006 7.10714C12.3006 6.15979 12.7812 5.30216 13.5901 4.81079C14.4235 4.29329 15.523 4.28779 16.3648 4.78859C16.3799 4.79751 16.3962 4.80369 16.411 4.81308C17.2162 5.3022 17.6969 6.1598 17.6969 7.10737C17.6969 8.59237 16.4866 9.80017 14.9986 9.80017C13.5108 9.79994 12.3006 8.5919 12.3006 7.10714ZM9.38166 17.2386L6.21713 19.6233C5.81681 19.925 5.21254 19.8375 4.91248 19.4404C4.76233 19.2415 4.69893 18.9962 4.73372 18.7497C4.76828 18.5031 4.89691 18.2848 5.09558 18.1351L7.70734 16.1674C7.75678 16.1303 7.79775 16.0834 7.82819 16.0296L9.35573 13.3167C10.3596 11.5328 11.0208 10.6926 12.7455 10.6926L17.129 10.6969C18.8669 10.6987 19.5723 11.5159 20.589 13.47C22.0848 16.3038 20.8866 14.8758 24.9396 18.1166C25.3415 18.4322 25.4182 19.0209 25.1104 19.429C24.8057 19.8325 24.1926 19.9204 23.7867 19.6144L20.6383 17.2386L19.8667 15.8179V14.3293C19.8667 14.0823 19.6664 13.882 19.4195 13.882C19.1725 13.882 18.9722 14.0823 18.9722 14.3293V20.9533H11.0257C11.0198 17.6494 11.0344 17.6297 11.0038 14.3293C11.0038 14.0823 10.8035 13.882 10.5565 13.882C10.3096 13.882 10.1093 14.0823 10.1093 14.3293V15.8976L9.38166 17.2386ZM4.40945 26.4565C4.07276 25.7296 4.38816 24.8672 5.11808 24.5298L10.923 21.8503H19.0769L24.8815 24.5298C25.6084 24.8658 25.9286 25.7255 25.589 26.4595C25.2573 27.1768 24.3992 27.5071 23.6641 27.1679L15.9906 25.0146L16.8512 24.3724L20.8988 25.3526C21.1341 25.4108 21.3797 25.2666 21.4387 25.0233C21.4971 24.7832 21.3495 24.5415 21.1094 24.4834L16.9961 23.4873C16.9945 23.4868 16.9929 23.4875 16.9913 23.487C16.8355 23.2309 16.5306 22.8738 15.9639 22.6427C14.6272 22.0982 12.6069 22.5571 9.9592 24.0085C9.74245 24.1272 9.66302 24.3992 9.78182 24.6157C9.9006 24.8322 10.1725 24.9114 10.389 24.793C13.3439 23.1735 14.8504 23.1737 15.5931 23.458C15.8467 23.5553 16.0122 23.6887 16.1168 23.8043L14.7888 24.7956L6.40227 27.1434L6.33544 27.1679C5.61011 27.503 4.74767 27.1878 4.40964 26.4565L4.40945 26.4565Z" fill="#148BAF"/>
<path d="M8.04856 25.7572L9.01419 25.3258C9.23987 25.2251 9.3408 24.9607 9.24033 24.735C9.13985 24.5094 8.87526 24.4084 8.64958 24.5089L7.68396 24.9404C7.45828 25.0411 7.35735 25.3054 7.45782 25.5311C7.55784 25.7556 7.82151 25.8586 8.04856 25.7572Z" fill="#148BAF"/>
</svg>
