<svg width="14" height="13" viewBox="0 0 14 13" fill="none" xmlns="http://www.w3.org/2000/svg">
<path d="M8.7251 2.52487L9.47346 3.29637L9.47513 2.52487H9.81223C9.94705 2.52487 10.0562 2.41555 10.0562 2.28095L10.0563 0.743923C10.0563 0.609102 9.94694 0.5 9.81234 0.5H7.63406C7.49924 0.5 7.39014 0.609325 7.39014 0.743923V2.28095C7.39014 2.41577 7.49946 2.52487 7.63406 2.52487H8.7251Z" fill="black"/>
<path d="M5.27951 2.50095L4.56011 3.24241L4.55855 2.50095H4V0.554688H6.56258V2.50095H5.27951Z" fill="black"/>
<path d="M3.59277 3.42511C3.59277 3.90204 3.20901 4.28859 2.73565 4.28859C2.26217 4.28859 1.87842 3.90207 1.87842 3.42511C1.87842 2.94816 2.26217 2.56152 2.73565 2.56152C3.20901 2.56152 3.59277 2.94816 3.59277 3.42511Z" fill="black"/>
<path d="M0.910912 12.4996L0.909576 12.1823L3.7827 12.1703L3.67827 10.238L0.650391 9.69576L0.930606 5.86816L1.24702 5.89143L0.987729 9.43402L3.98141 9.97017L4.11723 12.486L0.910912 12.4996Z" fill="black"/>
<path d="M12.1216 3.44816C12.1216 3.91206 11.7484 4.28804 11.2881 4.28804C10.8278 4.28804 10.4546 3.91209 10.4546 3.44816C10.4546 2.98437 10.8278 2.6084 11.2881 2.6084C11.7484 2.6084 12.1216 2.98435 12.1216 3.44816Z" fill="black"/>
<path d="M13.0894 12.4997L9.88281 12.486L10.0186 9.97017L13.0123 9.43403L12.7532 5.89143L13.0697 5.86816L13.3497 9.69576L10.3215 10.238L10.2173 12.1703L13.0904 12.1823L13.0894 12.4997Z" fill="black"/>
<path d="M5.86126 6.7002L6.07723 6.73438V7.22892H3.74043L3.1564 6.50974L2.9313 8.17234L5.3133 8.80191L5.17837 12.4867H4.36956L4.18976 9.79021L1.26904 9.20596L1.71838 4.66699L3.20105 4.71208L4.36957 6.46474L5.60355 6.65945L5.86126 6.7002Z" fill="black"/>
<path d="M9.82275 7.33984H4.65479V7.65714H6.78909V12.482H7.16615V7.65714H9.82281L9.82275 7.33984Z" fill="black"/>
<path d="M8.32055 6.68049L9.91367 6.46474L10.7994 4.71208L12.0939 4.66699L12.7316 9.20596L9.81092 9.79021L9.63101 12.4867H8.8222L8.70909 9.81792L8.4655 9.84196L8.68749 8.80181L11.0693 8.17224L10.8972 6.99361L10.6017 6.84988L10.2603 7.22885H7.92334V6.73431L8.04558 6.71773L8.32055 6.68049Z" fill="black"/>
</svg>
