<svg width="33" height="32" viewBox="0 0 33 32" fill="none" xmlns="http://www.w3.org/2000/svg">
<path d="M11.748 20.8155C11.6169 20.8155 11.4889 20.7628 11.3946 20.6666C11.2654 20.5337 11.2217 20.3397 11.2808 20.1638L12.8606 15.5041C12.8801 15.4468 12.9101 15.3936 12.949 15.3474C13.0363 15.242 15.1067 12.7579 16.2988 11.5872C18.0421 9.87524 20.697 7.4006 23.2641 5.0075C25.0601 3.33368 26.779 1.73146 28.0278 0.536638C28.7898 -0.192885 30.0042 -0.172895 30.7359 0.578247L32.0042 1.88166V1.8822C32.7359 2.63414 32.7215 3.84895 31.9718 4.59002C30.7405 5.80801 29.0878 7.48646 27.3615 9.23947C24.9031 11.7366 22.3609 14.3185 20.6041 16.0123C19.4015 17.1715 16.8617 19.1733 16.7542 19.2576C16.7066 19.2954 16.6523 19.3238 16.5945 19.3416L11.8937 20.7933C11.8456 20.8085 11.7965 20.8155 11.7481 20.8155L11.748 20.8155ZM13.7652 15.908L12.5247 19.5662L16.2152 18.427C16.6416 18.0887 18.8618 16.3217 19.9193 15.3025C21.6669 13.6176 24.2042 11.0403 26.6584 8.54834C28.3882 6.79159 30.0441 5.10989 31.2778 3.8892C31.6439 3.52715 31.652 2.93571 31.2967 2.5696L30.0285 1.26674C29.6734 0.900632 29.0812 0.892525 28.7094 1.24945C27.4579 2.4469 25.736 4.05217 23.9365 5.72951C21.374 8.11797 18.724 10.5883 16.9899 12.2911C15.9418 13.3205 14.1148 15.4915 13.7655 15.9081L13.7652 15.908Z" fill="#148BAF"/>
<path d="M29.3479 6.7495C29.2195 6.7495 29.0909 6.69951 28.9945 6.60063L25.8398 3.35862C25.6501 3.16354 25.6541 2.85066 25.8495 2.66126C26.0446 2.47051 26.3575 2.47645 26.5468 2.67018L29.7016 5.91219C29.8912 6.10726 29.8872 6.42015 29.6918 6.60954C29.5962 6.7033 29.4719 6.7495 29.3479 6.7495Z" fill="#148BAF"/>
<path d="M16.3238 19.3281C16.1955 19.3281 16.0669 19.2781 15.9704 19.1792L13.0981 16.2268C12.9084 16.0317 12.9124 15.7188 13.1078 15.5294C13.3029 15.3387 13.6155 15.3446 13.8051 15.5383L16.6775 18.4907C16.8672 18.6858 16.8631 18.9987 16.6678 19.1881C16.5721 19.2819 16.4479 19.3281 16.3238 19.3281Z" fill="#148BAF"/>
<path d="M16.741 15.7485C16.6127 15.7485 16.4841 15.6985 16.3876 15.5996C16.1979 15.4045 16.202 15.0916 16.3973 14.9022L25.4003 6.14271C25.5954 5.95195 25.908 5.9579 26.0977 6.15162C26.2874 6.3467 26.2833 6.65958 26.088 6.84898L17.085 15.6085C16.9891 15.7023 16.865 15.7485 16.741 15.7485Z" fill="#148BAF"/>
<path d="M18.5987 29.2819C18.4088 29.2819 18.2199 29.2781 18.034 29.2735L4.00388 28.9031C3.29061 28.8844 2.21255 28.8563 1.45764 28.1962C0.608184 27.4532 0.509273 26.2725 0.483058 25.2238L0.00860199 6.35945C-0.0316562 4.76698 0.024003 2.97046 1.19906 1.79916C2.24766 0.754366 3.79289 0.594656 5.28568 0.520092L15.2072 0.0264556C17.6786 -0.0981035 19.7435 0.2164 21.5057 0.986448C23.8992 2.03124 23.5939 5.00093 23.4937 5.97739C23.4659 6.24839 23.2168 6.44752 22.9528 6.41726C22.6818 6.3897 22.4848 6.14707 22.5126 5.87607C22.7393 3.67291 22.2941 2.40629 21.1117 1.8905C19.4919 1.1829 17.5755 0.89592 15.2564 1.01157L5.3342 1.50521C3.97891 1.57275 2.69604 1.69974 1.89465 2.49792C0.99705 3.39303 0.957624 4.88396 0.994352 6.33519L1.46908 25.1996C1.49096 26.0774 1.55797 26.9736 2.10673 27.4541C2.55659 27.8469 3.27284 27.8972 4.02941 27.9169L18.0596 28.2873C19.3438 28.3246 20.7785 28.2841 21.5448 27.4076C22.1049 26.7661 22.1997 25.808 22.2538 24.7994C22.4561 21.0232 22.4942 17.1929 22.3667 13.4149C22.3575 13.1426 22.5707 12.9148 22.8428 12.9051C23.1111 12.9024 23.3432 13.1094 23.3523 13.3814C23.4807 17.1879 23.4426 21.0474 23.2386 24.8517C23.1775 25.9921 23.0541 27.1786 22.2875 28.0559C21.3692 29.108 19.9509 29.282 18.5984 29.282L18.5987 29.2819Z" fill="#148BAF"/>
<path d="M20.7828 32.0003C20.5928 32.0003 20.404 31.9965 20.2181 31.9919L6.18791 31.6215C5.47464 31.6028 4.39679 31.5747 3.64188 30.9147C2.77914 30.1603 2.72595 29.6112 2.70084 28.6261C2.69408 28.3538 2.90915 28.1279 3.18151 28.1209C3.44224 28.0966 3.67973 28.3289 3.68703 28.6018C3.70919 29.4816 3.73323 29.6844 4.29091 30.1724C4.74077 30.5653 5.45702 30.6155 6.21331 30.6353L20.2442 31.0057C21.5281 31.0435 22.9628 31.0025 23.7291 30.1254C24.2887 29.4853 24.3838 28.5267 24.4381 27.5178C24.6431 23.6903 24.6766 14.6178 24.551 10.8917C24.5418 10.6194 24.755 10.3916 25.0271 10.3819C25.3035 10.3792 25.5272 10.5861 25.5367 10.8582C25.6628 14.6022 25.6291 23.7215 25.4229 27.5701C25.3613 28.7111 25.2373 29.8983 24.4716 30.7734C23.5535 31.8261 22.1353 32 20.7829 32L20.7828 32.0003Z" fill="#148BAF"/>
<path d="M17.0086 21.3358H6.11175C5.8394 21.3358 5.61865 21.1148 5.61865 20.8427C5.61865 20.5704 5.83967 20.3496 6.11175 20.3496H17.0086C17.2809 20.3496 17.5017 20.5706 17.5017 20.8427C17.5017 21.1151 17.2809 21.3358 17.0086 21.3358Z" fill="#148BAF"/>
</svg>
