<svg width="19" height="17" viewBox="0 0 19 17" fill="none" xmlns="http://www.w3.org/2000/svg">
<mask id="mask0_915_192" style="mask-type:luminance" maskUnits="userSpaceOnUse" x="0" y="5" width="14" height="12">
<path d="M0.5 5.34277H13.5017V16.4997H0.5V5.34277Z" fill="white"/>
</mask>
<g mask="url(#mask0_915_192)">
<path d="M11.8539 5.3566H2.12633C1.69524 5.35702 1.28183 5.52924 0.976894 5.83545C0.671951 6.14164 0.500429 6.5567 0.5 6.9896V12.8866C0.5 13.3207 0.67208 13.7367 0.978145 14.0432C1.2842 14.3495 1.69913 14.521 2.13119 14.5196L2.85732 14.5174L4.66839 16.3813H4.66853C4.74822 16.4634 4.8695 16.4889 4.97529 16.4459C5.08121 16.4029 5.15057 16.2999 5.151 16.1851L5.15714 14.5238H11.8539C12.285 14.5234 12.6984 14.3512 13.0034 14.0449C13.3082 13.7389 13.4797 13.3238 13.4803 12.8908V6.98945C13.4797 6.55659 13.3082 6.14149 13.0034 5.8353C12.6984 5.5291 12.2851 5.35688 11.8539 5.35645L11.8539 5.3566ZM12.9178 12.8909H12.9176C12.9174 13.1742 12.8052 13.4457 12.6057 13.646C12.4063 13.8462 12.136 13.9588 11.8539 13.9592H4.87699C4.72208 13.9592 4.59633 14.0849 4.59578 14.2404L4.59117 15.493L3.17685 14.0375C3.12396 13.983 3.05139 13.9523 2.9756 13.9523H2.97477L2.12959 13.955H2.12624C1.84405 13.955 1.57357 13.8425 1.37399 13.6421C1.17456 13.4418 1.06249 13.1701 1.06235 12.8867V6.9897C1.06277 6.70649 1.17498 6.43505 1.37441 6.2348C1.57384 6.03455 1.84416 5.92187 2.12623 5.92145H11.8538C12.1359 5.92188 12.4062 6.0344 12.6056 6.23466C12.8051 6.43505 12.9173 6.70648 12.9176 6.98971L12.9178 12.8909Z" fill="white"/>
</g>
<mask id="mask1_915_192" style="mask-type:luminance" maskUnits="userSpaceOnUse" x="5" y="0" width="14" height="12">
<path d="M5.49854 0.5H18.4999V11.657H5.49854V0.5Z" fill="white"/>
</mask>
<g mask="url(#mask1_915_192)">
<path d="M16.8736 0.533239H7.146C6.71477 0.5338 6.30136 0.706025 5.99642 1.01209C5.69162 1.31829 5.5201 1.73335 5.51953 2.16624V4.45729C5.51953 4.61326 5.64555 4.73967 5.80089 4.73967C5.95622 4.73967 6.0821 4.61326 6.0821 4.45729V2.16624C6.08238 1.88303 6.19459 1.61159 6.39402 1.41134C6.59346 1.21109 6.86392 1.09842 7.14599 1.09814H16.8736C17.1556 1.09842 17.426 1.21108 17.6254 1.41134C17.8248 1.61159 17.937 1.88316 17.9375 2.16624V8.06328C17.9375 8.34706 17.825 8.61919 17.6248 8.81973C17.4246 9.02012 17.1533 9.13223 16.8705 9.13139L16.2265 9.12873V9.12887C16.1503 9.12817 16.077 9.15886 16.0241 9.21407L14.6098 10.6695L14.605 9.41698H14.6052C14.6046 9.26143 14.4789 9.13559 14.3238 9.13559H14.3227H14.3228C14.2482 9.13587 14.1769 9.16585 14.1242 9.2191C14.0716 9.27222 14.0423 9.34411 14.0426 9.41908L14.0496 11.3617C14.05 11.4764 14.1195 11.5794 14.2253 11.6225C14.3312 11.6656 14.4525 11.6399 14.5322 11.5579L16.3433 9.69401L16.8684 9.69611H16.8736C17.3048 9.69611 17.7185 9.52416 18.0236 9.21783C18.3285 8.91164 18.4999 8.49629 18.4999 8.06325V2.16621C18.4995 1.73335 18.328 1.31824 18.023 1.01205C17.7182 0.706003 17.3048 0.533777 16.8736 0.533203L16.8736 0.533239Z" fill="white"/>
</g>
<path d="M13.1318 4.73955H16.7207C16.876 4.73955 17.0019 4.61315 17.0019 4.45718C17.0019 4.3012 16.876 4.1748 16.7207 4.1748H13.1318C12.9765 4.1748 12.8506 4.3012 12.8506 4.45718C12.8506 4.61315 12.9765 4.73955 13.1318 4.73955Z" fill="white"/>
<path d="M16.7208 5.60352H14.4375C14.2821 5.60352 14.1562 5.73006 14.1562 5.88603C14.1562 6.042 14.2821 6.1684 14.4375 6.1684H16.7208C16.8762 6.1684 17.002 6.042 17.002 5.88603C17.002 5.73006 16.8762 5.60352 16.7208 5.60352Z" fill="white"/>
<path d="M13.1318 3.31195H16.7207C16.876 3.31195 17.0019 3.18541 17.0019 3.02944C17.0019 2.87347 16.876 2.74707 16.7207 2.74707H13.1318C12.9765 2.74707 12.8506 2.87347 12.8506 3.02944C12.8506 3.18541 12.9765 3.31195 13.1318 3.31195Z" fill="white"/>
<path d="M16.7208 7.03125H14.4375C14.2821 7.03125 14.1562 7.15765 14.1562 7.31362C14.1562 7.46959 14.2821 7.59599 14.4375 7.59599H16.7208C16.8762 7.59599 17.002 7.46959 17.002 7.31362C17.002 7.15765 16.8762 7.03125 16.7208 7.03125Z" fill="white"/>
<path d="M11.589 9.1123H8.00011C7.84477 9.1123 7.71875 9.23871 7.71875 9.39468C7.71875 9.55065 7.84477 9.67705 8.00011 9.67705H11.589C11.7443 9.67705 11.8702 9.55065 11.8702 9.39468C11.8702 9.23871 11.7443 9.1123 11.589 9.1123Z" fill="white"/>
<path d="M11.589 10.541H8.00011C7.84477 10.541 7.71875 10.6676 7.71875 10.8234C7.71875 10.9794 7.84477 11.1059 8.00011 11.1059H11.589C11.7443 11.1059 11.8702 10.9794 11.8702 10.8234C11.8702 10.6676 11.7443 10.541 11.589 10.541Z" fill="white"/>
<path d="M11.589 7.68457H8.00011C7.84477 7.68457 7.71875 7.81097 7.71875 7.96694C7.71875 8.12291 7.84477 8.24931 8.00011 8.24931H11.589C11.7443 8.24931 11.8702 8.12291 11.8702 7.96694C11.8702 7.81097 11.7443 7.68457 11.589 7.68457Z" fill="white"/>
<path d="M11.589 11.9688H8.00011C7.84477 11.9688 7.71875 12.0951 7.71875 12.2511C7.71875 12.4071 7.84477 12.5335 8.00011 12.5335H11.589C11.7443 12.5335 11.8702 12.4071 11.8702 12.2511C11.8702 12.0951 11.7443 11.9688 11.589 11.9688Z" fill="white"/>
<path d="M6.48132 7.68457H2.39157C2.23623 7.68457 2.11035 7.81097 2.11035 7.96694V12.2514C2.11035 12.3264 2.13994 12.3981 2.19269 12.4511C2.24545 12.5041 2.3169 12.5338 2.39157 12.5338H6.48132C6.55599 12.5338 6.62744 12.5041 6.6802 12.4511C6.73295 12.3981 6.76254 12.3264 6.76254 12.2514V7.96694C6.76254 7.89197 6.73295 7.82022 6.6802 7.76725C6.62744 7.71428 6.55599 7.68457 6.48132 7.68457ZM4.8536 9.81967C4.85388 10.0027 4.7721 10.1762 4.631 10.2919L4.58118 10.3328C4.49702 10.4019 4.37616 10.4019 4.29201 10.3328L4.24218 10.2919C4.10109 10.1762 4.0193 10.0027 4.01958 9.81967V9.472C4.01972 9.31785 4.14407 9.19299 4.29759 9.19285H4.57559C4.72897 9.19299 4.85346 9.31786 4.8536 9.472L4.8536 9.81967ZM4.43645 10.9499C4.89044 10.9499 5.20795 11.1039 5.39427 11.2329H5.39441C5.48136 11.2933 5.53327 11.3927 5.53313 11.4988V11.9692L3.33963 11.9686V11.4989C3.33963 11.3927 3.39155 11.2933 3.47849 11.2331C3.66495 11.1037 3.98245 10.9499 4.43645 10.9499ZM6.20007 11.9693H6.09568V11.4986C6.09568 11.2069 5.95291 10.9338 5.71382 10.768C5.55347 10.6576 5.37874 10.5698 5.19452 10.5073C5.33883 10.3074 5.41628 10.0666 5.416 9.81969V9.47201C5.41587 9.24836 5.32724 9.03381 5.16954 8.87546C5.01197 8.71725 4.79829 8.62826 4.57557 8.62812H4.29742C4.07454 8.62826 3.86086 8.71725 3.7033 8.87546C3.54574 9.03381 3.45712 9.24837 3.45684 9.47216V9.81983V9.81969C3.45656 10.0667 3.53416 10.3074 3.67832 10.5075C3.4941 10.57 3.31936 10.6577 3.15902 10.7681C2.91995 10.9339 2.7773 11.2069 2.7773 11.4985V11.9691L2.67263 11.9692V8.24938H6.20003L6.20007 11.9693Z" fill="white"/>
<path d="M9.31714 3.69043C9.09426 3.69057 8.88059 3.7797 8.72303 3.93791C8.56546 4.09612 8.47684 4.31053 8.47656 4.53432C8.47656 4.69029 8.60245 4.81669 8.75778 4.81669C8.91311 4.81669 9.03913 4.69029 9.03913 4.53432C9.03927 4.38031 9.16363 4.25531 9.31714 4.25517H9.59487C9.74825 4.25531 9.87259 4.38031 9.87287 4.53432C9.87287 4.69029 9.99875 4.81669 10.1541 4.81669C10.3094 4.81669 10.4353 4.69029 10.4353 4.53432C10.435 4.31052 10.3464 4.09611 10.1888 3.93791C10.0313 3.77969 9.81759 3.69057 9.59487 3.69043H9.31714Z" fill="white"/>
<path d="M11.4932 4.74005C11.5677 4.74005 11.6393 4.71034 11.6921 4.65737C11.7448 4.6044 11.7744 4.53251 11.7744 4.45767V3.02944C11.7744 2.95461 11.7448 2.88272 11.6921 2.82975C11.6393 2.77692 11.5677 2.74707 11.4932 2.74707H7.55563C7.4003 2.74707 7.27441 2.87347 7.27441 3.02944V4.45767C7.27441 4.61365 7.4003 4.74005 7.55563 4.74005C7.71096 4.74005 7.83699 4.61365 7.83699 4.45767V3.31192H11.212V4.45767H11.2119C11.2119 4.53251 11.2416 4.60439 11.2944 4.65737C11.3471 4.71034 11.4186 4.74005 11.4932 4.74005H11.4932Z" fill="white"/>
</svg>
