<svg width="27" height="25" viewBox="0 0 27 25" fill="none" xmlns="http://www.w3.org/2000/svg">
<mask id="mask0_915_146" style="mask-type:luminance" maskUnits="userSpaceOnUse" x="0" y="7" width="20" height="18">
<path d="M0 7.76465H19.5025V24.5001H0V7.76465Z" fill="white"/>
</mask>
<g mask="url(#mask0_915_146)">
<path d="M17.0309 7.78538H2.43949C1.79285 7.78601 1.17275 8.04435 0.715341 8.50366C0.257926 8.96295 0.000643099 9.58554 0 10.2349V19.0805C0 19.7315 0.258119 20.3555 0.717217 20.8152C1.1763 21.2747 1.7987 21.532 2.44678 21.5299L3.53598 21.5265L6.25259 24.3224H6.2528C6.37233 24.4456 6.55425 24.4839 6.71293 24.4193C6.87182 24.3548 6.97586 24.2003 6.97649 24.0282L6.9857 21.5362H17.0309C17.6776 21.5356 18.2977 21.2772 18.7551 20.8179C19.2123 20.3588 19.4696 19.7362 19.4704 19.0867V10.2347C19.4696 9.58537 19.2123 8.96272 18.7551 8.50343C18.2977 8.04414 17.6776 7.7858 17.0309 7.78516L17.0309 7.78538ZM18.6267 19.0869H18.6265C18.6261 19.5117 18.4577 19.9191 18.1586 20.2195C17.8594 20.5199 17.454 20.6887 17.0309 20.6893H6.56549C6.33312 20.6893 6.1445 20.8778 6.14366 21.1112L6.13675 22.9899L4.01528 20.8068C3.93593 20.725 3.82708 20.679 3.71341 20.679H3.71215L2.44439 20.683H2.43936C2.01607 20.683 1.61035 20.5142 1.31099 20.2136C1.01184 19.9132 0.843736 19.5057 0.843527 19.0806V10.235C0.844155 9.81023 1.01246 9.40306 1.31162 9.10268C1.61077 8.80231 2.01624 8.6333 2.43935 8.63267H17.0307C17.4538 8.6333 17.8593 8.80209 18.1585 9.10247C18.4576 9.40306 18.6259 9.8102 18.6263 10.235L18.6267 19.0869Z" fill="#148BAF"/>
</g>
<mask id="mask1_915_146" style="mask-type:luminance" maskUnits="userSpaceOnUse" x="7" y="0" width="20" height="18">
<path d="M7.49805 0.5H27V17.2354H7.49805V0.5Z" fill="white"/>
</mask>
<g mask="url(#mask1_915_146)">
<path d="M24.5604 0.549859H9.969C9.32215 0.5507 8.70204 0.809038 8.24464 1.26814C7.78744 1.72743 7.53015 2.35002 7.5293 2.99937V6.43594C7.5293 6.6699 7.71833 6.8595 7.95133 6.8595C8.18433 6.8595 8.37316 6.6699 8.37316 6.43594V2.99937C8.37357 2.57455 8.54188 2.16738 8.84104 1.86701C9.14019 1.56663 9.54587 1.39762 9.96898 1.3972H24.5604C24.9835 1.39762 25.389 1.56663 25.6881 1.86701C25.9873 2.16738 26.1556 2.57474 26.1562 2.99937V11.8449C26.1562 12.2706 25.9875 12.6788 25.6873 12.9796C25.3869 13.2802 24.9799 13.4483 24.5558 13.4471L23.5897 13.4431V13.4433C23.4754 13.4423 23.3655 13.4883 23.2861 13.5711L21.1647 15.7542L21.1575 13.8755H21.1578C21.1569 13.6421 20.9683 13.4534 20.7357 13.4534H20.734H20.7343C20.6223 13.4538 20.5153 13.4988 20.4364 13.5787C20.3574 13.6583 20.3135 13.7662 20.3139 13.8786L20.3244 16.7926C20.325 16.9646 20.4292 17.1191 20.5879 17.1838C20.7468 17.2483 20.9287 17.2099 21.0483 17.0869L23.7649 14.291L24.5526 14.2942H24.5604C25.2072 14.2942 25.8277 14.0362 26.2854 13.5767C26.7428 13.1175 26.9999 12.4944 26.9999 11.8449V2.99931C26.9992 2.35002 26.7419 1.72736 26.2845 1.26808C25.8273 0.809004 25.2072 0.550666 24.5604 0.549805L24.5604 0.549859Z" fill="#148BAF"/>
</g>
<path d="M18.9477 6.85981H24.331C24.564 6.85981 24.7528 6.67021 24.7528 6.43625C24.7528 6.20229 24.564 6.0127 24.331 6.0127H18.9477C18.7147 6.0127 18.5259 6.20229 18.5259 6.43625C18.5259 6.67021 18.7147 6.85981 18.9477 6.85981Z" fill="#148BAF"/>
<path d="M24.3312 8.1543H20.9062C20.6732 8.1543 20.4844 8.34411 20.4844 8.57806C20.4844 8.81202 20.6732 9.00162 20.9062 9.00162H24.3312C24.5642 9.00162 24.7531 8.81202 24.7531 8.57806C24.7531 8.34411 24.5642 8.1543 24.3312 8.1543Z" fill="#148BAF"/>
<path d="M18.9477 4.71744H24.331C24.564 4.71744 24.7528 4.52763 24.7528 4.29367C24.7528 4.05972 24.564 3.87012 24.331 3.87012H18.9477C18.7147 3.87012 18.5259 4.05972 18.5259 4.29367C18.5259 4.52763 18.7147 4.71744 18.9477 4.71744Z" fill="#148BAF"/>
<path d="M24.3312 10.2969H20.9062C20.6732 10.2969 20.4844 10.4865 20.4844 10.7204C20.4844 10.9544 20.6732 11.144 20.9062 11.144H24.3312C24.5642 11.144 24.7531 10.9544 24.7531 10.7204C24.7531 10.4865 24.5642 10.2969 24.3312 10.2969Z" fill="#148BAF"/>
<path d="M16.6339 13.4189H11.2506C11.0176 13.4189 10.8286 13.6085 10.8286 13.8425C10.8286 14.0765 11.0176 14.2661 11.2506 14.2661H16.6339C16.8669 14.2661 17.0558 14.0765 17.0558 13.8425C17.0558 13.6085 16.8669 13.4189 16.6339 13.4189Z" fill="#148BAF"/>
<path d="M16.6339 15.5615H11.2506C11.0176 15.5615 10.8286 15.7513 10.8286 15.9851C10.8286 16.219 11.0176 16.4088 11.2506 16.4088H16.6339C16.8669 16.4088 17.0558 16.219 17.0558 15.9851C17.0558 15.7513 16.8669 15.5615 16.6339 15.5615Z" fill="#148BAF"/>
<path d="M16.6339 11.2773H11.2506C11.0176 11.2773 10.8286 11.4669 10.8286 11.7009C10.8286 11.9349 11.0176 12.1245 11.2506 12.1245H16.6339C16.8669 12.1245 17.0558 11.9349 17.0558 11.7009C17.0558 11.4669 16.8669 11.2773 16.6339 11.2773Z" fill="#148BAF"/>
<path d="M16.6339 17.7031H11.2506C11.0176 17.7031 10.8286 17.8927 10.8286 18.1267C10.8286 18.3606 11.0176 18.5502 11.2506 18.5502H16.6339C16.8669 18.5502 17.0558 18.3606 17.0558 18.1267C17.0558 17.8927 16.8669 17.7031 16.6339 17.7031Z" fill="#148BAF"/>
<path d="M8.97199 11.2773H2.83735C2.60435 11.2773 2.41553 11.4669 2.41553 11.7009V18.1276C2.41553 18.2401 2.45991 18.3477 2.53904 18.4272C2.61817 18.5066 2.72536 18.5512 2.83735 18.5512H8.97199C9.08398 18.5512 9.19116 18.5066 9.2703 18.4272C9.34943 18.3477 9.39381 18.2401 9.39381 18.1276V11.7009C9.39381 11.5884 9.34943 11.4808 9.2703 11.4014C9.19116 11.3219 9.08398 11.2773 8.97199 11.2773ZM6.53041 14.48C6.53082 14.7545 6.40815 15.0148 6.1965 15.1884L6.12177 15.2498C5.99553 15.3534 5.81424 15.3534 5.68801 15.2498L5.61328 15.1884C5.40163 15.0147 5.27895 14.7545 5.27937 14.48V13.9585C5.27958 13.7273 5.46611 13.54 5.69638 13.5398H6.11339C6.34346 13.54 6.53018 13.7273 6.53039 13.9585L6.53041 14.48ZM5.90467 16.1753C6.58566 16.1753 7.06193 16.4063 7.34141 16.5999H7.34162C7.47204 16.6905 7.54991 16.8395 7.5497 16.9986V17.7043L4.25944 17.7034V16.9988C4.25944 16.8395 4.33732 16.6905 4.46774 16.6001C4.74742 16.4061 5.22368 16.1753 5.90467 16.1753ZM8.55011 17.7045H8.39352V16.9984C8.39352 16.5608 8.17937 16.1511 7.82074 15.9025C7.5802 15.7368 7.3181 15.6052 7.04178 15.5115C7.25824 15.2115 7.37443 14.8504 7.37401 14.48V13.9585C7.3738 13.623 7.24086 13.3012 7.00431 13.0637C6.76796 12.8264 6.44744 12.6929 6.11335 12.6927H5.69613C5.36181 12.6929 5.04129 12.8264 4.80495 13.0637C4.5686 13.3012 4.43567 13.623 4.43526 13.9587V14.4802V14.48C4.43484 14.8506 4.55123 15.2115 4.76748 15.5117C4.49115 15.6055 4.22905 15.737 3.98853 15.9027C3.62992 16.1513 3.41595 16.5608 3.41595 16.9982V17.7041L3.25895 17.7043V12.1246H8.55005L8.55011 17.7045Z" fill="#148BAF"/>
<path d="M13.2257 5.28516C12.8914 5.28537 12.5709 5.41906 12.3345 5.65637C12.0982 5.89369 11.9653 6.21531 11.9648 6.55099C11.9648 6.78495 12.1537 6.97455 12.3867 6.97455C12.6197 6.97455 12.8087 6.78495 12.8087 6.55099C12.8089 6.31998 12.9954 6.13248 13.2257 6.13227H13.6423C13.8724 6.13248 14.0589 6.31998 14.0593 6.55099C14.0593 6.78495 14.2481 6.97455 14.4811 6.97455C14.7141 6.97455 14.903 6.78495 14.903 6.55099C14.9025 6.2153 14.7696 5.89368 14.5333 5.65637C14.2969 5.41905 13.9764 5.28537 13.6423 5.28516H13.2257Z" fill="#148BAF"/>
<path d="M16.4903 6.85958C16.6021 6.85958 16.7094 6.81502 16.7886 6.73556C16.8677 6.65611 16.9121 6.54827 16.9121 6.43602V4.29367C16.9121 4.18143 16.8677 4.0736 16.7886 3.99414C16.7094 3.91489 16.6021 3.87012 16.4903 3.87012H10.5839C10.3509 3.87012 10.1621 4.05972 10.1621 4.29367V6.43602C10.1621 6.66998 10.3509 6.85958 10.5839 6.85958C10.8169 6.85958 11.006 6.66998 11.006 6.43602V4.71739H16.0685V6.43602H16.0683C16.0683 6.54827 16.1129 6.6561 16.192 6.73556C16.2711 6.81502 16.3783 6.85958 16.4903 6.85958H16.4903Z" fill="#148BAF"/>
</svg>
