<svg width="29" height="32" viewBox="0 0 29 32" fill="none" xmlns="http://www.w3.org/2000/svg">
<mask id="mask0_781_1262" style="mask-type:luminance" maskUnits="userSpaceOnUse" x="0" y="0" width="29" height="32">
<path d="M0 0H28.8363V32H0V0Z" fill="white"/>
</mask>
<g mask="url(#mask0_781_1262)">
<path fill-rule="evenodd" clip-rule="evenodd" d="M14.4181 31.9997C22.3576 31.9997 28.7918 28.9239 28.7918 25.1273C28.7918 22.3316 25.3004 18.2295 20.2895 16.2598C18.7225 18.1973 16.6689 19.5674 14.4181 19.5674C12.1677 19.5674 10.1138 18.1973 8.54556 16.2598C3.53599 18.2296 0.0439453 22.3318 0.0439453 25.1273C0.0439453 28.9237 6.47875 31.9997 14.4183 31.9997H14.4181ZM2.13413 23.5769C2.47106 22.905 2.98512 22.1867 3.62028 21.5C4.8241 20.1982 6.39065 19.0645 8.1101 18.2403C8.82516 18.9732 9.58957 19.5813 10.3927 20.0552C11.6913 20.8216 13.0455 21.21 14.4181 21.21C16.6428 21.21 18.8468 20.1644 20.725 18.2401C22.4446 19.0643 24.0117 20.1982 25.2155 21.5C25.8504 22.1867 26.3643 22.9048 26.7015 23.5769C27.0727 24.317 27.1508 24.8286 27.1508 25.1273C27.1508 25.6421 26.9096 26.1756 26.4338 26.7135C25.8646 27.3568 24.9798 27.9764 23.875 28.5043C22.6767 29.0772 21.2681 29.5298 19.6887 29.8491C18.0234 30.1858 16.2501 30.3565 14.4181 30.3565C12.5863 30.3565 10.8131 30.1858 9.14758 29.8491C7.56787 29.5298 6.15934 29.0772 4.96099 28.5043C3.85612 27.9761 2.97116 27.3568 2.40174 26.7135C1.92611 26.1756 1.68496 25.6419 1.68496 25.1273C1.68496 24.8286 1.76287 24.317 2.13428 23.5769H2.13413ZM14.4175 17.3005C18.6922 17.3005 22.1575 11.6019 22.1575 7.47456C22.1575 3.34678 18.6922 0 14.4175 0C10.1431 0 6.67743 3.34602 6.67743 7.47456C6.67743 11.6031 10.1428 17.3005 14.4175 17.3005ZM8.31328 7.47456C8.31328 5.92884 8.94001 4.47242 10.0781 3.37333C11.2338 2.25736 12.7748 1.64252 14.4175 1.64252C16.0602 1.64252 17.6015 2.25734 18.7572 3.37359C19.8952 4.47299 20.5222 5.92935 20.5222 7.47456C20.5222 8.30154 20.3441 9.24558 20.0071 10.2043C19.6618 11.1871 19.1638 12.1438 18.5666 12.971C17.959 13.8128 17.2601 14.5023 16.5452 14.9643C15.8334 15.4245 15.1176 15.6578 14.4175 15.6578C13.7173 15.6578 13.0015 15.4245 12.2899 14.9646C11.5751 14.5023 10.8762 13.8133 10.2686 12.9715C9.67165 12.1443 9.17345 11.1876 8.82805 10.2048C8.49112 9.24609 8.31323 8.3018 8.31323 7.47463L8.31328 7.47456Z" fill="black"/>
</g>
</svg>
