<svg width="10" height="8" viewBox="0 0 10 8" fill="none" xmlns="http://www.w3.org/2000/svg">
<path d="M4.24352 0.043961C2.91291 0.19284 1.89864 0.685342 1.22882 1.50819C0.560678 2.32898 0.222168 3.49774 0.222168 4.9823V7.74687C0.222168 7.86304 0.311135 7.95715 0.420729 7.95715H4.20355C4.31315 7.95715 4.40211 7.86315 4.40211 7.74687L4.40201 3.94588C4.40201 3.82982 4.31304 3.7356 4.20345 3.7356L2.41528 3.73571C2.43098 3.24767 2.57454 2.85984 2.85272 2.55293C3.15553 2.21966 3.64738 1.95743 4.31439 1.77376C4.40192 1.74964 4.46297 1.66596 4.46297 1.57022V0.253134C4.46297 0.193583 4.43906 0.136639 4.3973 0.0968656C4.35533 0.0569835 4.2992 0.0380743 4.24348 0.0440527L4.24352 0.043961Z" fill="#04C4D5"/>
<path d="M9.93467 0.0967705C9.893 0.0569968 9.8379 0.0383055 9.78105 0.0439584C8.45044 0.192509 7.43596 0.685228 6.76582 1.50819C6.09789 2.32842 5.75928 3.49718 5.75928 4.9823V7.74623C5.75928 7.8624 5.84825 7.95651 5.95784 7.95651H9.74066C9.85026 7.95651 9.93922 7.86251 9.93922 7.74623L9.93902 3.94552C9.93902 3.82935 9.85005 3.73524 9.74046 3.73524L7.96253 3.73535C7.97802 3.2472 8.12015 2.85937 8.39566 2.55182C8.6949 2.21885 9.18478 1.95684 9.85147 1.77321C9.939 1.74908 10.0001 1.6654 10.0001 1.56967V0.25302C10.0002 0.193578 9.97636 0.136742 9.93459 0.0969683L9.93467 0.0967705Z" fill="#04C4D5"/>
</svg>
