<svg width="25" height="22" viewBox="0 0 25 22" fill="none" xmlns="http://www.w3.org/2000/svg">
<path d="M11.1775 1.00373C11.5937 -0.334576 13.4063 -0.334579 13.8225 1.00373L15.466 6.28731C15.6521 6.88582 16.186 7.29104 16.7885 7.29104H22.1067C23.4538 7.29104 24.0139 9.09172 22.9241 9.91884L18.6216 13.1843C18.1342 13.5542 17.9302 14.2098 18.1164 14.8083L19.7598 20.0919C20.1761 21.4302 18.7098 22.5431 17.6199 21.716L13.3174 18.4506C12.83 18.0807 12.17 18.0807 11.6826 18.4506L7.38007 21.716C6.29025 22.5431 4.8239 21.4302 5.24018 20.0919L6.88361 14.8083C7.06977 14.2098 6.86583 13.5542 6.37845 13.1843L2.07589 9.91884C0.986064 9.09172 1.54616 7.29104 2.89325 7.29104H8.21151C8.81395 7.29104 9.34788 6.88582 9.53404 6.28731L11.1775 1.00373Z" fill="#148BAF"/>
</svg>
