<svg width="30" height="30" viewBox="0 0 30 30" fill="none" xmlns="http://www.w3.org/2000/svg">
<path d="M10.8672 9.62537H14.7646C15.1749 9.6256 15.5332 9.97015 15.5332 10.3949V11.9301C15.5331 12.3621 15.1966 12.6994 14.7646 12.6996H10.752L10.6484 12.7504L10.4463 12.848L10.5352 12.6967L10.2988 12.4271C10.1642 12.2734 10.0977 12.0927 10.0977 11.9301V10.3949C10.0977 9.96276 10.4351 9.62554 10.8672 9.62537Z" stroke="#148BAF"/>
<path d="M6.76465 13.9353C7.40119 13.9353 7.91797 14.4517 7.91797 15.0886C7.91792 15.7251 7.4012 16.2418 6.76465 16.2419C6.12777 16.2419 5.61138 15.7251 5.61133 15.0886C5.61133 14.4517 6.12778 13.9353 6.76465 13.9353Z" stroke="#148BAF"/>
<path d="M6.64648 17.4779C6.95872 17.4779 7.23098 17.6092 7.43555 17.85L9.1123 20.0551L9.36719 20.391L9.74121 20.1957L11.7783 19.1332L11.79 19.1273C11.8077 19.1175 11.8197 19.1187 11.8262 19.1205C11.8298 19.1215 11.833 19.1231 11.8359 19.1254L11.8477 19.14C11.8574 19.1577 11.8563 19.1697 11.8545 19.1761C11.8535 19.1798 11.8519 19.183 11.8496 19.1859L11.835 19.1976L11.8281 19.2015L9.33887 20.6351C9.33521 20.6365 9.33161 20.6391 9.32715 20.64C9.3203 20.6414 9.31411 20.6423 9.30957 20.642C9.30523 20.6417 9.3026 20.6403 9.30176 20.64L9.29883 20.6381L9.29102 20.6322L9.14062 20.4945C9.06956 20.4267 8.98218 20.3409 8.89258 20.2513C8.8079 20.1667 8.72959 20.0868 8.67383 20.0277L8.61914 19.9691C8.62165 19.9725 8.63305 19.9876 8.64551 20.0092C8.65166 20.0198 8.66328 20.0411 8.6748 20.0697C8.68284 20.0897 8.71094 20.1603 8.71094 20.2552H7.71094V22.4222L8.06055 22.5326L10.6885 23.3588L10.6973 23.3617L10.707 23.3646C10.8748 23.4104 10.9531 23.532 10.96 23.6058L10.9619 23.6263L10.9658 23.6469L11.6416 27.4984V27.4994C11.6616 27.6408 11.5875 27.7439 11.4893 27.7787L11.4463 27.7894L11.4414 27.7904C11.324 27.8084 11.18 27.7176 11.1484 27.5814H11.1475L10.3516 24.0414L10.2637 23.6517H6.58691C6.03663 23.6515 5.61133 23.2254 5.61133 22.6752V18.5131C5.61133 17.933 6.06658 17.4779 6.64648 17.4779Z" stroke="#148BAF"/>
<path d="M24.1572 13.9462L24.2754 13.9579C24.8651 14.0487 25.2818 14.5717 25.252 15.1551L25.2393 15.2723C25.1484 15.8627 24.6256 16.2789 24.042 16.2489L23.9248 16.2372C23.3347 16.1465 22.9183 15.6235 22.9482 15.0399L22.96 14.9227C23.0507 14.3326 23.5736 13.9162 24.1572 13.9462Z" stroke="#148BAF"/>
<path d="M2.24707 17.5075H3.28027L3.28516 17.5114L3.28613 17.5153L3.28809 17.5251L4.37988 24.7858L4.44434 25.2116H8.58594L8.58691 25.2126H8.8623V26.6325H2.21582V17.5388C2.21585 17.5323 2.21752 17.528 2.21875 17.5251C2.22012 17.5219 2.22198 17.5189 2.22461 17.5163C2.22724 17.5137 2.23019 17.5118 2.2334 17.5104C2.23633 17.5092 2.24059 17.5075 2.24707 17.5075Z" stroke="#148BAF"/>
<path d="M15.1479 5.08126C15.1479 5.47493 14.5576 5.47493 14.5576 5.08126C14.5576 4.68758 15.1479 4.68758 15.1479 5.08126Z" fill="#148BAF"/>
<path d="M15.1772 3.69376C15.1772 4.08744 14.5869 4.08744 14.5869 3.69376C14.5869 3.30008 15.1772 3.30008 15.1772 3.69376Z" fill="#148BAF"/>
<path d="M15.2065 2.30625C15.2065 2.69993 14.6162 2.69993 14.6162 2.30625C14.6162 1.91281 15.2065 1.91281 15.2065 2.30625Z" fill="#148BAF"/>
<path d="M10.5424 5.99648C10.5424 6.39016 9.95215 6.39016 9.95215 5.99648C9.95215 5.60304 10.5424 5.60304 10.5424 5.99648Z" fill="#148BAF"/>
<path d="M9.65668 4.9336C9.65668 5.32728 9.06641 5.32728 9.06641 4.9336C9.06641 4.53992 9.65668 4.53992 9.65668 4.9336Z" fill="#148BAF"/>
<path d="M8.80145 3.8707C8.80145 4.26438 8.21094 4.26438 8.21094 3.8707C8.21094 3.47702 8.80145 3.47702 8.80145 3.8707Z" fill="#148BAF"/>
<path d="M7.56121 8.18086C7.56121 8.57454 6.9707 8.57454 6.9707 8.18086C6.9707 7.78741 7.56121 7.78741 7.56121 8.18086Z" fill="#148BAF"/>
<path d="M6.23309 7.79708C6.23309 8.19052 5.64258 8.19052 5.64258 7.79708C5.64258 7.4034 6.23309 7.4034 6.23309 7.79708Z" fill="#148BAF"/>
<path d="M4.90473 7.44258C4.90473 7.83626 4.31445 7.83626 4.31445 7.44258C4.31445 7.0489 4.90473 7.0489 4.90473 7.44258Z" fill="#148BAF"/>
<path d="M19.8122 6.05509C19.8122 6.44877 19.2217 6.44877 19.2217 6.05509C19.2217 5.66141 19.8122 5.66141 19.8122 6.05509Z" fill="#148BAF"/>
<path d="M20.6677 4.96289C20.6677 5.35657 20.0771 5.35657 20.0771 4.96289C20.0771 4.56921 20.6677 4.56921 20.6677 4.96289Z" fill="#148BAF"/>
<path d="M21.4946 3.8707C21.4946 4.26438 20.9043 4.26438 20.9043 3.8707C20.9043 3.47702 21.4946 3.47702 21.4946 3.8707Z" fill="#148BAF"/>
<path d="M23.03 8.23945C23.03 8.63313 22.4395 8.63313 22.4395 8.23945C22.4395 7.84601 23.03 7.84601 23.03 8.23945Z" fill="#148BAF"/>
<path d="M24.3581 7.91544C24.3581 8.30888 23.7676 8.30888 23.7676 7.91544C23.7676 7.52176 24.3581 7.52176 24.3581 7.91544Z" fill="#148BAF"/>
<path d="M25.6862 7.59024C25.6862 7.98392 25.0957 7.98392 25.0957 7.59024C25.0957 7.19656 25.6862 7.19656 25.6862 7.59024Z" fill="#148BAF"/>
<path d="M27.753 17.0074H26.6902C26.4245 17.0074 26.2178 17.2141 26.1883 17.4503L25.1256 24.7124L21.1108 24.7122C20.9631 24.7122 20.845 24.7712 20.7564 24.8893L20.5202 24.2105H23.561C24.0334 24.181 24.4465 23.7971 24.5056 23.325L25.2139 18.7789C25.4502 16.8011 22.6161 16.3877 22.2618 18.336L21.937 20.4319L19.9297 20.5795C19.7821 20.5795 19.6345 20.6681 19.5459 20.7862L18.7489 20.6091C18.6603 20.5795 18.5422 20.6386 18.4832 20.6976L17.9522 21.406C17.8636 21.5241 17.8931 21.6718 18.0407 21.7603C18.0703 21.7603 18.0703 21.7899 18.0998 21.7899L18.395 21.8489C18.2179 22.0556 18.1588 22.3509 18.2474 22.6164L18.395 22.9707C18.1588 23.0593 17.9817 23.266 17.9226 23.5022L16.919 27.3693C16.8304 27.7532 17.0666 28.1663 17.4504 28.2549C17.8343 28.3435 18.2474 28.1368 18.3655 27.7234L19.1625 25.0961L19.4578 25.8931C19.6054 26.3064 20.0483 26.5129 20.4614 26.3655C20.5205 26.3359 20.609 26.3064 20.6681 26.2474V27.9006C20.6976 28.1073 20.8748 28.2549 21.0814 28.2254C21.2586 28.1959 21.4062 28.0778 21.4062 27.9006V27.1036H27.5463V27.9006C27.5758 28.1073 27.7529 28.2549 27.9596 28.2254C28.1368 28.1959 28.2844 28.0778 28.2844 27.9006L28.284 17.5096C28.284 17.2438 28.048 17.0076 27.7527 17.0076L27.753 17.0074ZM18.218 21.524L18.6904 20.8746L19.4283 21.0518V21.1108C19.4283 21.4061 19.6941 21.6423 19.9893 21.6423L21.7606 21.5832L21.6425 22.2621L18.218 21.524Z" stroke="#148BAF"/>
</svg>
