<svg width="16" height="9" viewBox="0 0 16 9" fill="none" xmlns="http://www.w3.org/2000/svg">
<path d="M15.3496 1.50001V7.49999L10.8495 5.50512L10.8498 7.49999C10.8498 7.89774 10.6915 8.27928 10.4104 8.56066C10.1291 8.84174 9.74751 9 9.34973 9H1.84965C1.45162 9 1.07035 8.84174 0.788953 8.56066C0.507593 8.27931 0.349609 7.89776 0.349609 7.49999V1.50001C0.349609 1.10198 0.507593 0.72072 0.788953 0.439331C1.07031 0.157942 1.4516 0 1.84965 0H9.34973C9.74748 0 10.129 0.157978 10.4104 0.439331C10.6915 0.720684 10.8498 1.10196 10.8498 1.50001V3.49488L15.3496 1.50001Z" fill="black"/>
</svg>
