<svg width="30" height="30" viewBox="0 0 30 30" fill="none" xmlns="http://www.w3.org/2000/svg">
<g clip-path="url(#clip0_168_72)">
<path d="M19.9844 12.4658C19.8308 11.9321 19.7081 11.2896 19.6267 10.5787C19.4543 10.6673 19.2424 10.8117 19.1133 11.0271C19.2346 11.4322 19.3177 11.8538 19.3708 12.2779C19.5644 12.4132 19.7983 12.4564 19.9844 12.4658Z" fill="black"/>
<path d="M19.966 16.2879C20.1182 15.6628 19.7541 15.3103 19.3677 15.1155C19.2863 15.8276 19.1633 16.4708 19.0098 17.0045C19.3483 16.9887 19.8266 16.8603 19.966 16.2879Z" fill="black"/>
<path d="M23.2798 13.3195L24.6911 13.3214H24.6918C24.7987 13.3214 24.8992 13.2797 24.9751 13.2042C25.0434 13.1362 25.0839 13.0476 25.0914 12.9526H22.8809C22.8985 13.1575 23.0704 13.3193 23.2798 13.3195Z" fill="black"/>
<path d="M28.3629 10.5773C28.2816 11.289 28.1587 11.9321 28.0049 12.4663C28.3434 12.4505 28.8217 12.3221 28.9611 11.7499C29.1133 11.1248 28.7494 10.7723 28.3628 10.5773L28.3629 10.5773Z" fill="black"/>
<path d="M22.8799 12.4846H25.0936L25.0943 12.1184L22.8803 12.1154L22.8799 12.4846Z" fill="black"/>
<path d="M24.2407 9.733C24.3203 9.63847 24.3643 9.51007 24.3643 9.3716C24.3645 9.23312 24.321 9.10472 24.2416 9.00974C24.172 8.92688 24.0834 8.8811 23.9914 8.88087H23.991C23.8992 8.88087 23.8104 8.92642 23.7408 9.00905C23.6611 9.10358 23.6172 9.23198 23.6172 9.37045C23.617 9.50893 23.6604 9.63756 23.7399 9.73232C23.8095 9.81518 23.898 9.86095 23.99 9.86118H23.9905C24.0825 9.86118 24.1713 9.81563 24.2407 9.733Z" fill="black"/>
<path d="M23.9952 5.91503H23.992C23.3603 5.91503 22.7661 6.16062 22.3186 6.60697C21.8704 7.05397 21.623 7.64859 21.6221 8.28169C21.6212 8.8889 21.8496 9.4664 22.2653 9.90814C22.7732 10.3968 22.8647 11.005 22.878 11.6463L23.7551 11.6474V10.2915C23.6134 10.2453 23.4845 10.1578 23.3802 10.0328C23.2302 9.85363 23.1478 9.61812 23.1483 9.36957C23.1488 9.12123 23.2316 8.88571 23.382 8.70693C23.5422 8.51673 23.7583 8.4119 23.9906 8.4119H23.9917C24.2245 8.41236 24.4408 8.51765 24.6006 8.70853C24.7505 8.88775 24.8329 9.12326 24.8325 9.37158C24.832 9.62015 24.7491 9.85543 24.5988 10.0342C24.4942 10.1587 24.3651 10.2457 24.2236 10.2915V11.6476L25.0966 11.6488C25.1114 11.0072 25.2046 10.3996 25.7138 9.91223C26.1309 9.47163 26.3607 8.89487 26.3616 8.2876C26.3625 7.6545 26.1167 7.05918 25.6697 6.61106C25.2231 6.16337 24.6283 5.91597 23.9952 5.91503Z" fill="black"/>
<path d="M10.0334 16.2879C10.1728 16.8601 10.6512 16.9885 10.9897 17.0043C10.8359 16.4703 10.713 15.8272 10.6317 15.1154C10.2453 15.3104 9.88141 15.6631 10.0334 16.2879L10.0334 16.2879Z" fill="black"/>
<path d="M24.9425 16.742C24.845 16.7113 24.7786 16.6209 24.7786 16.5186V15.6118C24.5259 15.6733 24.2638 15.7083 23.9951 15.7083C23.7262 15.7083 23.4644 15.6733 23.2117 15.6118V16.5186C23.2117 16.6209 23.1453 16.7113 23.0478 16.742C21.7617 17.1476 19.4267 18.3478 18.0928 21.8394C19.7124 22.9825 21.57 25.2127 22.1616 29.5252H29.2919V20.5199C27.911 17.9919 25.9767 17.0681 24.9424 16.7418L24.9425 16.742Z" fill="black"/>
<path d="M1.99465 12.4664C1.84084 11.9324 1.71793 11.2893 1.63668 10.5777C1.25009 10.7725 0.886152 11.1252 1.03838 11.75C1.17777 12.3225 1.65613 12.4506 1.99463 12.4665L1.99465 12.4664Z" fill="black"/>
<path d="M11.9074 21.8396C10.5734 18.348 8.23817 17.1478 6.95233 16.7422C6.85482 16.7116 6.78844 16.6212 6.78844 16.5188L6.78822 15.612C6.53553 15.6736 6.27346 15.7086 6.00476 15.7086C5.73583 15.7086 5.47398 15.6736 5.2213 15.612V16.5188C5.2213 16.6212 5.15493 16.7116 5.05742 16.7422C4.02313 17.0686 2.08883 17.9924 0.708008 20.5206V29.5253H7.83828C8.4302 25.2127 10.2878 22.9827 11.9073 21.8395L11.9074 21.8396Z" fill="black"/>
<path d="M15.9619 21.2842C15.888 21.2675 15.7843 21.2084 15.7843 21.0111V20.1494C15.5316 20.211 15.2696 20.246 15.0009 20.246C14.7319 20.246 14.4701 20.211 14.2174 20.1494V21.0562C14.2174 21.1585 14.151 21.249 14.0535 21.2796C12.6013 21.7376 9.16756 23.4545 8.3125 29.5255H21.6895C20.8369 23.474 17.4222 21.749 15.9621 21.2843L15.9619 21.2842Z" fill="black"/>
<path d="M10.8867 11.0268C10.7577 10.8114 10.5455 10.6667 10.3734 10.5784C10.2919 11.2898 10.1692 11.932 10.0156 12.4655C10.2017 12.4561 10.4356 12.4126 10.6293 12.2774C10.6824 11.8535 10.7654 11.4319 10.8867 11.0268Z" fill="black"/>
<path d="M6.23926 8.0918V11.8565C6.96254 11.4701 7.76065 11.3609 8.58049 11.5397L8.88742 7.64548C8.00646 7.41568 7.03736 7.57888 6.23926 8.0918Z" fill="black"/>
<path d="M3.12207 7.64531L3.429 11.5395C3.68581 11.4837 3.94033 11.4557 4.19096 11.4557C4.74119 11.4557 5.27336 11.5901 5.77023 11.8556V8.09188C4.97213 7.57895 4.00303 7.41574 3.12207 7.64531Z" fill="black"/>
<mask id="mask0_168_72" style="mask-type:luminance" maskUnits="userSpaceOnUse" x="0" y="0" width="30" height="20">
<path d="M0.239258 0.46875H29.7594V19.8047H0.239258V0.46875Z" fill="white"/>
</mask>
<g mask="url(#mask0_168_72)">
<path d="M29.721 4.43672C29.65 4.32846 29.5047 4.29847 29.3967 4.36943L27.3063 5.74088C27.155 5.45157 26.9735 5.18309 26.7549 4.94552C26.0998 4.23326 25.171 3.87232 23.9944 3.87232C23.9088 3.87232 23.8248 3.87484 23.7417 3.87873L26.4963 0.866426C26.5835 0.770982 26.5771 0.622664 26.4814 0.535464C26.386 0.448259 26.2379 0.454669 26.1504 0.550342L23.0271 3.96548C22.2986 4.11425 21.6973 4.44155 21.2338 4.94558C20.7143 5.51046 20.3998 6.24653 20.2199 7.03503L17.8676 9.607C17.8326 9.56512 17.7969 9.52369 17.7598 9.48341C17.5742 9.28153 17.3659 9.10895 17.1368 8.96384L21.2667 0.814037C21.3251 0.698678 21.2791 0.557689 21.1637 0.499095C21.0481 0.440731 20.9074 0.486736 20.8488 0.602092L16.7241 8.74135C16.2885 8.54772 15.7909 8.43808 15.2338 8.41451L15.2336 0.707672C15.2336 0.578356 15.1287 0.473297 14.9992 0.473297C14.8699 0.473297 14.7648 0.578127 14.7648 0.707672V8.41451C14.2077 8.43831 13.7101 8.54772 13.2746 8.74135L9.15008 0.602092C9.09149 0.486733 8.9505 0.44073 8.83514 0.499095C8.71978 0.557689 8.67355 0.698678 8.73215 0.814037L12.8618 8.96326C12.633 9.10837 12.4244 9.28095 12.2388 9.48282C12.2017 9.5231 12.166 9.56453 12.131 9.60642L9.77899 7.03468C9.59932 6.24642 9.28461 5.51007 8.76503 4.94499C8.30154 4.44099 7.70003 4.11366 6.97177 3.96489L3.84819 0.54999C3.76076 0.454319 3.61268 0.447909 3.51723 0.535113C3.42156 0.622318 3.41515 0.77063 3.50235 0.866074L6.25696 3.87791C6.17388 3.87402 6.08988 3.8715 6.00428 3.8715C4.8276 3.8715 3.89877 4.23268 3.24375 4.9447C3.02517 5.18228 2.84344 5.45053 2.69237 5.74006L0.601981 4.36884C0.493717 4.29789 0.34861 4.3281 0.277653 4.43613C0.206702 4.5444 0.236913 4.6895 0.344942 4.76046L2.4944 6.17081C1.98925 7.43814 1.96774 8.99679 2.07073 10.2307C2.19639 11.5516 2.47425 12.6864 2.8137 13.2666C3.15794 13.8555 3.9881 14.7104 5.03136 15.0697C5.05081 15.0736 5.06912 15.0802 5.08675 15.0884C5.37857 15.1834 5.68616 15.2393 6.00433 15.2393C7.40923 15.2393 8.71587 14.0857 9.19493 13.2665C9.53436 12.6861 9.81222 11.5509 9.93813 10.2293C9.99764 9.51702 10.0148 8.69577 9.92188 7.88459L11.8509 9.99397C11.6481 10.3158 11.4897 10.6708 11.3687 11.0457C11.3652 11.0637 11.3593 11.0811 11.3517 11.0979C11.2215 11.5151 11.1361 11.955 11.0842 12.3988C11.0844 12.4196 11.0826 12.4405 11.0773 12.4606C10.9892 13.2594 11.0072 14.0664 11.0658 14.7682C11.1917 16.0889 11.4694 17.2239 11.8088 17.8039C12.153 18.3926 12.9832 19.2475 14.0262 19.607C14.0459 19.6109 14.0642 19.6175 14.0819 19.6258C14.3737 19.7208 14.6813 19.7766 14.9994 19.7766C16.4833 19.7766 17.744 18.5665 18.19 17.8036C18.5295 17.2232 18.8071 16.0879 18.933 14.7666C19.0257 13.6581 19.0175 12.2853 18.6471 11.0979C18.6393 11.0807 18.6334 11.0631 18.63 11.0445C18.5091 10.6699 18.3507 10.3151 18.1479 9.99348L20.0772 7.88411C19.9843 8.69592 20.0014 9.51811 20.0609 10.2315C20.1866 11.5501 20.4642 12.6856 20.8039 13.266C21.283 14.0851 22.5894 15.2387 23.9945 15.2387C24.3127 15.2387 24.6205 15.1829 24.9121 15.0879C24.9295 15.0797 24.9478 15.073 24.9673 15.0691C26.0105 14.7098 26.8407 13.8547 27.1849 13.266C27.5243 12.6858 27.802 11.551 27.9279 10.2302C28.0309 8.99624 28.0094 7.43759 27.5042 6.17027L29.6537 4.76015C29.7619 4.68966 29.7921 4.54431 29.721 4.43628L29.721 4.43672ZM9.02509 11.8535C9.01959 11.924 8.98251 11.9881 8.92437 12.0282C8.86624 12.0682 8.793 12.0799 8.72525 12.0597C7.79326 11.7849 6.92279 11.921 6.13775 12.4649C6.13729 12.4651 6.13683 12.4653 6.13638 12.4658C6.13409 12.4674 6.13157 12.4685 6.12928 12.4699C6.1199 12.4759 6.11028 12.4811 6.10021 12.4857C6.09609 12.4875 6.09152 12.4891 6.08717 12.4907C6.07801 12.4942 6.06886 12.4971 6.05947 12.4994C6.05512 12.5006 6.05078 12.5015 6.04643 12.5024C6.03246 12.5049 6.0185 12.5068 6.00431 12.5068C5.99012 12.5068 5.97616 12.5051 5.9622 12.5024C5.95785 12.5015 5.9535 12.5006 5.94915 12.4994C5.93977 12.4971 5.93061 12.4942 5.92146 12.4907C5.91711 12.4891 5.91276 12.4875 5.90841 12.4857C5.89834 12.4811 5.88873 12.4759 5.87934 12.4699C5.87705 12.4685 5.87454 12.4674 5.87225 12.4658C5.87179 12.4656 5.87133 12.4653 5.87087 12.4649C5.08601 11.9208 4.21537 11.7846 3.28337 12.0597C3.21563 12.0799 3.14239 12.0682 3.08425 12.0282C3.02611 11.9881 2.98903 11.924 2.98354 11.8535L2.63976 7.49191C2.63129 7.38388 2.69789 7.28432 2.80089 7.25067C3.85306 6.90826 5.03888 7.071 6.00433 7.68349C6.96978 7.07101 8.1556 6.90829 9.20776 7.25067C9.31076 7.28409 9.37736 7.38388 9.3689 7.49191L9.02509 11.8535ZM26.0495 10.2397C26.0468 10.2426 26.044 10.2454 26.041 10.2481C25.5988 10.6686 25.5629 11.2145 25.562 11.8842L25.5606 12.9212C25.5604 13.1536 25.4695 13.3719 25.3049 13.536C25.1406 13.6999 24.9227 13.7898 24.6909 13.7898H24.6895L23.2782 13.788C22.7985 13.7873 22.4089 13.3966 22.4096 12.9171L22.411 11.8798C22.4119 11.2099 22.3776 10.664 21.9363 10.2424C21.9336 10.2397 21.9306 10.2369 21.9278 10.234C21.427 9.70411 21.1517 9.01036 21.1526 8.28092C21.1538 7.52284 21.4499 6.81034 21.9867 6.27503C22.5225 5.74059 23.2343 5.44645 23.991 5.44645H23.9949C24.753 5.4476 25.4654 5.74377 26.0008 6.28047C26.5361 6.81743 26.8305 7.53063 26.8293 8.28866C26.8289 9.01809 26.5517 9.71092 26.0495 10.2397Z" fill="black"/>
</g>
</g>
<defs>
<clipPath id="clip0_168_72">
<rect width="30" height="30" fill="white"/>
</clipPath>
</defs>
</svg>
