<svg width="30" height="30" viewBox="0 0 30 30" fill="none" xmlns="http://www.w3.org/2000/svg">
<path d="M14.7344 6.52579C19.3879 6.52589 23.1979 10.1683 23.4062 14.7563L23.415 15.2035V15.2065C23.4149 20.0073 19.5356 23.887 14.7344 23.8871C9.93348 23.8871 6.05382 20.0077 6.05371 15.2065C6.05371 11.4195 8.46787 8.20754 11.8438 7.01895L11.9092 7.40762L13.0215 14.0609L9.59375 14.0863L9.09766 14.0902V16.9809L9.60254 16.976L15.8906 16.9164L16.4785 16.9115L16.3779 16.3315L14.7549 6.91544L14.6865 6.52676C14.7024 6.52668 14.7185 6.52579 14.7344 6.52579ZM12.7188 6.76212C13.0535 6.68279 13.3955 6.62283 13.7441 6.5834L12.7188 6.76212Z" stroke="#148BAF"/>
<path d="M26.0704 8.29863L24.9782 9.39088C27.5465 13.9074 26.9264 19.7526 23.0595 23.5899C19.2218 27.4276 13.3769 28.0474 8.86047 25.5086L9.68693 24.6821L6.14453 23.8852L6.94152 27.4276L7.76799 26.6011C12.9341 29.6711 19.724 29.0217 24.152 24.5938C28.5799 20.1656 29.1999 13.4053 26.0707 8.29828L26.0704 8.29863Z" fill="#148BAF"/>
<path d="M21.6717 3.87071C16.5646 0.741681 9.77479 1.39102 5.34686 5.81895C0.918934 10.2469 0.269364 17.0074 3.39862 22.1438L4.49087 21.0515C1.92259 16.535 2.54262 10.6898 6.40958 6.85248C10.2472 3.01483 16.0922 2.39502 20.6086 4.93377L19.7821 5.76024L23.3245 6.55723L22.5275 3.01483L21.6717 3.87071Z" fill="#148BAF"/>
</svg>
