<svg width="30" height="30" viewBox="0 0 30 30" fill="none" xmlns="http://www.w3.org/2000/svg">
<path d="M14.7342 6.02579C9.65668 6.02579 5.55371 10.1292 5.55371 15.2063C5.55371 20.2838 9.65709 24.3867 14.7342 24.3867C19.8117 24.3867 23.9146 20.2833 23.9146 15.2063C23.9442 10.129 19.8115 6.02579 14.7342 6.02579ZM9.59762 16.476V14.5868L13.6125 14.5573L12.4021 7.32505L14.2618 7.00027L15.8855 16.4169L9.59762 16.476Z" fill="black"/>
<path d="M26.0704 8.29863L24.9782 9.39088C27.5465 13.9074 26.9264 19.7526 23.0595 23.5899C19.2218 27.4276 13.3769 28.0474 8.86047 25.5086L9.68693 24.6821L6.14453 23.8852L6.94152 27.4276L7.76799 26.6011C12.9341 29.6711 19.724 29.0217 24.152 24.5938C28.5799 20.1656 29.1999 13.4053 26.0707 8.29828L26.0704 8.29863Z" fill="black"/>
<path d="M21.6717 3.87071C16.5646 0.741681 9.77479 1.39102 5.34686 5.81895C0.918934 10.2469 0.269364 17.0074 3.39862 22.1438L4.49087 21.0515C1.92259 16.535 2.54262 10.6898 6.40958 6.85248C10.2472 3.01483 16.0922 2.39502 20.6086 4.93377L19.7821 5.76024L23.3245 6.55723L22.5275 3.01483L21.6717 3.87071Z" fill="black"/>
</svg>
