<svg width="30" height="30" viewBox="0 0 30 30" fill="none" xmlns="http://www.w3.org/2000/svg">
<path fill-rule="evenodd" clip-rule="evenodd" d="M15.7184 11.9238C15.552 11.7577 15.3224 11.6547 15.069 11.6547C14.815 11.6547 14.5854 11.7577 14.4199 11.9238C14.2535 12.0884 14.1508 12.3182 14.1508 12.5732C14.1508 12.8265 14.2535 13.0561 14.4199 13.2223C14.5854 13.3868 14.815 13.4898 15.069 13.4898C15.3176 13.4898 15.5433 13.3919 15.709 13.2317L15.7186 13.2223C15.8841 13.0561 15.9868 12.8265 15.9868 12.5732C15.9866 12.3182 15.8845 12.09 15.7184 11.9238ZM15.069 11.2651C15.4286 11.2651 15.7557 11.4109 15.9924 11.6483C16.2297 11.8859 16.3762 12.212 16.3762 12.5729C16.3762 12.9323 16.2297 13.2601 15.993 13.496L15.9795 13.5086C15.7445 13.7382 15.422 13.8792 15.069 13.8792C14.7081 13.8792 14.3803 13.7334 14.1444 13.496C13.9077 13.26 13.7612 12.9323 13.7612 12.5729C13.7612 12.2118 13.9077 11.8856 14.1444 11.6483C14.3804 11.4109 14.7081 11.2651 15.069 11.2651ZM16.7049 10.9358C16.3375 10.5684 15.8467 10.323 15.3004 10.269C15.2226 10.2674 15.1459 10.2658 15.069 10.2658C14.9907 10.2658 14.9131 10.2674 14.8362 10.269C14.2931 10.3228 13.807 10.5636 13.4412 10.9261L13.4316 10.9355C13.0136 11.3551 12.7536 11.9332 12.7536 12.5729C12.7536 13.2111 13.0127 13.7906 13.4307 14.2085C13.7987 14.5759 14.2897 14.8212 14.8367 14.8753C14.9134 14.8785 14.9912 14.8785 15.0686 14.8785C15.1455 14.8785 15.2221 14.8785 15.3 14.8753C15.8463 14.8215 16.3372 14.5761 16.7044 14.2085C17.1239 13.7906 17.3821 13.2111 17.3821 12.5729C17.3823 11.9332 17.1237 11.3553 16.7049 10.9358ZM13.3559 14.6633C13.287 14.6079 13.2213 14.5477 13.1579 14.4843C12.6669 13.9934 12.3646 13.3173 12.3646 12.5732C12.3646 11.8259 12.6672 11.1498 13.1563 10.6604L13.1691 10.6494C13.2284 10.5908 13.2909 10.5354 13.3559 10.4816C12.9499 10.5862 12.5587 10.727 12.1858 10.8998C11.3268 11.2987 10.5628 11.8719 9.94116 12.5736C10.5628 13.2735 11.3268 13.8467 12.1858 14.2456C12.5584 14.4177 12.9496 14.5587 13.3559 14.6633ZM16.7824 10.4812C16.852 10.5382 16.917 10.5968 16.9804 10.6602C17.4695 11.1495 17.7721 11.8257 17.7721 12.573C17.7721 13.3189 17.4695 13.9948 16.9804 14.4841C16.917 14.5475 16.8504 14.6061 16.7824 14.6631C17.1878 14.5585 17.579 14.4175 17.9518 14.2449C18.8105 13.846 19.5739 13.2726 20.1962 12.573C19.5739 11.8714 18.8108 11.2983 17.9518 10.8992C17.5789 10.7268 17.1887 10.5858 16.7824 10.4812ZM26.025 7.20357V18.2526L26.0241 18.2684C26.0232 18.3064 26.0202 18.3444 26.0161 18.3824L26.0099 18.43L26.0074 18.4458L26.0044 18.4616L25.9916 18.5234V18.525L25.9884 18.5392C25.9316 18.7703 25.8112 18.9777 25.649 19.1393C25.5469 19.2407 25.4279 19.326 25.2981 19.3894H25.2967L25.2555 19.4084H25.2546L25.2413 19.4146H25.2404L25.1825 19.4384L25.1676 19.443L25.1532 19.4478H25.1523L25.1239 19.4574L25.1223 19.459L25.1079 19.4622L25.0937 19.467H25.0921L25.0779 19.4718L25.0626 19.475H25.0616L25.0475 19.4796H25.0465L25.0317 19.4828L25.0156 19.486L25.0008 19.4892H24.9998L24.9857 19.4924H24.9841L24.9692 19.4956L24.9538 19.4988H24.9529L24.938 19.502H24.9371L24.9223 19.5037H24.9213L24.9062 19.5053H24.9055L24.8895 19.5085L24.8737 19.5101H24.8728L24.8579 19.5117H24.857L24.8412 19.5133H24.8243L24.8085 19.5149H24.7918L24.776 19.5165H24.7593L24.744 19.516H16.1231L16.1205 19.5144H16.0926C16.0642 19.5128 16.0358 19.5112 16.0079 19.5064V20.2015C16.0079 20.4643 16.1164 20.705 16.2906 20.8776C16.4639 21.0518 16.7037 21.1596 16.9674 21.1596L26.0946 21.1598C26.3582 21.1598 26.5979 21.0522 26.7723 20.8794C26.9457 20.7053 27.0542 20.4647 27.0542 20.2017L27.054 8.16131C27.054 7.89833 26.9455 7.65777 26.772 7.4852C26.5978 7.31102 26.3573 7.20344 26.0943 7.20344L26.0247 7.20322L26.025 7.20357ZM15.6193 19.3963C15.5868 19.3822 15.5553 19.3645 15.5234 19.3471L15.5189 19.3439H15.518L15.4948 19.3297L15.4919 19.3281L15.4774 19.3188L15.4745 19.3172L15.4719 19.3156L15.4571 19.3059L15.4555 19.3043L15.4491 19.3011V19.2995L15.4445 19.2963L15.4404 19.2947L15.4381 19.2931L15.4333 19.2899L15.4317 19.2883L15.4271 19.2851L15.4239 19.2819H15.4223L15.4168 19.2771L15.4152 19.2755L15.4113 19.2739L15.4003 19.2659L15.3955 19.2611L15.3909 19.2579H15.3893L15.3847 19.2531L15.3831 19.2515L15.379 19.2483L15.3744 19.2451H15.3735L15.3687 19.2402L15.3664 19.2386L15.3632 19.237L15.3584 19.2322H15.3577L15.3529 19.2274L15.3504 19.2258L15.3474 19.2226L15.3426 19.2194L15.3371 19.2146L15.3346 19.213L15.3321 19.2098L15.3275 19.2066H15.3266L15.3211 19.2018L15.3195 19.1986L15.3163 19.197L15.3117 19.1922L15.3069 19.1874L15.3039 19.1858L15.3023 19.1826L15.2966 19.1794L15.2957 19.1778L15.2911 19.1746L15.2886 19.1714L15.2861 19.1698L15.2815 19.1649L15.2767 19.1601L15.2737 19.1569L15.2721 19.1553L15.2676 19.1505H15.266L15.2541 19.1379C15.1852 19.07 15.124 18.9937 15.0728 18.9116C15.0206 18.994 14.9604 19.07 14.8915 19.1379L14.878 19.1505L14.8496 19.1775L14.8416 19.1855L14.8258 19.1981L14.8228 19.2013C14.734 19.2789 14.6333 19.3439 14.5251 19.3945V21.1583H15.6201L15.6193 19.3963ZM14.8773 15.2698L14.8139 15.265C13.8196 15.2302 12.8767 14.9942 12.0224 14.5983C11.0605 14.1501 10.2124 13.4978 9.53608 12.6981C9.47268 12.6237 9.47612 12.5143 9.53929 12.4431C10.2156 11.6434 11.0623 10.9927 12.0224 10.5461C12.8759 10.1504 13.8196 9.91578 14.8134 9.88121L14.8773 9.8748V6.89314C14.8727 6.65419 14.7729 6.43721 14.6152 6.28043C14.4545 6.11884 14.2314 6.01744 13.9858 6.01744L5.40005 6.01767C5.15469 6.01767 4.9313 6.11907 4.77064 6.28066C4.60836 6.44065 4.50857 6.66381 4.50857 6.90937V18.2596L4.50948 18.2708V18.2818H4.5104V18.2928L4.51131 18.3053H4.512V18.3163L4.5136 18.3273L4.51452 18.3385H4.51543L4.51635 18.3495L4.52116 18.3825L4.52344 18.3935L4.52505 18.4044L4.52756 18.4141L4.53008 18.425L4.53146 18.436H4.53237L4.53489 18.447L4.53741 18.4582H4.53832L4.54061 18.4676H4.54153L4.54313 18.4786H4.54404L4.54656 18.4896H4.54748L4.54977 18.499H4.55068L4.55389 18.5102L4.55709 18.5212H4.55801L4.56098 18.5306L4.56419 18.5399L4.56808 18.5509L4.5722 18.5605L4.57632 18.5715H4.577L4.58021 18.5811H4.58112L4.58524 18.5908L4.58982 18.6004L4.59394 18.6114H4.59486L4.59875 18.621H4.59966L4.60378 18.6304H4.6047L4.60859 18.6397H4.6095L4.61362 18.6493H4.61431L4.61912 18.659L4.62369 18.6686L4.62942 18.6782H4.63033L4.63491 18.6876L4.64063 18.6972L4.64613 18.7052L4.65162 18.7146H4.65253L4.65826 18.7242L4.66375 18.7322L4.66993 18.7416L4.67634 18.751L4.68252 18.759L4.6887 18.7684L4.69511 18.7764L4.70129 18.7844L4.70747 18.794H4.70838L4.71456 18.802H4.71548L4.72189 18.81L4.72807 18.818H4.72898L4.73608 18.826L4.74226 18.8341L4.75027 18.8421L4.75759 18.8501L4.76469 18.8581L4.7727 18.8661L4.77979 18.8723H4.78071L4.7878 18.8803H4.78872L4.79604 18.8883L4.80405 18.8947L4.81207 18.9027L4.82008 18.9091H4.82099L4.829 18.9171L4.84503 18.9295L4.85372 18.9375L4.86242 18.9437L4.87043 18.9499L4.88004 18.9561L4.88805 18.9625L4.89767 18.9686L4.90568 18.9748H4.90637L4.91529 18.9796L4.92399 18.9858H4.92468L4.9336 18.9922L4.9423 18.997L4.95191 19.0032L4.9613 19.008L4.97091 19.0144L5.02859 19.0433L5.03889 19.0481L5.0485 19.0529H5.04942L5.05903 19.0577L5.06864 19.0609H5.06956L5.07986 19.0657L5.08924 19.0689L5.09954 19.0737H5.10046L5.11007 19.0769L5.12037 19.0817L5.13067 19.0849L5.14188 19.0881L5.1515 19.0913H5.15241L5.16248 19.0945L5.17278 19.0961H5.1737L5.1943 19.1025L5.20551 19.1057L5.21673 19.1073L5.2268 19.1105H5.22771L5.24831 19.1138H5.24923L5.25953 19.117H5.26044L5.27074 19.1186H5.27166L5.28173 19.1202H5.28265L5.29295 19.1218H5.30508L5.31538 19.1234H5.31629L5.32728 19.125L5.33849 19.1266H5.36184L5.37283 19.1282H14.0377L14.0519 19.1266H14.0658L14.0683 19.125C14.2505 19.1108 14.4167 19.0394 14.5529 18.9318L14.56 18.927L14.5609 18.9254L14.5989 18.8922L14.6005 18.8906L14.6051 18.8858L14.6083 18.8842L14.6115 18.8794L14.6161 18.8762L14.6248 18.8668C14.7586 18.7322 14.8504 18.5564 14.8781 18.3616L14.879 18.3568L14.88 18.3507L14.8809 18.3491L14.8825 18.3285L14.8834 18.3237L14.8843 18.3156V18.314L14.8852 18.306V18.3044L14.8861 18.2964V18.2884L14.887 18.2822V18.271H14.8877V18.236L14.8773 15.2698ZM23.7115 9.4081H20.3799V9.02015H23.7115V9.4081ZM23.7115 11.2561H20.7267V10.8665H23.7115V11.2561ZM17.9453 16.4576C17.8384 16.4576 17.7514 16.3704 17.7514 16.2629C17.7514 16.1567 17.8384 16.0681 17.9453 16.0681H23.4703C23.5778 16.0681 23.6648 16.1569 23.6648 16.2629C23.6648 16.3704 23.5778 16.4576 23.4703 16.4576H17.9453ZM17.9453 17.3807C17.8384 17.3807 17.7514 17.2935 17.7514 17.1859C17.7514 17.0797 17.8384 16.9912 17.9453 16.9912H23.4703C23.5778 16.9912 23.6648 17.0797 23.6648 17.1859C23.6648 17.2935 23.5778 17.3807 23.4703 17.3807H17.9453ZM19.8264 14.0729C19.7189 14.0729 19.6319 13.9844 19.6319 13.8781C19.6319 13.7706 19.7189 13.6834 19.8264 13.6834H23.47C23.5776 13.6834 23.6646 13.7703 23.6646 13.8781C23.6646 13.9844 23.5776 14.0729 23.47 14.0729H19.8264ZM19.8264 14.996C19.7189 14.996 19.6319 14.9088 19.6319 14.8012C19.6319 14.6934 19.7189 14.6065 19.8264 14.6065H23.47C23.5776 14.6065 23.6646 14.6937 23.6646 14.8012C23.6646 14.9088 23.5776 14.996 23.47 14.996H19.8264ZM6.11491 16.4576C6.00802 16.4576 5.92013 16.3704 5.92013 16.2629C5.92013 16.1567 6.00825 16.0681 6.11491 16.0681H11.6399C11.7475 16.0681 11.8347 16.1569 11.8347 16.2629C11.8347 16.3704 11.7475 16.4576 11.6399 16.4576H6.11491ZM6.11491 17.3807C6.00802 17.3807 5.92013 17.2935 5.92013 17.1859C5.92013 17.0797 6.00825 16.9912 6.11491 16.9912H11.6399C11.7475 16.9912 11.8347 17.0797 11.8347 17.1859C11.8347 17.2935 11.7475 17.3807 11.6399 17.3807H6.11491ZM6.43237 9.01998H9.76442V9.40793H6.43237V9.01998ZM6.43237 10.8664H9.76442V11.2559H6.43237V10.8664ZM16.3558 23.5941C16.4627 23.5941 16.5497 23.6813 16.5497 23.7889C16.5497 23.8951 16.4627 23.9821 16.3558 23.9821L6.33921 23.9823C6.23232 23.9823 6.14466 23.8951 6.14466 23.7891C6.14466 23.6816 6.23255 23.5943 6.33921 23.5943L16.3558 23.5941ZM5.3144 23.5941C5.42197 23.5941 5.50918 23.6813 5.50918 23.7889C5.50918 23.8951 5.42197 23.9821 5.3144 23.9821L4.06196 23.9823C3.95439 23.9823 3.86718 23.8951 3.86718 23.7891C3.86718 23.6816 3.95439 23.5943 4.06196 23.5943L5.3144 23.5941ZM26.516 23.5705C26.6235 23.5705 26.7107 23.6591 26.7107 23.7653C26.7107 23.8731 26.6235 23.9601 26.516 23.9601H21.7703C21.6628 23.9601 21.5756 23.8731 21.5756 23.7653C21.5756 23.6591 21.6628 23.5705 21.7703 23.5705H26.516ZM27.8716 12.4166C27.8716 12.3104 27.9586 12.2219 28.0662 12.2219C28.1733 12.2219 28.261 12.3104 28.261 12.4166V18.5291C28.261 18.6353 28.1731 18.7239 28.0662 18.7239C27.9586 18.7239 27.8716 18.6353 27.8716 18.5291V12.4166ZM2.1279 15.612C2.1279 15.7198 2.04092 15.8068 1.93381 15.8068C1.82623 15.8068 1.73926 15.7198 1.73926 15.612V12.2061C1.73926 12.0985 1.82623 12.0113 1.93381 12.0113L3.08986 12.0223V8.1617C3.08986 7.89871 3.19904 7.65815 3.37253 7.48558C3.54602 7.3114 3.78658 7.20383 4.04935 7.20383H4.11915V18.2529L4.12099 18.2844V18.3018L4.12236 18.3176L4.12419 18.3492H4.12511L4.12602 18.365H4.12694L4.12785 18.3824H4.12877L4.13037 18.3982H4.13128L4.13266 18.414L4.13518 18.4298L4.14067 18.4598V18.4614L4.14319 18.4756L4.1441 18.4772L4.14662 18.4913H4.14754L4.15051 18.5071L4.15692 18.5387L4.16081 18.5529H4.16173L4.16493 18.5687H4.16585L4.16974 18.5829V18.5845L4.18324 18.6289H4.18416L4.18873 18.6431L4.21025 18.7017V18.7033L4.22833 18.7461L4.23451 18.7603L4.26152 18.8157L4.27594 18.8427V18.8443L4.28395 18.8571L4.29104 18.8697L4.29196 18.8713L4.29906 18.8841H4.29997L4.30707 18.8967L4.30798 18.8983L4.31599 18.9093V18.9109L4.33201 18.9363H4.3327L4.3414 18.9489L4.34964 18.9617H4.35101L4.36863 18.9869L4.37733 18.9995H4.37802L4.39633 19.0233L4.39725 19.0249L4.40594 19.0361H4.40686L4.42586 19.0599L4.43547 19.0725H4.43638L4.446 19.0835H4.44691L4.45653 19.0944H4.45744L4.46774 19.1054V19.107L4.47804 19.1183H4.47873L4.48834 19.1292H4.48994L4.49955 19.1386L4.50047 19.1402L4.51077 19.1496L4.51169 19.1512L4.5332 19.1718H4.53389L4.54419 19.1814L4.54579 19.183L4.57898 19.213H4.57989L4.59179 19.2224L4.6156 19.2414L4.64032 19.2604L4.65199 19.27H4.65291L4.66481 19.278L4.66572 19.2796L4.67762 19.2876L4.69021 19.2972H4.69113L4.70303 19.3053H4.70395L4.71562 19.3133H4.71722L4.72912 19.3213L4.73004 19.3229L4.74286 19.3309L4.75544 19.3389H4.75636L4.76918 19.3469H4.77009L4.78268 19.3533L4.7836 19.3549L4.7971 19.3611L4.80969 19.3691H4.81129L4.82411 19.3753L4.8383 19.3833L4.8518 19.3895H4.85249L4.86599 19.3959H4.86691L4.87973 19.4023H4.8811L4.89392 19.4085H4.89483L4.89643 19.4101L4.92344 19.4211H4.92436L4.93763 19.4272H4.93855L4.95297 19.4321L4.96716 19.4385L4.98135 19.443H4.98226L4.99668 19.4478H4.9976L5.01179 19.4527L5.02667 19.4591H5.02758L5.042 19.4623L5.05688 19.4671H5.0578L5.07199 19.4719L5.08801 19.4751L5.1022 19.4797H5.10312L5.11799 19.4829L5.13401 19.4861L5.14981 19.4893V19.4909L5.16469 19.4925H5.1656L5.18048 19.4957H5.18139L5.1965 19.4989L5.21138 19.5021H5.21229L5.22717 19.5037H5.22809L5.24388 19.5053L5.2599 19.5085L5.27569 19.5101H5.27661L5.30819 19.5133H5.32422L5.34092 19.5149H5.35763L5.37343 19.5165H14.0283L14.0338 19.5149H14.0574L14.0684 19.5133H14.0764C14.0983 19.5117 14.1215 19.5101 14.1434 19.5071V20.2132C14.1395 20.473 14.0327 20.7074 13.8615 20.8784L13.8528 20.888C13.6802 21.0574 13.4426 21.1604 13.1837 21.1604L4.04897 21.1595C3.78621 21.1595 3.54566 21.0519 3.37215 20.8775C3.19866 20.7049 3.08948 20.4641 3.08948 20.2014V12.4119L2.12749 12.3991L2.1279 15.612ZM1.76283 18.7269C1.76283 18.6207 1.85004 18.5321 1.95761 18.5321C2.06518 18.5321 2.15216 18.6207 2.15216 18.7269V21.0514C2.15216 21.3142 2.25996 21.555 2.43414 21.7291C2.60832 21.9017 2.8475 22.0111 3.11207 22.0111C3.21895 22.0111 3.30662 22.0983 3.30662 22.2059C3.30662 22.3121 3.21873 22.4007 3.11207 22.4007C2.74082 22.4007 2.40279 22.2487 2.15875 22.0049C1.91499 21.7593 1.76278 21.4222 1.76278 21.0516L1.76283 18.7269ZM24.8312 22.7234C24.9388 22.7234 25.0257 22.8106 25.0257 22.9182C25.0257 23.0244 24.9388 23.113 24.8312 23.113H10.3568C10.2497 23.113 10.162 23.0244 10.162 22.9182C10.162 22.8106 10.2499 22.7234 10.3568 22.7234H24.8312ZM15.2669 9.87672L15.323 9.88152C16.3168 9.91471 17.2605 10.1507 18.114 10.5464C19.0767 10.9946 19.9238 11.6469 20.6017 12.4466C20.6642 12.5226 20.6617 12.6304 20.5976 12.7016C19.9215 13.5011 19.0751 14.152 18.114 14.5986C17.2605 14.9943 16.3168 15.2303 15.323 15.2653L15.2669 15.2701V18.263L15.2676 18.271V18.2726L15.2685 18.2822V18.2996L15.2694 18.3044L15.2703 18.3076V18.3172L15.2719 18.3252V18.3349L15.2736 18.3397V18.3429L15.2745 18.3509V18.3525L15.2754 18.3605L15.2763 18.3621L15.277 18.3701L15.2779 18.3733L15.2788 18.3781L15.2797 18.3843L15.2806 18.3859L15.2822 18.3955L15.2855 18.4113L15.2864 18.4161L15.2871 18.4209L15.2887 18.4271V18.4287L15.2928 18.4461L15.2937 18.4493L15.2953 18.4541L15.2967 18.4589C15.3372 18.6157 15.4187 18.7567 15.5304 18.8675L15.5391 18.8769C15.6324 18.967 15.7448 19.0368 15.8698 19.0796L15.8714 19.0812H15.8739L15.8778 19.0828L15.881 19.0844L15.8856 19.086C15.9522 19.1066 16.0218 19.1208 16.0941 19.1272H16.1147V19.1288H16.1609L24.7437 19.1272H24.7792L24.7902 19.1256H24.8124L24.8243 19.124L24.8353 19.1224L24.8465 19.1208H24.8586L24.8689 19.1192H24.8699L24.8799 19.1176H24.8808L24.8911 19.116H24.8921L24.9024 19.1128H24.9033L24.9239 19.1096H24.9248L24.9349 19.1064L24.9461 19.1048L24.9573 19.1016L24.9779 19.0952L24.9891 19.0936L24.9992 19.0904H25.0001L25.0097 19.0872L25.0209 19.084L25.0305 19.0808L25.0415 19.076L25.0511 19.0728H25.052L25.0623 19.0696L25.0717 19.0648L25.082 19.06L25.0923 19.0567L25.1116 19.0471H25.1125L25.1221 19.0423H25.123L25.1807 19.0135L25.1901 19.0071L25.1997 19.0023L25.2084 18.9975H25.2091L25.2171 18.9913L25.2267 18.9849L25.2363 18.9801L25.2443 18.9739H25.2452L25.2626 18.9615H25.2635L25.2715 18.9551L25.2889 18.9428L25.305 18.9304H25.3059L25.3139 18.9224H25.3148L25.3308 18.91L25.3388 18.902L25.3468 18.8958L25.3551 18.8878L25.3631 18.8817L25.3711 18.8736L25.3782 18.8656H25.3791L25.3853 18.8576H25.3862L25.3933 18.8512L25.4006 18.8432H25.4015L25.4077 18.8352L25.4157 18.8272L25.4219 18.8176L25.429 18.8096H25.4299L25.4363 18.8015L25.4425 18.7935L25.4496 18.7855V18.7839L25.4567 18.7759L25.4631 18.7679L25.4693 18.7585L25.4821 18.7411L25.505 18.7063V18.7047C25.5185 18.6841 25.5311 18.6619 25.5423 18.6397L25.5615 18.6017V18.6001L25.5661 18.5905L25.57 18.5809L25.5787 18.5603L25.5819 18.5507L25.5865 18.5397L25.5897 18.5303L25.5927 18.5209V18.5193L25.5968 18.5099L25.6 18.4987L25.603 18.4893L25.6094 18.4674L25.6117 18.458V18.4564L25.6149 18.4468L25.6174 18.4358L25.6197 18.4248L25.6222 18.4138L25.6247 18.4042V18.4026L25.6263 18.393L25.6288 18.382L25.6302 18.371L25.6334 18.349L25.6343 18.3381L25.6359 18.3268L25.6375 18.3159V18.3046L25.6382 18.303L25.6391 18.292V18.2811L25.64 18.2701H25.641V18.2353L25.6355 7.00931V6.90952C25.6355 6.66416 25.535 6.44237 25.3743 6.28081C25.2129 6.11922 24.9896 6.01782 24.744 6.01782L16.1582 6.01805C15.9129 6.01805 15.6897 6.11784 15.5281 6.27943C15.3713 6.43781 15.2715 6.65479 15.2669 6.89373L15.2669 9.87672Z" fill="black"/>
</svg>
