<svg width="30" height="30" viewBox="0 0 30 30" fill="none" xmlns="http://www.w3.org/2000/svg">
<path d="M28.836 26.7341H5.23854C5.51435 26.6768 6.85696 26.2829 14.7747 24.0607L16.191 23.0035C14.7246 21.381 10.2683 23.9888 10.031 24.0818C9.43069 24.2436 8.5795 24.9597 8.29931 24.2774C8.19906 24.0337 8.31556 23.7549 8.55932 23.6549C11.1129 22.5295 15.5425 20.0628 17.1245 22.6648C17.1264 22.6652 17.128 22.6645 17.1296 22.665L21.517 23.7275C21.7731 23.7895 21.9306 24.0472 21.8684 24.3033C21.8054 24.5629 21.5434 24.7167 21.2925 24.6547L16.9751 23.6091L16.0573 24.2942L24.2422 26.591C25.0339 26.9563 25.9451 26.593 26.2955 25.8352C26.6578 25.0522 26.3164 24.1351 25.5409 23.7769L19.3493 20.9191H10.6516L4.45945 23.7771C3.6808 24.1369 3.34459 25.057 3.70347 25.8322C3.95684 26.3806 4.50732 26.7327 5.10791 26.7341H1.16449C0.901045 26.7341 0.6875 26.9476 0.6875 27.211C0.6875 27.4745 0.901045 27.688 1.16449 27.688H28.836C29.0994 27.688 29.313 27.4745 29.313 27.211C29.313 26.9476 29.0995 26.7341 28.836 26.7341Z" fill="black"/>
<path d="M14.9993 8.06611C16.5864 8.06611 17.8775 6.77775 17.8775 5.19384C17.8775 4.2053 17.3937 3.27741 16.4566 2.72054C15.5585 2.18633 14.3857 2.19228 13.4967 2.74434C12.6338 3.26848 12.1211 4.18335 12.1211 5.19385C12.1211 6.77747 13.412 8.06612 14.9993 8.06612L14.9993 8.06611Z" fill="black"/>
<path d="M5.63169 18.5438L9.00722 16.0003L9.78288 14.5698V12.8969C9.78288 12.6334 9.99642 12.4199 10.2599 12.4199C10.5233 12.4199 10.7369 12.6334 10.7369 12.8969V14.5077C10.7506 14.5524 10.7604 14.5986 10.7604 14.6473V19.9627H19.2366V12.8969C19.2366 12.6334 19.4501 12.4199 19.7136 12.4199C19.977 12.4199 20.1906 12.6334 20.1906 12.8969V14.4849L21.0136 16.0003L24.3722 18.5344C24.8051 18.8608 25.4592 18.7672 25.7842 18.3367C26.1125 17.9016 26.0307 17.2735 25.602 16.9368C21.2789 13.48 22.5567 15.0032 20.9612 11.9804C19.8768 9.89597 19.1244 9.02416 17.2705 9.02234L12.5947 9.01776C10.755 9.01776 10.05 9.91407 8.97905 11.817C7.22856 14.8975 7.36339 14.7505 7.221 14.8577L4.43505 16.9565C3.99582 17.2875 3.90908 17.9102 4.23981 18.3488C4.56002 18.7725 5.2046 18.8656 5.63169 18.5438Z" fill="black"/>
</svg>
