<svg width="16" height="15" viewBox="0 0 16 15" fill="none" xmlns="http://www.w3.org/2000/svg">
<path d="M7.27772 0.684364C7.56154 -0.22812 8.79734 -0.228122 9.08117 0.684361L10.2017 4.2868C10.3286 4.69487 10.6927 4.97116 11.1034 4.97116H14.7295C15.648 4.97116 16.0299 6.1989 15.2868 6.76285L12.3532 8.98928C12.0209 9.24148 11.8819 9.68852 12.0088 10.0966L13.1293 13.699C13.4131 14.6115 12.4134 15.3703 11.6703 14.8064L8.73674 12.5799C8.40443 12.3277 7.95445 12.3277 7.62215 12.5799L4.68858 14.8064C3.94552 15.3703 2.94574 14.6115 3.22956 13.699L4.35009 10.0966C4.47702 9.68852 4.33796 9.24148 4.00566 8.98928L1.07209 6.76285C0.329033 6.1989 0.710914 4.97116 1.62939 4.97116H5.25547C5.66623 4.97116 6.03027 4.69487 6.1572 4.2868L7.27772 0.684364Z" fill="#49DADD"/>
</svg>
