<svg width="30" height="30" viewBox="0 0 30 30" fill="none" xmlns="http://www.w3.org/2000/svg">
<mask id="mask0_168_149" style="mask-type:luminance" maskUnits="userSpaceOnUse" x="2" y="0" width="26" height="30">
<path d="M2.16797 0.239655H27.832V29.7598H2.16797V0.239655Z" fill="white"/>
</mask>
<g mask="url(#mask0_168_149)">
<path d="M15.9841 0.239655C13.5669 0.246292 11.2092 0.991295 9.22707 2.37534C7.24519 3.75938 5.73365 5.71612 4.895 7.98317C4.76659 8.34938 4.74851 8.74512 4.84327 9.12118C4.93803 9.49746 5.14127 9.83737 5.42784 10.099C5.44615 10.1162 5.45645 10.1402 5.45645 10.1654C5.45622 10.1818 5.45095 10.1981 5.44111 10.2116L2.39722 14.4196C2.25372 14.6162 2.18826 14.859 2.2132 15.1012C2.23838 15.3431 2.35236 15.5674 2.53295 15.7304C2.71377 15.8933 2.94837 15.9837 3.1919 15.9837H3.82635C3.93438 16.4587 3.93072 16.9524 3.81559 17.4257C3.7618 17.6621 3.79843 17.9102 3.9179 18.1212C4.03738 18.3323 4.23124 18.4911 4.46172 18.5666L4.74325 18.6577H4.74302C4.55877 18.8424 4.45577 19.0931 4.45715 19.3538C4.45531 19.6804 4.61828 19.9857 4.89065 20.1656C4.92704 20.1876 4.94947 20.2269 4.94924 20.2695C4.94901 20.3059 4.93162 20.34 4.90255 20.3615C4.36307 20.8017 4.09507 21.4933 4.19737 22.1818C4.28137 22.6569 4.53199 23.0865 4.90436 23.3935C5.27676 23.7002 5.74641 23.8641 6.22888 23.8556H9.09587C9.48726 23.8556 9.86263 24.0113 10.1395 24.288C10.4163 24.5647 10.5717 24.9403 10.5717 25.3316V28.7756C10.5717 29.0365 10.6754 29.2869 10.8601 29.4714C11.0445 29.6559 11.2947 29.7596 11.5559 29.7596H23.3637C23.6333 29.76 23.8912 29.6495 24.0773 29.4542C24.2634 29.259 24.3612 28.9958 24.3477 28.7264L23.965 20.7448H23.9647C25.718 19.1373 26.9445 17.0378 27.4838 14.7213C28.0233 12.4048 27.8503 9.97933 26.9876 7.76273C26.1247 5.54601 24.6125 3.64195 22.6489 2.29956C20.6853 0.95718 18.3622 0.239172 15.9839 0.239875L15.9841 0.239655ZM23.1378 20.1656C23.1335 20.1695 23.1319 20.1759 23.1275 20.1803V20.1805C22.5759 20.6673 21.9756 21.096 21.3361 21.4597C21.0999 21.5941 21.0175 21.8946 21.152 22.1308C21.2866 22.3668 21.5869 22.4492 21.8231 22.3148C22.2379 22.0761 22.6375 21.8122 23.0197 21.5245L23.3642 28.7755H11.5564V25.3315C11.5545 24.7975 11.3772 24.2789 11.0515 23.8555H14.5575C15.6007 23.8525 16.6009 23.4385 17.3407 22.7028L17.8081 22.2355C17.9772 22.0407 17.9674 21.7484 17.7856 21.5655C17.6037 21.3828 17.3114 21.3714 17.1159 21.5396L16.6485 22.007C16.0926 22.5595 15.3412 22.8701 14.5574 22.8715H6.2295C5.98299 22.8809 5.7413 22.8024 5.54741 22.6499C5.35355 22.4973 5.22034 22.2808 5.17158 22.039C5.12031 21.6934 5.25398 21.3462 5.52383 21.1245C5.79712 20.9047 5.94886 20.5676 5.93216 20.2174C5.91568 19.8672 5.73258 19.5461 5.43984 19.3532C5.67994 19.1119 5.77835 18.7636 5.69985 18.4321C5.62134 18.1007 5.37712 17.8336 5.05414 17.7255L4.77605 17.642C4.90216 17.1021 4.92002 16.5427 4.82915 15.9959C5.16859 16.0222 5.46935 16.2243 5.62175 16.5287L5.70529 16.696L5.70552 16.6958C5.7632 16.8137 5.86551 16.9036 5.9898 16.9455C6.11408 16.9874 6.24981 16.9782 6.36722 16.9194C6.48441 16.8608 6.57344 16.7578 6.61465 16.6333C6.65562 16.5088 6.64509 16.3728 6.58558 16.2561L6.50249 16.0888C6.34044 15.761 6.08982 15.485 5.77874 15.2925C5.46792 15.1 5.10925 14.9984 4.74351 14.9995H3.19235L6.24269 10.7831C6.37246 10.6025 6.4425 10.3855 6.4425 10.163C6.44205 9.86229 6.31593 9.57505 6.0946 9.37132C5.95109 9.24246 5.84856 9.074 5.80003 8.88701C5.75151 8.70024 5.75884 8.50317 5.82155 8.32052C6.57963 6.24912 7.95243 4.45908 9.756 3.18947C11.5596 1.92009 13.7081 1.23185 15.9136 1.21697C18.1191 1.20232 20.2768 1.86173 22.097 3.10685C23.9175 4.3522 25.3142 6.12373 26.0999 8.18482C26.8857 10.2457 27.023 12.4974 26.4936 14.6383C25.9644 16.7795 24.7934 18.7078 23.1379 20.1651L23.1378 20.1656Z" fill="#148BAF"/>
</g>
<path d="M21.946 5.58749C21.8103 4.85144 21.3629 4.21007 20.7188 3.82898C20.0745 3.44789 19.297 3.36435 18.5865 3.59986C18.0349 2.73789 17.0805 2.21811 16.0571 2.22221C15.2316 2.22495 14.4431 2.56462 13.8736 3.16246C13.6323 3.0899 13.3817 3.05328 13.1297 3.0542C12.6017 3.05443 12.0862 3.21624 11.6525 3.51791C11.219 3.81958 10.8881 4.24647 10.7043 4.74176C10.1957 4.82119 9.73218 5.07936 9.39667 5.46985C9.06136 5.86032 8.87597 6.35743 8.8739 6.872C8.8739 6.91274 8.8739 6.95371 8.87825 6.99491L8.87848 6.99514C8.37494 7.22425 7.97919 7.63873 7.77346 8.15236C7.5677 8.66575 7.5677 9.23887 7.77346 9.75227C7.97923 10.2659 8.37499 10.6802 8.87848 10.9095C8.87551 10.9502 8.87413 10.9917 8.87413 11.0324H8.8739C8.87345 11.628 9.1195 12.1972 9.55371 12.6048C9.9879 13.0125 10.5713 13.2221 11.1657 13.1839C11.3406 13.5574 11.6182 13.8735 11.9659 14.0953C12.3138 14.3169 12.7173 14.4352 13.1297 14.4361C13.5259 14.4377 13.9146 14.3295 14.2531 14.1237C14.7363 14.5904 15.382 14.8513 16.0537 14.8513C16.8303 15.3846 17.3096 16.253 17.3462 17.1944V17.4059C17.3462 17.9533 17.6383 18.4594 18.1125 18.7331C18.5867 19.0069 19.1708 19.0069 19.6451 18.7331C20.1193 18.4594 20.4114 17.9533 20.4114 17.4059V15.9298C20.5732 15.9648 20.738 15.9829 20.9035 15.9841C21.5555 15.9832 22.1809 15.7238 22.6421 15.2627C23.1033 14.8015 23.3626 14.1762 23.3635 13.5241V13.4595C23.7846 13.083 24.04 12.5557 24.0748 11.9919C24.5956 11.6829 24.9906 11.2 25.1899 10.6283C25.3893 10.0565 25.3804 9.43284 25.1645 8.867C24.9489 8.30121 24.5404 7.82972 24.0108 7.53581C23.8947 7.04486 23.6372 6.59855 23.2703 6.25249C22.9032 5.90619 22.4429 5.67502 21.946 5.58757L21.946 5.58749ZM19.2666 17.7891C19.11 17.9449 18.8752 17.9914 18.671 17.9074C18.4668 17.8232 18.333 17.6247 18.3318 17.4038V17.1921C18.3053 16.2093 17.9123 15.2718 17.2297 14.5639C17.5728 14.3879 17.8729 14.1382 18.1079 13.8324C18.2301 13.8851 18.3574 13.9256 18.4876 13.9533C18.5968 14.5646 18.9323 15.1121 19.4274 15.487V17.4057C19.4265 17.5504 19.3688 17.6889 19.2665 17.7909L19.2666 17.7891ZM20.9035 14.9999C20.5859 14.9992 20.2769 14.8962 20.0226 14.706C19.7683 14.516 19.582 14.2489 19.4914 13.9445C19.847 13.8642 20.1762 13.6948 20.4483 13.4524C20.8482 13.8182 21.3702 14.0207 21.912 14.0207C22.042 14.0198 22.1715 14.0072 22.2993 13.9827C22.2034 14.2778 22.0166 14.5348 21.766 14.7172C21.5153 14.8999 21.2135 14.9987 20.9035 14.9999ZM24.3475 9.78456C24.3473 10.0952 24.256 10.3989 24.0845 10.658C23.9129 10.9171 23.6691 11.1198 23.3832 11.2414C23.1891 11.3268 23.0706 11.5259 23.088 11.7374C23.0909 11.7792 23.0948 11.8234 23.0948 11.8649V11.8646C23.093 12.2155 22.9351 12.5474 22.6643 12.7703C22.3933 12.9932 22.0374 13.0841 21.6927 13.0182C21.3482 12.9525 21.0507 12.7369 20.8809 12.43C20.7866 12.2833 20.6243 12.1947 20.4499 12.1947C20.2755 12.1947 20.113 12.2833 20.0189 12.43C19.9168 12.6144 19.7669 12.768 19.5852 12.8749C19.4034 12.9818 19.1965 13.0376 18.9858 13.0372C18.7271 13.0388 18.4754 12.9536 18.2707 12.7955C18.1549 12.6927 17.9977 12.6504 17.8457 12.6813C17.694 12.712 17.5658 12.8127 17.4994 12.9525C17.3717 13.2272 17.168 13.4595 16.9125 13.6218C16.6569 13.784 16.36 13.8694 16.0572 13.8683C15.5257 13.8692 15.0283 13.6071 14.7287 13.1681C14.6457 13.0461 14.5122 12.9679 14.3653 12.955C14.3509 12.9544 14.3364 12.9544 14.322 12.955C14.1895 12.9548 14.0625 13.0079 13.9698 13.1027C13.7491 13.3288 13.4461 13.4554 13.1302 13.4533C12.8611 13.4535 12.5997 13.3615 12.39 13.1928C12.1801 13.0239 12.0343 12.7886 11.9767 12.5254C11.9487 12.3922 11.8668 12.2764 11.7503 12.2057C11.6333 12.1356 11.4928 12.1164 11.3617 12.153C11.0076 12.2633 10.6224 12.1974 10.3251 11.9761C10.0278 11.7548 9.85427 11.4043 9.85862 11.0338C9.86068 10.926 9.87807 10.8189 9.91012 10.7159C9.94788 10.5845 9.92934 10.443 9.85862 10.3259C9.7879 10.2089 9.67162 10.1263 9.53773 10.0984C9.18342 10.0258 8.88265 9.79303 8.72316 9.46824C8.56385 9.14345 8.56385 8.7633 8.72316 8.43851C8.88269 8.11373 9.18344 7.88096 9.53773 7.80816C9.67162 7.78024 9.78789 7.69784 9.85862 7.58065C9.92935 7.46346 9.94788 7.32224 9.91012 7.19064C9.87807 7.08787 9.86068 6.98098 9.85862 6.87341C9.86068 6.56556 9.9829 6.27053 10.1994 6.05151C10.4159 5.83249 10.7094 5.70682 11.0172 5.70086C11.2736 5.73451 11.5123 5.56377 11.5633 5.31039C11.6379 4.95013 11.8346 4.62672 12.12 4.39439C12.4052 4.16231 12.762 4.03573 13.1298 4.03596C13.3662 4.03482 13.5997 4.08677 13.8132 4.18794C14.0258 4.28911 14.2804 4.22548 14.4204 4.03596C14.8038 3.51549 15.4108 3.20698 16.0572 3.20399C16.4525 3.20193 16.8393 3.3166 17.1695 3.53404C17.4996 3.75124 17.758 4.06138 17.912 4.42531C17.9667 4.55508 18.0743 4.65511 18.2077 4.70019C18.3412 4.74551 18.4874 4.73132 18.6097 4.66128C19.1031 4.3809 19.7081 4.38251 20.1999 4.66586C20.6918 4.94899 20.9969 5.47153 21.002 6.03895C21.002 6.16941 21.0537 6.29461 21.1459 6.38685C21.2382 6.47909 21.3634 6.53104 21.4938 6.53104C21.8827 6.5299 22.2588 6.67089 22.5508 6.92769C22.8431 7.18427 23.0312 7.53906 23.08 7.92496C23.101 8.09937 23.2137 8.24951 23.3753 8.3184C23.663 8.44085 23.9083 8.64524 24.0811 8.90569C24.2539 9.16638 24.3466 9.47191 24.3475 9.78456Z" fill="#148BAF"/>
<path d="M18.1029 9.7248C17.5313 10.2686 16.7724 10.5719 15.9834 10.5719C15.1942 10.5719 14.4355 10.2686 13.8637 9.7248C13.6676 9.53666 13.3561 9.5433 13.1681 9.73945C12.98 9.9356 12.9866 10.2471 13.1828 10.4353C13.9377 11.1546 14.9406 11.5561 15.9834 11.5561C17.0262 11.5561 18.0289 11.1546 18.7838 10.4353C18.9799 10.2471 18.9866 9.9356 18.7986 9.73945C18.6105 9.5433 18.299 9.53666 18.1029 9.7248Z" fill="#148BAF"/>
<path d="M13.7699 7.12793C14.1773 7.12793 14.5079 7.45844 14.5079 7.8661C14.5079 8.13778 14.728 8.35796 15 8.35796C15.2716 8.35796 15.4918 8.13778 15.4918 7.8661C15.4918 7.25086 15.1636 6.68233 14.6308 6.37471C14.0982 6.06709 13.4417 6.06709 12.9089 6.37471C12.376 6.68233 12.0479 7.25086 12.0479 7.8661C12.0479 8.13778 12.268 8.35796 12.5399 8.35796C12.8116 8.35796 13.0318 8.13778 13.0318 7.8661C13.0318 7.45846 13.3623 7.12793 13.7699 7.12793Z" fill="#148BAF"/>
<path d="M18.1977 6.14413C17.7411 6.14413 17.303 6.32564 16.98 6.64859C16.6571 6.97154 16.4756 7.40937 16.4756 7.86623C16.4756 8.13791 16.696 8.35809 16.9677 8.35809C17.2394 8.35809 17.4598 8.13791 17.4598 7.86623C17.4598 7.45859 17.79 7.12806 18.1977 7.12806C18.6054 7.12806 18.9356 7.45857 18.9356 7.86623C18.9356 8.13791 19.156 8.35809 19.4277 8.35809C19.6994 8.35809 19.9196 8.13791 19.9196 7.86623C19.9196 7.40938 19.7383 6.9715 19.4154 6.64859C19.0924 6.32564 18.6543 6.14413 18.1977 6.14413Z" fill="#148BAF"/>
</svg>
