<svg width="30" height="30" viewBox="0 0 30 30" fill="none" xmlns="http://www.w3.org/2000/svg">
<path d="M23.0803 7.92599C23.0316 7.54009 22.8434 7.18554 22.5512 6.92872C22.2591 6.67192 21.8831 6.53092 21.4942 6.53207C21.2225 6.53207 21.0023 6.31189 21.0023 6.03998C20.9973 5.47258 20.6922 4.95002 20.2003 4.66689C19.7084 4.38377 19.1035 4.38193 18.61 4.66254C18.4878 4.73235 18.3415 4.74654 18.2081 4.70145C18.0747 4.65613 17.9671 4.55611 17.9124 4.42634C17.7583 4.06242 17.4999 3.75227 17.1699 3.53507C16.8396 3.31763 16.4528 3.20296 16.0575 3.20525C15.4112 3.208 14.8042 3.51653 14.4208 4.03722C14.2807 4.22651 14.0262 4.29036 13.8136 4.1892C13.6 4.08758 13.3666 4.03539 13.1301 4.03608C12.7628 4.03562 12.4064 4.16196 12.121 4.39337C11.8356 4.62499 11.6389 4.94772 11.5636 5.30755C11.5126 5.56092 11.2739 5.73166 11.0175 5.69825C10.7092 5.70374 10.4156 5.82963 10.1988 6.04913C9.98228 6.2684 9.86006 6.56388 9.85822 6.87196C9.86051 6.97976 9.87791 7.08665 9.90995 7.18942C9.94772 7.3208 9.92918 7.46202 9.85868 7.57897C9.78819 7.69616 9.67237 7.77879 9.53848 7.80694C9.18417 7.8795 8.8834 8.11227 8.72414 8.43706C8.56461 8.76184 8.56461 9.14223 8.72414 9.46702C8.88345 9.7918 9.1842 10.0243 9.53848 10.0971C9.67238 10.1251 9.78864 10.2075 9.85937 10.3246C9.9301 10.4418 9.94863 10.5831 9.91087 10.7147C9.87883 10.8177 9.86143 10.9245 9.85937 11.0323C9.85525 11.4031 10.0285 11.7533 10.3258 11.9746C10.6231 12.1962 11.0083 12.2619 11.3624 12.1518C11.4936 12.1152 11.6341 12.1342 11.7511 12.2044C11.8676 12.2749 11.9495 12.3908 11.9774 12.5242C12.0351 12.7869 12.1807 13.0225 12.3903 13.1912C12.6 13.3599 12.8609 13.4519 13.1301 13.4521C13.4459 13.4541 13.7489 13.3276 13.9694 13.1012C14.0623 13.0067 14.1893 12.9534 14.3216 12.9536C14.3363 12.9529 14.3507 12.9529 14.3651 12.9536C14.512 12.9666 14.6455 13.0447 14.7286 13.1667C15.0282 13.6057 15.5256 13.868 16.057 13.8668C16.3596 13.868 16.6562 13.7823 16.9117 13.6198C17.1671 13.4576 17.3706 13.2253 17.4981 12.9508C17.5644 12.8107 17.6928 12.7103 17.8446 12.6794C17.9963 12.6485 18.1538 12.6908 18.2696 12.7938C18.4742 12.9517 18.7258 13.0369 18.9844 13.0353C19.1952 13.036 19.4023 12.9799 19.5841 12.873C19.7658 12.7663 19.9155 12.6125 20.0176 12.4283C20.1119 12.2816 20.2741 12.1928 20.4485 12.1928C20.6229 12.1928 20.7855 12.2816 20.8795 12.4283C21.0494 12.7352 21.3469 12.9508 21.6916 13.0165C22.036 13.0822 22.3922 12.9913 22.6629 12.7684C22.9339 12.5455 23.0916 12.2138 23.0935 11.863C23.0935 11.8215 23.0896 11.7774 23.0866 11.7355C23.0694 11.5242 23.1878 11.3251 23.3819 11.2395C23.7666 11.0758 24.071 10.7666 24.229 10.3796C24.3871 9.99229 24.3855 9.55831 24.2253 9.17223C24.0648 8.78611 23.7584 8.47895 23.3725 8.31758C23.2125 8.248 23.1015 8.099 23.0802 7.92597L23.0803 7.92599ZM12.5399 8.35789C12.268 8.35789 12.0478 8.1377 12.0478 7.86602C12.0478 7.25079 12.376 6.68225 12.9089 6.37463C13.4417 6.06702 14.0981 6.06702 14.6307 6.37463C15.1636 6.68225 15.4918 7.25079 15.4918 7.86602C15.4918 8.1377 15.2716 8.35789 14.9999 8.35789C14.728 8.35789 14.5078 8.1377 14.5078 7.86602C14.5078 7.45839 14.1773 7.12786 13.7699 7.12786C13.3623 7.12786 13.0317 7.45836 13.0317 7.86602C13.0317 7.99649 12.98 8.12146 12.8878 8.21392C12.7955 8.30616 12.6704 8.35789 12.5399 8.35789ZM18.784 10.4352C18.0292 11.1546 17.0264 11.5561 15.9836 11.5561C14.9409 11.5561 13.9379 11.1546 13.183 10.4352C12.9869 10.2471 12.9803 9.93556 13.1684 9.73941C13.3563 9.54326 13.6678 9.53662 13.864 9.72476C14.4357 10.2686 15.1944 10.5719 15.9836 10.5719C16.7726 10.5719 17.5316 10.2686 18.1031 9.72476C18.2993 9.53662 18.6108 9.54326 18.7989 9.73941C18.9868 9.93556 18.9802 10.2471 18.784 10.4352ZM19.4276 8.35789C19.1559 8.35789 18.9355 8.1377 18.9355 7.86602C18.9355 7.45839 18.6052 7.12786 18.1976 7.12786C17.7899 7.12786 17.4597 7.45836 17.4597 7.86602C17.4597 8.1377 17.2392 8.35789 16.9676 8.35789C16.6959 8.35789 16.4755 8.1377 16.4755 7.86602C16.4755 7.25079 16.8037 6.68225 17.3365 6.37463C17.8693 6.06702 18.5258 6.06702 19.0586 6.37463C19.5915 6.68225 19.9194 7.25079 19.9194 7.86602C19.9194 7.99649 19.8677 8.12146 19.7755 8.21392C19.6832 8.30616 19.5581 8.35789 19.4276 8.35789Z" fill="black"/>
<path d="M18.4867 13.9553C18.3562 13.9276 18.2292 13.8871 18.1067 13.8342C17.8717 14.14 17.5718 14.3899 17.2285 14.5659C17.911 15.2736 18.3042 16.2111 18.3306 17.1941V17.4056C18.3306 17.7087 18.5762 17.9543 18.8792 17.9543C19.1823 17.9543 19.4279 17.7087 19.4279 17.4056V15.4869C18.9328 15.1127 18.5968 14.5659 18.4867 13.9552L18.4867 13.9553Z" fill="black"/>
<path d="M20.4482 13.452C20.176 13.6943 19.8469 13.8637 19.4912 13.9441C19.61 14.3485 19.8968 14.6826 20.2786 14.8614C20.6606 15.0399 21.1007 15.0459 21.4873 14.8777C21.8739 14.7094 22.1696 14.383 22.2991 13.9818C22.1714 14.0063 22.0419 14.0189 21.9119 14.0198C21.3703 14.02 20.848 13.8175 20.4482 13.452Z" fill="black"/>
<path d="M15.9835 1.22403C13.7678 1.22952 11.6067 1.91251 9.7896 3.18094C7.97273 4.44938 6.58734 6.24294 5.81853 8.3212C5.75604 8.50385 5.74849 8.70092 5.79701 8.88768C5.84553 9.07468 5.94807 9.24314 6.09158 9.37199C6.31268 9.57593 6.43857 9.86295 6.43857 10.1637C6.43857 10.3862 6.36876 10.6032 6.23875 10.7838L3.19141 15.0002H4.74115C5.10599 15 5.46373 15.1016 5.7741 15.2934C6.08447 15.4852 6.33532 15.7596 6.4985 16.086L6.58318 16.2563C6.64269 16.373 6.65299 16.5088 6.61202 16.6335C6.57105 16.758 6.48201 16.861 6.3646 16.9196C6.24741 16.9782 6.11145 16.9876 5.98717 16.9457C5.86289 16.9036 5.76058 16.8139 5.7029 16.696L5.61936 16.5287C5.46669 16.2245 5.16594 16.0224 4.82676 15.9958C4.91762 16.5428 4.89954 17.1023 4.77366 17.6422L5.05175 17.7257H5.05152C5.37447 17.8338 5.61892 18.1009 5.6974 18.4323C5.7759 18.7635 5.67749 19.1121 5.43716 19.3534C5.73013 19.5463 5.91301 19.8674 5.92971 20.2176C5.94619 20.5678 5.79467 20.9049 5.52138 21.1246C5.25153 21.3464 5.11787 21.6936 5.16913 22.0392C5.21789 22.2814 5.3511 22.4981 5.54542 22.6508C5.73951 22.8035 5.98167 22.882 6.22839 22.8722H14.5563C15.3391 22.8722 16.0898 22.5611 16.6435 22.0077L17.1109 21.5403C17.3038 21.3538 17.6107 21.3565 17.8005 21.5462C17.9903 21.736 17.993 22.0429 17.8065 22.2361L17.3395 22.703C16.6014 23.4411 15.6002 23.8561 14.5563 23.8561H11.0513C11.3765 24.2795 11.5537 24.7982 11.5553 25.3321V28.2843V28.284C11.5553 28.4147 11.607 28.5397 11.6992 28.6319C11.7915 28.7244 11.9167 28.7761 12.0471 28.7761H22.8471C22.9817 28.7764 23.1106 28.7212 23.2035 28.6237C23.2966 28.5264 23.3456 28.3951 23.339 28.2605L23.0188 21.5251C22.6372 21.8131 22.2386 22.077 21.8247 22.3159C21.7112 22.3804 21.5768 22.3974 21.4509 22.3628C21.3251 22.3283 21.2182 22.2452 21.1536 22.1319C21.019 21.8957 21.1014 21.5954 21.3376 21.4608C21.9771 21.0971 22.5775 20.6684 23.1289 20.1816C23.1332 20.1772 23.1348 20.1708 23.1392 20.1669L23.1394 20.1667C24.7903 18.7138 25.9594 16.7921 26.4907 14.6577C27.0219 12.5234 26.8901 10.2778 26.1128 8.22061C25.3355 6.16321 23.9496 4.39139 22.1398 3.14147C20.33 1.89155 18.1825 1.22276 15.9834 1.22434L15.9835 1.22403ZM25.3316 9.78516C25.3323 10.692 24.8537 11.5318 24.073 11.9932C24.0387 12.5565 23.7837 13.0833 23.3637 13.4599V13.5244C23.3628 14.1765 23.1035 14.8018 22.6423 15.263C22.1811 15.7242 21.5558 15.9835 20.9037 15.9844C20.7382 15.9828 20.5732 15.9638 20.4116 15.9283V17.4044C20.4116 17.9519 20.1196 18.4577 19.6453 18.7314C19.1711 19.0051 18.587 19.0051 18.1128 18.7314C17.6385 18.4577 17.3465 17.9518 17.3465 17.4044V17.1927C17.3089 16.2524 16.8299 15.3852 16.054 14.8528C15.3822 14.8525 14.7365 14.5919 14.2534 14.1252C13.9149 14.3309 13.5262 14.439 13.13 14.4374C12.7176 14.4364 12.314 14.3183 11.9662 14.0965C11.6185 13.8748 11.3408 13.5589 11.166 13.1854C10.5716 13.2234 9.98815 13.0137 9.55397 12.6061C9.11979 12.1984 8.87376 11.6294 8.87417 11.0339C8.87417 10.9931 8.87417 10.9517 8.87852 10.911L8.87875 10.9107C8.3752 10.6816 7.97945 10.2671 7.77373 9.7535C7.56796 9.24012 7.56796 8.667 7.77373 8.1536C7.97949 7.63999 8.37525 7.22571 8.87875 6.99637C8.87577 6.95495 8.8744 6.91421 8.8744 6.87346H8.87417C8.87623 6.3587 9.06162 5.86155 9.39694 5.47108C9.73248 5.0806 10.196 4.82268 10.7045 4.74299C10.8878 4.24724 11.2186 3.81967 11.6521 3.51733C12.0858 3.21521 12.6015 3.05293 13.13 3.05247C13.382 3.05178 13.6326 3.08818 13.8738 3.16073C14.4433 2.5629 15.2318 2.22323 16.0574 2.22048C17.0807 2.21659 18.0352 2.73615 18.5868 3.59813C19.2972 3.36262 20.0748 3.44615 20.7191 3.82725C21.3631 4.20856 21.8106 4.84965 21.9463 5.58576C22.4428 5.67365 22.9028 5.90482 23.2695 6.2511C23.6359 6.5974 23.8932 7.04346 24.0092 7.53418C24.41 7.7578 24.7437 8.08418 24.9762 8.47994C25.2088 8.8757 25.3315 9.3261 25.3317 9.785L25.3316 9.78516Z" fill="black"/>
</svg>
