<svg width="15" height="15" viewBox="0 0 15 15" fill="none" xmlns="http://www.w3.org/2000/svg">
<path d="M7.07617 0.833008C7.2056 0.416909 7.71642 0.390772 7.89355 0.754883L7.92383 0.833008L9.04492 4.43555C9.23332 5.04086 9.78233 5.47064 10.4238 5.4707H14.0498C14.2539 5.4707 14.4108 5.59882 14.4746 5.80371C14.5307 5.98415 14.497 6.17352 14.3672 6.30957L14.3047 6.36426L11.3711 8.59082C10.8973 8.95051 10.6907 9.56062 10.8213 10.1318L10.8516 10.2451L11.9727 13.8477C12.0471 14.0871 11.9559 14.2919 11.8027 14.4082C11.6715 14.5076 11.5117 14.533 11.3584 14.4502L11.293 14.4082L8.35938 12.1816C7.88034 11.8182 7.23775 11.7952 6.73828 12.1133L6.64062 12.1816L3.70703 14.4082C3.53483 14.5389 3.34723 14.5218 3.19727 14.4082C3.06317 14.3064 2.97634 14.1368 3.00684 13.9355L3.02734 13.8477L4.14844 10.2451C4.32407 9.68035 4.15763 9.05766 3.71973 8.66602L3.62891 8.59082L0.695312 6.36426C0.515064 6.22746 0.461205 6.01007 0.525391 5.80371C0.589202 5.59882 0.746068 5.4707 0.950195 5.4707H4.57617C5.17764 5.47064 5.69816 5.093 5.91602 4.54688L5.95508 4.43555L7.07617 0.833008Z" fill="#148BAF" stroke="url(#paint0_linear_428_226)"/>
<defs>
<linearGradient id="paint0_linear_428_226" x1="7.5" y1="0" x2="7.5" y2="15" gradientUnits="userSpaceOnUse">
<stop stop-color="#49DAEA"/>
<stop offset="1" stop-color="#C4FEFF" stop-opacity="0.2"/>
</linearGradient>
</defs>
</svg>
