<svg width="30" height="30" viewBox="0 0 30 30" fill="none" xmlns="http://www.w3.org/2000/svg">
<path d="M14.7642 9.1254H10.8675C10.1591 9.1254 9.59814 9.68639 9.59814 10.3948V11.9299C9.59814 12.2251 9.71624 12.5204 9.92293 12.7563L9.39146 13.6714C9.36194 13.7304 9.36194 13.7895 9.42099 13.8485C9.45052 13.8781 9.50957 13.8781 9.53909 13.8485L10.8675 13.1992H14.7642C15.4726 13.1992 16.0336 12.6382 16.0336 11.9298V10.3947C16.0336 9.68611 15.4431 9.1254 14.7642 9.1254Z" fill="black"/>
<path d="M8.41754 15.0885C8.41754 16.0013 7.67732 16.7415 6.76455 16.7415C5.85154 16.7415 5.11133 16.0013 5.11133 15.0885C5.11133 14.1755 5.85154 13.4353 6.76455 13.4353C7.67732 13.4353 8.41754 14.1755 8.41754 15.0885Z" fill="black"/>
<path d="M8.97832 21.0223C9.15547 21.1699 9.39168 21.1699 9.56883 21.0813L12.078 19.6348C12.3438 19.4871 12.4324 19.1623 12.2847 18.8968C12.1371 18.6311 11.8123 18.5425 11.5468 18.6902L9.50996 19.7529L7.82721 17.5389C7.53195 17.1846 7.11881 16.9779 6.64643 16.9779C5.79043 16.9779 5.11133 17.6568 5.11133 18.513V22.6755C5.11133 23.5019 5.76066 24.1515 6.58736 24.1515H6.61689H9.86404L10.6608 27.6937C10.7494 28.0775 11.1332 28.343 11.5168 28.2842C11.9302 28.2251 12.1957 27.8413 12.1366 27.4282L11.458 23.5607C11.4284 23.236 11.1627 22.9702 10.8382 22.8819L8.21058 22.0554V20.2548C8.21058 20.2841 8.83067 20.9041 8.97832 21.0223Z" fill="black"/>
<path d="M24.351 13.4637C25.2533 13.6024 25.8724 14.4465 25.7337 15.3488C25.5948 16.2512 24.7509 16.8704 23.8484 16.7314C22.9459 16.5927 22.327 15.7487 22.4657 14.8464C22.6044 13.9439 23.4485 13.3247 24.351 13.4637Z" fill="black"/>
<path d="M8.88949 24.7119H4.87465L3.7824 17.4504C3.75288 17.1847 3.51667 17.0075 3.28047 17.0075H2.24728C1.95202 17.0075 1.71582 17.2437 1.71582 17.539V27.93C1.74535 28.1367 1.9225 28.2843 2.12918 28.2548C2.30633 28.2252 2.45397 28.1071 2.45397 27.93V27.133H8.62389V27.93C8.65341 28.1367 8.83057 28.2843 9.03725 28.2548C9.2144 28.2252 9.36203 28.1071 9.36203 27.93V25.1846C9.36181 24.9188 9.15536 24.7122 8.88962 24.7122L8.88949 24.7119Z" fill="black"/>
<path d="M15.1479 5.08126C15.1479 5.47493 14.5576 5.47493 14.5576 5.08126C14.5576 4.68758 15.1479 4.68758 15.1479 5.08126Z" fill="black"/>
<path d="M15.1772 3.69376C15.1772 4.08744 14.5869 4.08744 14.5869 3.69376C14.5869 3.30008 15.1772 3.30008 15.1772 3.69376Z" fill="black"/>
<path d="M15.2065 2.30625C15.2065 2.69993 14.6162 2.69993 14.6162 2.30625C14.6162 1.91281 15.2065 1.91281 15.2065 2.30625Z" fill="black"/>
<path d="M10.5424 5.99648C10.5424 6.39016 9.95215 6.39016 9.95215 5.99648C9.95215 5.60304 10.5424 5.60304 10.5424 5.99648Z" fill="black"/>
<path d="M9.65668 4.9336C9.65668 5.32728 9.06641 5.32728 9.06641 4.9336C9.06641 4.53992 9.65668 4.53992 9.65668 4.9336Z" fill="black"/>
<path d="M8.80145 3.8707C8.80145 4.26438 8.21094 4.26438 8.21094 3.8707C8.21094 3.47702 8.80145 3.47702 8.80145 3.8707Z" fill="black"/>
<path d="M7.56121 8.18086C7.56121 8.57454 6.9707 8.57454 6.9707 8.18086C6.9707 7.78741 7.56121 7.78741 7.56121 8.18086Z" fill="black"/>
<path d="M6.23309 7.79708C6.23309 8.19052 5.64258 8.19052 5.64258 7.79708C5.64258 7.4034 6.23309 7.4034 6.23309 7.79708Z" fill="black"/>
<path d="M4.90473 7.44258C4.90473 7.83626 4.31445 7.83626 4.31445 7.44258C4.31445 7.0489 4.90473 7.0489 4.90473 7.44258Z" fill="black"/>
<path d="M19.8122 6.05509C19.8122 6.44877 19.2217 6.44877 19.2217 6.05509C19.2217 5.66141 19.8122 5.66141 19.8122 6.05509Z" fill="black"/>
<path d="M20.6677 4.96289C20.6677 5.35657 20.0771 5.35657 20.0771 4.96289C20.0771 4.56921 20.6677 4.56921 20.6677 4.96289Z" fill="black"/>
<path d="M21.4946 3.8707C21.4946 4.26438 20.9043 4.26438 20.9043 3.8707C20.9043 3.47702 21.4946 3.47702 21.4946 3.8707Z" fill="black"/>
<path d="M23.03 8.23945C23.03 8.63313 22.4395 8.63313 22.4395 8.23945C22.4395 7.84601 23.03 7.84601 23.03 8.23945Z" fill="black"/>
<path d="M24.3581 7.91544C24.3581 8.30888 23.7676 8.30888 23.7676 7.91544C23.7676 7.52176 24.3581 7.52176 24.3581 7.91544Z" fill="black"/>
<path d="M25.6862 7.59024C25.6862 7.98392 25.0957 7.98392 25.0957 7.59024C25.0957 7.19656 25.6862 7.19656 25.6862 7.59024Z" fill="black"/>
<path d="M27.753 17.0074H26.6902C26.4245 17.0074 26.2178 17.2141 26.1883 17.4503L25.1256 24.7124L21.1108 24.7122C20.9631 24.7122 20.845 24.7712 20.7564 24.8893L20.5202 24.2105H23.561C24.0334 24.1809 24.4465 23.7971 24.5056 23.3249L25.2139 18.7789C25.4502 16.8011 22.6161 16.3877 22.2618 18.336L21.937 20.4319L19.9297 20.5795C19.7821 20.5795 19.6345 20.6681 19.5459 20.7862L18.7489 20.6091C18.6603 20.5795 18.5422 20.6386 18.4832 20.6976L17.9522 21.406C17.8636 21.5241 17.8931 21.6718 18.0407 21.7603C18.0703 21.7603 18.0703 21.7899 18.0998 21.7899L18.395 21.8489C18.2179 22.0556 18.1588 22.3509 18.2474 22.6164L18.395 22.9707C18.1588 23.0593 17.9817 23.2659 17.9226 23.5022L16.919 27.3693C16.8304 27.7532 17.0666 28.1663 17.4504 28.2549C17.8343 28.3434 18.2474 28.1368 18.3655 27.7234L19.1625 25.0961L19.4578 25.8931C19.6054 26.3064 20.0483 26.5129 20.4614 26.3655C20.5205 26.3359 20.609 26.3064 20.6681 26.2474V27.9006C20.6976 28.1073 20.8748 28.2549 21.0814 28.2254C21.2586 28.1958 21.4062 28.0777 21.4062 27.9006V27.1036H27.5463V27.9006C27.5758 28.1073 27.7529 28.2549 27.9596 28.2254C28.1368 28.1958 28.2844 28.0777 28.2844 27.9006L28.284 17.5096C28.284 17.2438 28.048 17.0076 27.7527 17.0076L27.753 17.0074ZM18.218 21.5239L18.6904 20.8746L19.4283 21.0518V21.1108C19.4283 21.4061 19.6941 21.6423 19.9893 21.6423L21.7606 21.5832L21.6425 22.2621L18.218 21.5239Z" fill="black"/>
</svg>
